<svg xmlns="http://www.w3.org/2000/svg" width="196.175" height="43.82" viewBox="0 0 196.175 43.82">
    <defs>
        <style>
            .cls-1{fill:#1a1818}.cls-2{fill:#fff}
        </style>
    </defs>
    <g id="bitcoin_safety_logo" transform="translate(-159.856 -46.086)">
        <g id="그룹_4022" transform="translate(-32.64 -7.77)">
            <path id="패스_3592" d="M235.683 74.23a2.179 2.179 0 0 1 0 3.073l-19.74 19.74a2.179 2.179 0 0 1-3.073 0L193.13 77.3a2.179 2.179 0 0 1 0-3.073l19.74-19.74a2.179 2.179 0 0 1 3.073 0z" class="cls-1"/>
            <path id="패스_3593" d="M254.2 98.085l-.538.538a1.418 1.418 0 0 1 0 2l-16.112 16.105a1.419 1.419 0 0 1-2 0l-16.105-16.108a1.418 1.418 0 0 1 0-2l16.108-16.108a1.419 1.419 0 0 1 2 0l16.108 16.108.538-.538.538-.538-16.111-16.105a2.94 2.94 0 0 0-4.148 0L218.37 97.547a2.939 2.939 0 0 0 0 4.148l16.107 16.105a2.94 2.94 0 0 0 4.148 0l16.108-16.1a2.939 2.939 0 0 0 0-4.148z" class="cls-2" transform="translate(-22.24 -23.76)"/>
            <path id="패스_3594" d="M325.244 162.466h-2.435v-1.994h3.9v-3.113h1.735v3.1h1.736v-3.1h1.736v3.112h.369a4.744 4.744 0 0 1 2.9.96 3.327 3.327 0 0 1 1.332 2.075 3.054 3.054 0 0 1-.787 2.678c-.186.211-.405.393-.616.594l.141.076a4.948 4.948 0 0 1 1.713 1.441 3.552 3.552 0 0 1-.337 4.686 5.72 5.72 0 0 1-3.068 1.633 6.586 6.586 0 0 1-1.452.139h-.186v3.028h-1.738v-3.02h-1.737v3.022h-1.736v-3.031H322.8l.36-1.445c.056-.223.118-.445.166-.67.019-.088.056-.112.142-.111H325.245zm3.208 5.72c0 .041-.008.063-.008.084v4.146c0 .1.045.113.128.113 1.116 0 2.233.009 3.349 0a2.17 2.17 0 1 0-.029-4.339h-3.3zm0-5.72v3.9c.043 0 .077.007.112.007h2.5a1.824 1.824 0 0 0 .343-.036 1.95 1.95 0 0 0-.377-3.867h-1.886z" class="cls-2" transform="translate(-115.84 -92.014)"/>
        </g>
        <g id="text" transform="translate(35.672 -36.27)">
            <path id="패스_3595" d="M692.116 115.143h2.375v-7.2a2.894 2.894 0 0 1 .162-1.015 3.34 3.34 0 0 1 3.185-2.227c2.24 0 3.022 1.608 3.022 3.538v6.9h2.375v-7.151c0-4.107-2.807-5.1-4.615-5.1a4.885 4.885 0 0 0-4.318 2.252h-.054l-.135-1.979h-2.1c.081.99.108 2 .108 3.241zm-5.128-16.7A1.39 1.39 0 0 0 685.5 99.8a1.475 1.475 0 1 0 1.484-1.361zm1.187 16.7v-11.976H685.8v11.976zm-11.713-10.615c2.807 0 3.913 2.573 3.913 4.6 0 2.7-1.7 4.652-3.967 4.652-2.321 0-3.967-1.98-3.967-4.6.001-2.28 1.215-4.652 4.022-4.652zm.054-1.633c-3.616 0-6.477 2.351-6.477 6.359a5.937 5.937 0 0 0 6.261 6.161c3.158 0 6.5-1.93 6.5-6.359a5.911 5.911 0 0 0-6.283-6.161zm-8.555 10.169a7.255 7.255 0 0 1-2.915.594 4.5 4.5 0 1 1 .081-9.007 5.91 5.91 0 0 1 2.753.569l.54-1.683a8.55 8.55 0 0 0-3.292-.619c-4.264 0-7.017 2.672-7.017 6.359 0 3.662 2.564 6.112 6.5 6.112a9.416 9.416 0 0 0 3.751-.693zM650.824 100.3v2.87H648.8v1.658h2.024v6.532a4.177 4.177 0 0 0 .917 3.118 3.451 3.451 0 0 0 2.564.916 6.293 6.293 0 0 0 2.1-.3l-.108-1.633a5.72 5.72 0 0 1-1.376.149c-1.323 0-1.781-.841-1.781-2.326v-6.458h3.4v-1.658h-3.4v-3.44zm-5.667-1.856a1.39 1.39 0 0 0-1.484 1.361 1.475 1.475 0 1 0 1.484-1.361zm1.187 16.7v-11.977h-2.374v11.976zm-14.573-7.992h1.943c2.564 0 4.7.94 4.7 3.216 0 2.425-2.24 3.241-4.669 3.241a13.67 13.67 0 0 1-1.97-.1zm0-7a10.951 10.951 0 0 1 2.078-.149c2.375 0 3.994.767 3.994 2.722 0 1.608-1.457 2.8-3.94 2.8h-2.132zm-2.348 14.945a29.9 29.9 0 0 0 3.643.2c2.969 0 5.019-.495 6.288-1.559a4.327 4.327 0 0 0 1.538-3.34 4.427 4.427 0 0 0-3.751-4.182v-.05a4.026 4.026 0 0 0 3.077-3.662 3.4 3.4 0 0 0-1.511-2.944c-1.133-.841-2.645-1.212-4.993-1.212a24.765 24.765 0 0 0-4.291.346z" class="cls-1" transform="translate(-454.062 -3.905)"/>
            <path id="패스_3596" d="M679.242 288.8l4.831 11.035a1.77 1.77 0 0 1 .162.569 1.473 1.473 0 0 1-.189.52 6.708 6.708 0 0 1-2 2.425 6.469 6.469 0 0 1-2.078 1.064l.594 1.831a6.666 6.666 0 0 0 2.915-1.41c1.619-1.286 2.78-3.39 4.48-7.5l3.562-8.536h-2.51l-2.591 7.027c-.324.866-.594 1.781-.836 2.5h-.054c-.216-.718-.54-1.658-.837-2.449l-2.861-7.077zm-6.908-2.87v2.87h-2.024v1.658h2.024v6.532a4.178 4.178 0 0 0 .918 3.118 3.451 3.451 0 0 0 2.564.916 6.287 6.287 0 0 0 2.1-.3l-.108-1.633a5.72 5.72 0 0 1-1.376.149c-1.322 0-1.781-.841-1.781-2.326v-6.458h3.4V288.8h-3.4v-3.439zm-12.712 7.7a3.753 3.753 0 0 1 3.643-3.538 3.186 3.186 0 0 1 3.292 3.538zm9.149 1.559a7.531 7.531 0 0 0 .081-1.014c0-2.2-1.134-5.641-5.4-5.641-3.805 0-6.126 2.846-6.126 6.458s2.4 6.037 6.423 6.037a11.412 11.412 0 0 0 4.345-.742l-.4-1.559a9.269 9.269 0 0 1-3.616.618c-2.375 0-4.426-1.212-4.48-4.157zm-15.437 5.592v-10.327h3.158V288.8h-3.158v-.643c0-1.831.513-3.464 2.537-3.464a3.825 3.825 0 0 1 1.511.272l.324-1.682a5.945 5.945 0 0 0-2.024-.347 4.785 4.785 0 0 0-3.184 1.114 5.358 5.358 0 0 0-1.512 4.181v.569h-1.836v1.658h1.835v10.318zm-8.717-4.033a2.1 2.1 0 0 1-.135.693 3.24 3.24 0 0 1-3.158 2 2.022 2.022 0 0 1-2.24-2.079c0-2.326 2.942-2.746 5.533-2.7zm2.51 4.033a15.5 15.5 0 0 1-.216-2.87v-4.479c0-2.4-.972-4.9-4.966-4.9a8.668 8.668 0 0 0-4.291 1.064l.54 1.435a6.946 6.946 0 0 1 3.4-.891c2.672 0 2.969 1.781 2.969 2.771v.247c-5.047-.025-7.854 1.559-7.854 4.454 0 1.732 1.349 3.439 3.994 3.439a5.02 5.02 0 0 0 3.994-1.782h.081l.189 1.509zm-23.614-.817a10.077 10.077 0 0 0 4.642 1.064c4.291 0 6.369-2.227 6.369-4.8 0-2.45-1.565-3.81-4.642-4.9-2.51-.891-3.616-1.658-3.616-3.217 0-1.138.945-2.5 3.427-2.5a7.758 7.758 0 0 1 3.454.792l.648-1.757a8.881 8.881 0 0 0-4.021-.817c-3.535 0-5.883 1.93-5.883 4.528 0 2.351 1.835 3.761 4.8 4.726 2.456.866 3.427 1.757 3.427 3.315 0 1.682-1.4 2.845-3.805 2.845a8.889 8.889 0 0 1-4.21-1.089z" class="cls-1" transform="translate(-371.161 -189.575)"/>
        </g>
    </g>
</svg>
