<svg width="360" height="200" viewBox="0 0 360 200" fill="none" xmlns="http://www.w3.org/2000/svg">
<rect width="360" height="200" fill="#27C4B8"/>
<path fill-rule="evenodd" clip-rule="evenodd" d="M294.941 0L273.003 200H184.297L37.5982 0H294.941Z" fill="#32938B" fill-opacity="0.1"/>
<g opacity="0.3">
<path d="M300.639 71.3753L307.538 67.4164V57.9589L300.639 54V71.3753Z" fill="white"/>
<path d="M275.231 112.53V85.9432L298.348 72.7079V54L260.171 75.9035C259.816 76.1091 259.521 76.4035 259.315 76.7576C259.11 77.1116 259.001 77.5131 259 77.9218V121.91L275.231 112.53Z" fill="white"/>
<path d="M322.532 114.406L299.454 127.642L276.52 114.484L260.223 123.838L298.348 145.69C298.704 145.893 299.108 146 299.519 146C299.931 146.002 300.335 145.895 300.691 145.69L338.88 123.773L322.532 114.406Z" fill="white"/>
<path d="M338.816 75.9034L323.678 67.2222V76.6797L307.459 86.0077L323.73 95.3358V112.375L340 121.781V77.9217C339.998 77.5116 339.887 77.1094 339.679 76.7552C339.471 76.401 339.174 76.1073 338.816 75.9034Z" fill="white"/>
<path d="M291.384 95.2197L291.397 113.747L307.225 104.664V86.1245L291.384 95.2197Z" fill="white"/>
</g>
</svg>
