<svg width="360" height="200" viewBox="0 0 360 200" fill="none" xmlns="http://www.w3.org/2000/svg">
<rect width="360" height="200" fill="#FF0000"/>
<path fill-rule="evenodd" clip-rule="evenodd" d="M294.941 0L273.003 200H184.297L37.5982 0H294.941Z" fill="#870B0B" fill-opacity="0.1"/>
<path d="M338.87 77.827C338.87 77.827 337.765 70.1851 334.377 66.8192C330.08 62.4028 325.264 62.3804 323.055 62.122C307.243 61 283.524 61 283.524 61H283.475C283.475 61 259.756 61 243.942 62.122C241.733 62.3804 236.919 62.4028 232.62 66.8192C229.232 70.1851 228.13 77.827 228.13 77.827C228.13 77.827 227 86.8015 227 95.776V104.189C227 113.163 228.13 122.138 228.13 122.138C228.13 122.138 229.234 129.78 232.62 133.146C236.919 137.562 242.565 137.423 245.08 137.886C254.12 138.737 283.499 139 283.499 139C283.499 139 307.243 138.965 323.056 137.843C325.265 137.585 330.081 137.562 334.378 133.146C337.766 129.78 338.871 122.138 338.871 122.138C338.871 122.138 340 113.163 340 104.189V95.776C340 86.8015 338.871 77.827 338.871 77.827H338.87ZM271.834 114.384L271.828 83.2249L302.361 98.8584L271.834 114.384Z" fill="white" fill-opacity="0.36"/>
</svg>
