<svg width="360" height="200" viewBox="0 0 360 200" fill="none" xmlns="http://www.w3.org/2000/svg">
<rect width="360" height="200" fill="#252525"/>
<path fill-rule="evenodd" clip-rule="evenodd" d="M294.941 0L273.003 200H184.297L37.5982 0H294.941Z" fill="black" fill-opacity="0.1"/>
<g opacity="0.16" clip-path="url(#clip0_11616_14710)">
<path d="M276.351 100.5C276.351 123.42 257.916 142 235.176 142C212.436 142 194 123.42 194 100.5C194 77.5801 212.436 59 235.176 59C257.916 59 276.351 77.5801 276.351 100.5Z" fill="white"/>
<path d="M321.522 100.5C321.522 122.075 312.305 139.565 300.934 139.565C289.563 139.565 280.345 122.074 280.345 100.5C280.345 78.9257 289.565 61.4351 300.935 61.4351C312.306 61.4351 321.524 78.9257 321.524 100.5" fill="white"/>
<path d="M340 100.5C340 119.831 336.759 135.501 332.759 135.501C328.759 135.501 325.518 119.831 325.518 100.5C325.518 81.1692 328.759 65.499 332.759 65.499C336.759 65.499 340 81.1692 340 100.5Z" fill="white"/>
</g>
<defs>
<clipPath id="clip0_11616_14710">
<rect width="146" height="83" fill="white" transform="translate(194 59)"/>
</clipPath>
</defs>
</svg>
