<svg width="51" height="53" viewBox="0 0 51 53" fill="none" xmlns="http://www.w3.org/2000/svg">
<rect x="1" width="50" height="50" rx="8" fill="#F5F5F5"/>
<g filter="url(#filter0_d_5823_5625)">
<path d="M44 5C45.1046 5 46 5.89543 46 7V21.9105C46 22.4409 45.7893 22.9496 45.4142 23.3247L23.1528 45.5858C22.3718 46.3668 21.1054 46.3668 20.3244 45.5858L5.41421 30.6756C4.63316 29.8946 4.63316 28.6282 5.41421 27.8472L27.6756 5.58579C28.0507 5.21071 28.5594 5 29.0898 5H44Z" fill="url(#paint0_linear_5823_5625)"/>
<path d="M45.5 7V21.9105C45.5 22.3083 45.342 22.6898 45.0606 22.9711L22.7993 45.2322C22.2135 45.818 21.2637 45.818 20.6779 45.2322L5.76777 30.3221C5.18198 29.7363 5.18198 28.7865 5.76777 28.2007L28.0292 5.93934C28.3105 5.65803 28.692 5.5 29.0898 5.5H44C44.8284 5.5 45.5 6.17157 45.5 7Z" stroke="#2DA79E"/>
</g>
<path d="M18.3524 31.0321C18.3401 30.8851 18.2788 30.7564 18.1685 30.6461C18.0582 30.5358 17.9265 30.4714 17.7733 30.453C17.6201 30.4224 17.4822 30.4683 17.3596 30.5909L16.5874 31.3631L17.4239 32.1996L18.1961 31.4274C18.3187 31.3049 18.3708 31.1731 18.3524 31.0321ZM18.9591 33.7347L19.8599 34.6356L20.7148 33.7807C20.8558 33.6397 20.914 33.4896 20.8895 33.3302C20.865 33.1587 20.7945 33.0146 20.6781 32.8982L20.6689 32.889C20.5524 32.7726 20.4115 32.7113 20.246 32.7052C20.0867 32.6929 19.9427 32.7511 19.814 32.8798L18.9591 33.7347ZM22.5349 35.1228L19.3911 38.2666C19.3237 38.334 19.241 38.3677 19.1429 38.3677C19.0449 38.3677 18.9621 38.334 18.8947 38.2666L12.9564 32.3283C12.889 32.2609 12.8553 32.1781 12.8553 32.0801C12.8553 31.982 12.889 31.8993 12.9564 31.8319L16.0083 28.78C16.8785 27.9098 17.6783 27.4287 18.4075 27.3368C19.1368 27.2326 19.8201 27.4992 20.4574 28.1365L20.485 28.1641C20.7485 28.4276 20.9079 28.7402 20.963 29.1017C21.012 29.4572 20.9906 29.7728 20.8987 30.0486C21.2419 29.9015 21.6218 29.8708 22.0385 29.9566C22.4552 30.0302 22.8107 30.214 23.1048 30.5082C24.4531 31.8564 24.2631 33.3946 22.5349 35.1228Z" fill="white"/>
<path d="M23.4712 21.3171L25.273 19.5154C25.3404 19.448 25.4231 19.4143 25.5211 19.4143C25.6192 19.4143 25.7019 19.448 25.7693 19.5154L29.4647 23.2107C30.3226 24.0687 30.7026 24.9818 30.6045 25.95C30.5004 26.9122 29.9886 27.8529 29.0694 28.7721C28.1563 29.6852 27.2156 30.1969 26.2473 30.3072C25.2852 30.4114 24.3721 30.0315 23.508 29.1674L19.8127 25.472C19.7453 25.4046 19.7116 25.3219 19.7116 25.2238C19.7116 25.1258 19.7453 25.0431 19.8127 24.9757L21.6144 23.1739C21.6818 23.1065 21.7645 23.0728 21.8626 23.0728C21.9606 23.0728 22.0434 23.1065 22.1108 23.1739L25.8337 26.8969C26.3056 27.3687 26.7682 27.3779 27.2217 26.9244C27.6752 26.471 27.666 26.0083 27.1942 25.5364L23.4712 21.8135C23.4038 21.7461 23.3701 21.6633 23.3701 21.5653C23.3701 21.4672 23.4038 21.3845 23.4712 21.3171Z" fill="white"/>
<path d="M36.6882 20.9695L34.8865 22.7712C34.8191 22.8386 34.7363 22.8723 34.6383 22.8723C34.5402 22.8723 34.4575 22.8386 34.3901 22.7712L32.5792 20.9603L26.4203 18.938C26.3835 18.9257 26.3437 18.8981 26.3008 18.8552C26.2579 18.8124 26.2364 18.7541 26.2364 18.6806C26.2364 18.5948 26.264 18.5243 26.3192 18.4692L28.0473 16.741C28.2312 16.5571 28.4365 16.5051 28.6632 16.5847L31.4301 17.5132L30.5017 14.7463C30.422 14.5195 30.4741 14.3142 30.658 14.1304L32.3861 12.4022C32.4413 12.347 32.5087 12.3225 32.5884 12.3287C32.668 12.3225 32.7293 12.3409 32.7722 12.3838C32.8151 12.4267 32.8427 12.4665 32.855 12.5033L34.8773 18.6622L36.6882 20.4731C36.7556 20.5405 36.7893 20.6232 36.7893 20.7213C36.7893 20.8194 36.7556 20.9021 36.6882 20.9695Z" fill="white"/>
<g filter="url(#filter1_i_5823_5625)">
<circle cx="41" cy="10" r="2" fill="white"/>
</g>
<defs>
<filter id="filter0_d_5823_5625" x="0.828369" y="3" width="49.1716" height="49.1719" filterUnits="userSpaceOnUse" color-interpolation-filters="sRGB">
<feFlood flood-opacity="0" result="BackgroundImageFix"/>
<feColorMatrix in="SourceAlpha" type="matrix" values="0 0 0 0 0 0 0 0 0 0 0 0 0 0 0 0 0 0 127 0" result="hardAlpha"/>
<feOffset dy="2"/>
<feGaussianBlur stdDeviation="2"/>
<feComposite in2="hardAlpha" operator="out"/>
<feColorMatrix type="matrix" values="0 0 0 0 0 0 0 0 0 0 0 0 0 0 0 0 0 0 0.16 0"/>
<feBlend mode="normal" in2="BackgroundImageFix" result="effect1_dropShadow_5823_5625"/>
<feBlend mode="normal" in="SourceGraphic" in2="effect1_dropShadow_5823_5625" result="shape"/>
</filter>
<filter id="filter1_i_5823_5625" x="39" y="8" width="4" height="6" filterUnits="userSpaceOnUse" color-interpolation-filters="sRGB">
<feFlood flood-opacity="0" result="BackgroundImageFix"/>
<feBlend mode="normal" in="SourceGraphic" in2="BackgroundImageFix" result="shape"/>
<feColorMatrix in="SourceAlpha" type="matrix" values="0 0 0 0 0 0 0 0 0 0 0 0 0 0 0 0 0 0 127 0" result="hardAlpha"/>
<feOffset dy="2"/>
<feGaussianBlur stdDeviation="2"/>
<feComposite in2="hardAlpha" operator="arithmetic" k2="-1" k3="1"/>
<feColorMatrix type="matrix" values="0 0 0 0 0 0 0 0 0 0 0 0 0 0 0 0 0 0 0.16 0"/>
<feBlend mode="normal" in2="shape" result="effect1_innerShadow_5823_5625"/>
</filter>
<linearGradient id="paint0_linear_5823_5625" x1="42.5" y1="6" x2="17" y2="47" gradientUnits="userSpaceOnUse">
<stop stop-color="#27C4B8"/>
<stop offset="1" stop-color="#2DA49B"/>
</linearGradient>
</defs>
</svg>
