<?xml version="1.0" encoding="utf-8"?>
<!-- Generator: Adobe Illustrator 25.2.1, SVG Export Plug-In . SVG Version: 6.00 Build 0)  -->
<svg version="1.1" id="Layer_1" xmlns="http://www.w3.org/2000/svg" xmlns:xlink="http://www.w3.org/1999/xlink" x="0px" y="0px"
	 viewBox="0 0 60 60" style="enable-background:new 0 0 60 60;" xml:space="preserve">
<style type="text/css">
	.st0{fill:#B7B5B1;}
	.st1{fill:#244B81;}
</style>
<g>
	<g id="Shape_1_3_">
		<g>
			<path class="st0" d="M60,27.1c-6.9-39.9-59-32.2-60,0c3,1.6,4.9,2.5,4.9,2.5s-1.6,1-4.9,3.1c6,39.2,57.3,33.5,60,0
				c-3.3-2-5-3.1-5-3.1S56.5,28.9,60,27.1z M34.3,41.1l-4.9-8.4l-5,8.4l-3.8-0.3l7.1-11.9l-6.4-10.3l3.8-0.3l4.5,7.6l4.5-7.3
				l3.6,0.1L32,28.8L38.5,41L34.3,41.1z"/>
		</g>
	</g>
	<g id="Shape_1_2_">
		<g>
			<path class="st1" d="M57.6,25.6C48.2-9.9,5.4-0.3,2.5,25.6c5.9,3.3,7.3,4.1,7.3,4.1s-2.3,1.5-7.3,4.7c6.4,34.1,52.6,27.6,55.1,0
				c-4.7-2.9-7.4-4.6-7.4-4.6S56.4,26.2,57.6,25.6z M34.3,41.1l-4.9-8.4l-5,8.4l-3.8-0.3l7.1-11.9l-6.4-10.3l3.8-0.3l4.5,7.6
				l4.5-7.3l3.6,0.1L32,28.9L38.5,41L34.3,41.1z"/>
		</g>
	</g>
</g>
</svg>
