<?xml version="1.0" encoding="UTF-8"?>
<svg width="64px" height="64px" viewBox="0 0 64 64" version="1.1" xmlns="http://www.w3.org/2000/svg" xmlns:xlink="http://www.w3.org/1999/xlink">
    <title>KSTA_SYMBOL</title>
    <defs>
        <linearGradient x1="0%" y1="100%" x2="100%" y2="100%" id="linearGradient-1">
            <stop stop-color="#EE7F75" offset="0%"></stop>
            <stop stop-color="#D94940" offset="100%"></stop>
        </linearGradient>
        <linearGradient x1="0%" y1="100%" x2="100%" y2="100%" id="linearGradient-2">
            <stop stop-color="#F5D540" offset="0%"></stop>
            <stop stop-color="#DBA11A" offset="100%"></stop>
        </linearGradient>
    </defs>
    <g id="KSTA_SYMBOL" stroke="none" stroke-width="1" fill="none" fill-rule="evenodd">
        <g id="ksta" transform="translate(2.000000, 0.000000)" fill-rule="nonzero">
            <polygon id="Rectangle-Copy-41" fill="url(#linearGradient-1)" points="35.2041403 9.10868317 35.2041403 35.6066706 8.70615295 35.6066706"></polygon>
            <polygon id="Rectangle-Copy-42" fill="url(#linearGradient-2)" points="8.70615295 35.6066706 35.2041403 35.6066706 35.2041403 62.1046577"></polygon>
            <path d="M27.2370895,0 L2.90971823,0 C1.53774001,0 0.425531915,1.1122081 0.425531915,2.48418631 L0.425531915,26.8115576 C0.425531915,27.4975467 0.981635963,28.0536508 1.66762507,28.0536508 C1.99704866,28.0536508 2.31297991,27.9227878 2.54591757,27.6898501 L28.115382,2.12038565 C28.6004496,1.6353181 28.6004496,0.848868214 28.115382,0.363800664 C27.8824444,0.13086301 27.5665131,0 27.2370895,0 Z" id="Path-Copy-8" fill="#33408F"></path>
            <path d="M58.5035377,9.10868317 L35.2041403,9.10868317 L35.2041403,9.10868317 L35.2041403,35.6066706 L59.440383,11.3704278 C59.9577883,10.8530225 59.9577883,10.0141426 59.440383,9.49673719 C59.1919163,9.24827037 58.8549229,9.10868317 58.5035377,9.10868317 Z" id="Path-Copy-9" fill="#F25148"></path>
            <path d="M58.5035377,35.6066683 L35.2041403,35.6066683 L35.2041403,35.6066683 L35.2041403,62.1046553 L59.440383,37.8684129 C59.9577883,37.3510073 59.9577883,36.5121277 59.440383,35.994722 C59.1919163,35.7462553 58.8549229,35.6066683 58.5035377,35.6066683 Z" id="Path-Copy-10" fill="#F0AD26" transform="translate(47.516289, 48.855662) scale(-1, 1) rotate(-180.000000) translate(-47.516289, -48.855662) "></path>
            <path d="M19.2687363,42.5741593 L2.08165612,42.5741593 C1.16700398,42.5741593 0.425531915,43.3156313 0.425531915,44.2302832 L0.425531915,61.4173637 C0.425531915,61.8746897 0.796267949,62.2454257 1.25359402,62.2454257 C1.47320974,62.2454257 1.68383058,62.1581838 1.83912235,62.0028919 L19.8542646,43.9877498 C20.177643,43.6643714 20.177643,43.1400715 19.8542646,42.8166931 C19.6989729,42.6614012 19.488352,42.5741593 19.2687363,42.5741593 Z" id="Path-Copy-11" fill="#42B8AE" transform="translate(10.261165, 52.409793) scale(-1, 1) rotate(-180.000000) translate(-10.261165, -52.409793) "></path>
        </g>
    </g>
</svg>