<?xml version="1.0" encoding="utf-8"?>
<!-- Generator: Adobe Illustrator 25.3.0, SVG Export Plug-In . SVG Version: 6.00 Build 0)  -->
<svg version="1.1" xmlns="http://www.w3.org/2000/svg" xmlns:xlink="http://www.w3.org/1999/xlink" x="0px" y="0px"
	 viewBox="0 0 1170 780" style="enable-background:new 0 0 1170 780;" xml:space="preserve">
<style type="text/css">
	.st0{fill:#58359D;}
	.st1{fill:#B656AA;}
</style>
<g id="background">
</g>
<g id="object">
	<path class="st0" d="M317.8,364.5c1.5-3.3,1-5.7,1-8.1c0-58.8,0.1-117.5-0.1-176.3c0-5.1,1.6-6.7,6.3-7.3
		c22.2-3.1,44.3-4.1,66.5-0.2c5.1,0.9,6.6,2.7,6.6,7.8c-0.3,112.9-0.4,225.9-0.4,338.8c0,5.2-1.6,7.2-6.6,8
		c-20.5,3.6-40.8,3.1-61.2-0.9c-3.3-0.7-4.5-3.1-6-5.5c-35.6-59.8-71.2-119.6-106.8-179.4c-1.2-2-2.4-3.9-4.9-5.4c0,2.1,0,4.1,0,6.2
		c0,58.8-0.1,117.5,0.1,176.3c0,5.4-1.2,7.4-6.9,8.3c-22.7,3.7-45.2,3.3-67.8-0.4c-4.9-0.8-4.5-3.6-4.4-6.9c0-42.6,0-85.2,0-127.8
		c0-70.3,0.1-140.7-0.2-211c0-6,2-7.5,7.4-8.4c19.4-3.1,38.7-3.4,58,0.1c4.3,0.8,7.3,2.4,9.6,6.5c35,59.7,70.2,119.2,105.4,178.7
		C314.8,359.7,316.1,361.7,317.8,364.5z"/>
	<path class="st1" d="M748.4,545.9c0-21.8-0.3-43.7,0.1-65.5c0.4-21.8,4.9-42.8,15.2-62.3c14.6-27.8,37.8-43.3,68.2-48.7
		c20.7-3.7,41.7-3.7,62.6-5.4c13-1.1,26.1-1.8,39.1-3.5c43.3-5.6,59.1-57,39.2-88.7c-11.9-18.9-29.4-26.4-50.3-28.4
		c-7.9-0.8-7.9-0.7-7.9-8.9c0-19.2,0.1-38.4-0.1-57.7c0-3.6,0.4-5.8,4.9-5.5c21.5,1.3,43.3,1.1,64.4,5.9c38.2,8.8,64,33,76.1,69.6
		c11.9,36.2,12.7,73.5-0.7,109.8c-16.2,43.8-48.1,68.9-94.4,75.5c-18,2.6-36.1,3-54.2,3.9c-15.9,0.7-31.8,1.5-47.6,3.8
		c-14.1,2-24.2,10.6-27.6,24.4c-1.8,7.2-3.5,14.5-3.2,22c1.1,25.6-7.1,48.5-20.1,70c-10.5,17.4-22.1,34.1-37.2,48
		c-5.8,5.4-12.1,10-19.2,13.5c-7.3,3.6-7.6,3.5-7.6-4.4c0-22.5,0-45,0-67.5C748.2,545.9,748.3,545.9,748.4,545.9z"/>
	<path class="st0" d="M445.3,349.1c0-56.4,0.1-112.7-0.1-169.1c0-5.8,1.5-7.2,7.2-7.2c64.4,0.2,128.9,0.2,193.3,0
		c5.1,0,7.3,1.2,8,6.5c2.4,18,4.2,36,0.1,54.1c-1.1,4.8-2.2,7.2-8.1,7.1c-35.6-0.4-71.2-0.1-106.8-0.3c-5.2,0-7.2,0.9-7,6.7
		c0.4,19,0.3,38,0,57c-0.1,5,1.4,6.2,6.2,6.1c27.5-0.2,55,0,82.6-0.2c4.8,0,6.5,1.2,7.4,6.3c4.1,22,4,43.8-0.2,65.7
		c-0.9,4.5-2.5,5.6-6.7,5.6c-27.5-0.2-55,0.1-82.6-0.2c-5.5-0.1-6.8,1.6-6.8,6.9c0.2,41.5,0,83,0.2,124.5c0,5.3-1.1,7.4-6.8,8.2
		c-24.6,3.6-49.1,3.7-73.7-0.1c-4.9-0.8-6.4-2.3-6.4-7.3C445.3,462.7,445.3,405.9,445.3,349.1z"/>
	<path class="st0" d="M747.9,414.2c0-2.4,0-4.7,0-7.1c0.1-50.7,0.1-101.4,0.2-152.1c0-8.8-0.4-9.2-9.2-10.9
		c-3.4-0.7-6.9-1.4-9.9-3.3c-23.8-15.5-41.4-35.9-50.6-63.1c-1.8-5.3-0.7-6.6,4.9-6.6c69.5,0.1,138.9,0,208.4,0
		c10.1,0,11.2,1.1,11.2,11.3c0,18.8-0.1,37.6,0.1,56.4c0.1,4.5-1,6-5.7,5.9c-17.9-0.3-35.8-0.2-53.7-0.3c-8.9,0-10.2,1.1-10.2,10.2
		c0,29.3,0.1,58.5,0.2,87.8c0,12.1-0.7,13.5-12.3,16.3c-27.2,6.7-47.8,22.5-64.1,44.8c-2.7,3.7-5.5,7.3-8.2,10.9
		C748.7,414.4,748.3,414.3,747.9,414.2z"/>
</g>
</svg>
