<?xml version="1.0" encoding="utf-8"?>
<!-- Generator: Adobe Illustrator 26.0.0, SVG Export Plug-In . SVG Version: 6.00 Build 0)  -->
<svg version="1.1" id="레이어_1" xmlns="http://www.w3.org/2000/svg" xmlns:xlink="http://www.w3.org/1999/xlink" x="0px"
	 y="0px" viewBox="0 0 80 80" style="enable-background:new 0 0 80 80;" xml:space="preserve">
<style type="text/css">
	.st0{fill-rule:evenodd;clip-rule:evenodd;fill:#FFFFFF;}
	.st1{fill:#3BB69D;}
	.st2{fill:#ABABAA;}
</style>
<desc>Created with Sketch.</desc>
<path id="Rectangle" class="st0" d="M40,0L40,0c22.1,0,40,17.9,40,40l0,0c0,22.1-17.9,40-40,40l0,0C17.9,80,0,62.1,0,40l0,0
	C0,17.9,17.9,0,40,0z"/>
<g>
	<path class="st1" d="M62.3,25.5L47,16.2c-8.4-5.1-19.3-2.4-24.4,5.9s-2.4,19.3,5.9,24.4l4.8,2.9c0,0,0,0,0,0
		c2.5,1.5,5.8,0.7,7.3-1.8c0.2-0.3,0.3-0.6,0.4-0.9c0.9-2.4,0-5.1-2.2-6.5l0,0l-4.8-2.9c-3.3-2-4.4-6.4-2.4-9.7
		c2-3.3,6.4-4.4,9.7-2.4l13.9,8.5l1.4,0.8c2.5,1.5,5.8,0.7,7.3-1.8C65.6,30.3,64.8,27,62.3,25.5z"/>
	<path class="st2" d="M17.7,54.5L33,63.8c8.4,5.1,19.3,2.4,24.4-5.9s2.4-19.3-5.9-24.4l-4.8-2.9c0,0,0,0,0,0
		c-2.5-1.5-5.8-0.7-7.3,1.8c-0.2,0.3-0.3,0.6-0.4,0.9c-0.9,2.4,0,5.1,2.2,6.5l0,0l4.8,2.9c3.3,2,4.4,6.4,2.4,9.7s-6.4,4.4-9.7,2.4
		l-13.9-8.5l-1.4-0.8c-2.5-1.5-5.8-0.7-7.3,1.8C14.4,49.7,15.2,53,17.7,54.5z"/>
</g>
</svg>
