<svg width="40" height="40" viewBox="0 0 40 40" fill="none" xmlns="http://www.w3.org/2000/svg">
<circle cx="19.9999" cy="19.9999" r="17.7778" fill="#9B9B9B"/>
<mask id="mask0_1334_10169" style="mask-type:luminance" maskUnits="userSpaceOnUse" x="2" y="2" width="36" height="36">
<circle cx="19.9999" cy="19.9999" r="17.7778" fill="white"/>
</mask>
<g mask="url(#mask0_1334_10169)">
<path d="M17.127 11.0282L17.2706 11.0314L17.3688 11.0348L17.5207 11.0419L17.6252 11.0481L17.7876 11.0595L17.9574 11.0736L18.075 11.0845L18.2588 11.1034L18.3866 11.1177L18.5188 11.1333L18.7976 11.1688L19.0201 11.1993L19.2551 11.2332L19.5891 11.284L19.7655 11.3118L20.1382 11.3726L20.5392 11.4404L21.4977 11.6158L22.2365 11.7471L22.5876 11.8053C23.707 11.9851 24.7328 12.0998 25.7096 12.1366C26.3742 12.1366 27.0033 12.0696 27.5633 11.9557C27.7801 11.9116 27.9763 11.8624 28.1403 11.8128L28.206 11.7923L28.2911 11.7637L28.3568 11.7393L28.3877 11.7263L28.4446 11.6988C28.4904 11.6772 28.5369 11.6577 28.5879 11.6381C28.7441 11.5786 28.8912 11.5471 29.0304 11.5471C29.1244 11.5471 29.2146 11.5614 29.3014 11.5905C29.5611 11.6785 29.7386 11.8861 29.8344 12.1712C29.9356 12.4729 29.9064 12.8497 29.7735 13.2604C29.6671 13.5892 29.4967 13.9288 29.2799 14.2419C28.9778 14.6788 28.6002 15.0491 28.1866 15.2963C27.6643 15.6084 26.842 15.7491 25.788 15.7491C24.8769 15.7491 23.8135 15.6407 22.7816 15.454L22.7621 15.4504L22.5179 16.1915L22.094 17.4827L21.6124 18.9628L21.3789 19.6918L21.2656 20.0528L21.5144 20.0894L21.7674 20.1243L22.0137 20.156L22.2532 20.1845C22.843 20.2516 23.3669 20.288 23.8145 20.2921L23.8992 20.2925C24.4507 20.2925 24.8683 20.2407 25.1306 20.143C25.528 19.9949 25.836 19.9203 26.0984 19.9203C26.3177 19.9203 26.5105 19.9748 26.672 20.0915C26.8178 20.1975 26.9254 20.346 26.9968 20.5319C27.2488 21.1881 26.7148 22.3254 25.8356 23.0329C25.7662 23.0889 25.6972 23.1407 25.6272 23.1892C24.975 23.6393 24.0239 23.8302 22.8523 23.8302C22.1979 23.8302 21.5145 23.7703 20.8296 23.6698C20.5942 23.6353 20.378 23.5988 20.1692 23.56L20.2083 23.5661L20.122 23.8217L20.0282 24.0923L19.9353 24.3557L19.8432 24.612L19.7517 24.8613C19.7366 24.9023 19.7214 24.943 19.7062 24.9834L19.6157 25.2228L19.5256 25.4557C19.5106 25.494 19.4956 25.532 19.4807 25.5698L19.3912 25.7935C19.3614 25.867 19.3316 25.9396 19.3019 26.0112L19.2128 26.2233L19.1239 26.4298L19.0349 26.631C19.0201 26.6641 19.0053 26.697 18.9905 26.7296L18.9014 26.9232C18.8866 26.9551 18.8717 26.9867 18.8568 27.0182L18.7675 27.2046C18.7526 27.2353 18.7377 27.2658 18.7227 27.2961L18.6329 27.4758C18.6179 27.5054 18.6029 27.5349 18.5878 27.5641L18.4973 27.7376C18.4822 27.7661 18.4671 27.7945 18.4519 27.8228L18.3605 27.9904L18.2685 28.1545L18.1757 28.315C18.1447 28.368 18.1134 28.4205 18.0821 28.4724L17.9875 28.6267C17.845 28.856 17.6991 29.0758 17.5485 29.289L17.4474 29.4302L17.3449 29.5697L17.293 29.6389L17.1881 29.7761L17.1351 29.8443L17.0839 29.9092C16.6677 30.3926 16.1898 30.7132 15.684 30.8972C15.3416 31.0218 15.0328 31.0691 14.7862 31.0691L14.7427 31.0684L14.6745 31.0672C13.9494 31.0491 13.2546 30.7499 12.6852 30.1879L12.6305 30.1326C12.2679 29.7583 12.1236 29.3208 12.1172 28.903V28.8664L12.1184 28.822L12.1202 28.7909C12.1209 28.5701 12.2345 28.4044 12.413 28.2871L12.4451 28.2669C12.5314 28.2151 12.6173 28.178 12.7425 28.1356L12.8322 28.1063L12.9826 28.0596L13.0676 28.032L13.1114 28.0166L13.1474 28.0025L13.1774 27.9892C13.1847 27.9857 13.1935 27.9809 13.2037 27.9747L13.2382 27.9523L13.2799 27.9226C13.2875 27.9171 13.2952 27.9112 13.3032 27.9051L13.3541 27.8654L13.4098 27.8195L13.4694 27.768C13.6406 27.6167 13.8291 27.4228 14.019 27.1972C14.5055 26.6195 14.9456 25.9064 15.2834 25.0852C15.4396 24.7057 15.5953 24.3105 15.7533 23.8928L15.7925 23.7887L15.7728 23.7824C15.4985 23.6874 15.2406 23.4904 15.118 23.2253L15.1021 23.1887C14.8134 22.477 15.0542 21.5323 15.5131 20.9224C15.7054 20.6461 15.9413 20.4184 16.2111 20.234C16.437 20.0797 16.6757 19.9626 16.9242 19.873C17.0153 19.8402 17.103 19.8127 17.1929 19.7877L17.1668 19.7952L17.383 19.1224L17.7772 17.8786L17.9718 17.2835L18.2519 16.436L18.4401 15.875L18.6125 15.3691L18.7758 14.8989L18.6766 14.8901C18.6173 14.8853 18.5563 14.8811 18.4947 14.8775L18.4019 14.8725L18.2574 14.8664L18.15 14.8664C16.2166 14.8803 15.0476 15.3104 14.6059 16.1032L14.6161 16.085L14.6025 16.1233C14.4992 16.3747 14.3291 16.5458 14.0984 16.5945L13.9958 16.6078L13.9584 16.6087C13.4765 16.6087 13.0966 16.2013 12.7541 15.4546L12.7459 15.4365L12.7168 15.3464C12.6073 14.9982 12.572 14.7608 12.5862 14.3595C12.616 13.5038 12.9434 12.6263 13.6972 12.0709L13.6927 12.0739L13.6843 12.0807L13.7378 12.0351C14.5713 11.3393 15.6835 11.0539 16.8096 11.0291L16.8962 11.0277L17.127 11.0282Z" fill="white"/>
</g>
</svg>
