<svg height="480" viewBox="0 0 480 480" width="480" xmlns="http://www.w3.org/2000/svg"><g fill="none" fill-rule="evenodd"><circle cx="240" cy="240" fill="#141415" r="233" stroke="#64ffa1" stroke-width="14"/><path d="m387.241542 52.8c14.881025 11.8141583 28.30484 25.3818414 39.958458 40.3903319l-184.76663 184.4162121-65.566704-65.439752v119.452865c0 15.674031-12.730037 28.380343-28.433333 28.380343s-28.433333-12.706312-28.433333-28.380343v-184.472231c0-15.674031 12.730037-28.380344 28.433333-28.380344 1.339722 0 2.657802.092484 3.948183.271405 7.223096.043404 14.42967 2.814039 19.938291 8.312394l70.113563 69.981862zm-52.047859 249.921963c15.846425 0 28.692491 12.822126 28.692491 28.639019s-12.846066 28.639018-28.692491 28.639018-28.692491-12.822125-28.692491-28.639018 12.846066-28.639019 28.692491-28.639019zm0-71.597545c15.846425 0 28.692491 12.822125 28.692491 28.639018s-12.846066 28.639018-28.692491 28.639018-28.692491-12.822125-28.692491-28.639018 12.846066-28.639018 28.692491-28.639018z" fill="#64ffa1"/></g></svg>