<?xml version="1.0" encoding="utf-8"?>
<!-- Generator: Adobe Illustrator 26.0.3, SVG Export Plug-In . SVG Version: 6.00 Build 0)  -->
<svg version="1.1" id="Layer_1" xmlns="http://www.w3.org/2000/svg" xmlns:xlink="http://www.w3.org/1999/xlink" x="0px" y="0px"
	 viewBox="0 0 64 64" style="enable-background:new 0 0 64 64;" xml:space="preserve">
<style type="text/css">
	.st0{fill:#F7931A;}
	.st1{fill:#231F20;}
</style>
<circle class="st0" cx="32" cy="32" r="32"/>
<g>
	<path class="st1" d="M13.9,34.1l2.5,3.7h-1.8l-2.9-4.4l-2.9,4.4H6.9l2.5-3.7H5.9v-1.4h11.5v1.4H13.9z"/>
	<path class="st1" d="M17.4,29.9v1.4v0H5.9v-1.4h3.5l-2.4-3.7h1.8l2.9,4.4l2.9-4.4h1.8L14,29.9H17.4z"/>
</g>
<g>
	<path class="st1" d="M39.4,30.3c0.1,0.1,0.2,0.1,0.2,0.1c0.3,0,0.6,0.1,0.9,0.2c1.6,0.4,2.7,1.4,3.1,3c0.3,1.2,0.4,2.4,0.1,3.7
		c-0.3,1.4-1.2,2.5-2.4,3.3c-1.1,0.7-2.4,1.1-3.6,1.4C37.5,41.9,37.2,42,37,42c-0.2,0-0.2,0.1-0.2,0.3c0.2,1.3,0.4,2.6,0.6,3.9
		c0,0.2,0,0.3-0.3,0.3c-0.7,0.1-1.5,0.2-2.2,0.3c-0.2,0-0.2,0-0.2-0.2c-0.2-1.3-0.4-2.6-0.5-4c0-0.2-0.1-0.2-0.3-0.2
		c-0.6,0.1-1.1,0.2-1.7,0.2c-0.2,0-0.2,0.1-0.2,0.3c0.2,1.3,0.4,2.6,0.6,3.9c0,0.2,0,0.3-0.2,0.3c-0.7,0.1-1.5,0.2-2.2,0.3
		c-0.2,0-0.2,0-0.2-0.2c-0.2-1.3-0.4-2.7-0.6-4c0-0.2-0.1-0.2-0.2-0.2c-1.6,0.2-3.3,0.4-4.9,0.7c-0.2,0-0.3,0-0.3-0.2
		c0-0.9,0.1-1.9,0.1-2.8c0-0.2,0.1-0.2,0.3-0.3c0.6-0.1,1.2-0.1,1.7-0.2c0.6-0.1,0.9-0.6,0.8-1.2c-0.5-3.9-1.1-7.8-1.6-11.7
		c-0.1-0.8-0.7-1.3-1.5-1.2c-0.6,0-1.2,0.1-1.8,0.2c-0.4,0.1-0.4,0.1-0.4-0.3c-0.1-0.7-0.2-1.5-0.3-2.2c0-0.2,0-0.3,0.2-0.3
		c1.6-0.2,3.2-0.5,4.9-0.7c0.2,0,0.3-0.1,0.3-0.3c-0.2-1.3-0.4-2.6-0.6-3.9c0-0.2,0-0.2,0.2-0.3c0.8-0.1,1.5-0.2,2.3-0.3
		c0.2,0,0.2,0,0.2,0.2c0.2,1.3,0.4,2.6,0.5,3.9c0,0.2,0.1,0.2,0.3,0.2c0.5-0.1,1.1-0.2,1.6-0.2c0.2,0,0.2-0.1,0.2-0.3
		c-0.2-1.3-0.4-2.5-0.5-3.8c0-0.2,0-0.3,0.2-0.3c0.7-0.1,1.4-0.2,2.1-0.3c0.2,0,0.3,0,0.3,0.2c0.2,1.3,0.4,2.6,0.5,3.9
		c0,0.2,0.1,0.3,0.3,0.2c1.2,0,2.4,0,3.5,0.3c1.1,0.3,2.1,0.8,2.7,1.8c0.9,1.6,1.2,3.2,0.3,4.9c-0.3,0.5-0.7,0.9-1.1,1.3
		C39.6,30.1,39.5,30.2,39.4,30.3z M36.2,38.6c0.6-0.2,1.1-0.5,1.5-0.8c1.5-1.2,1-3.5-0.6-4.2c-0.5-0.2-1.1-0.3-1.7-0.4
		c-1.6-0.1-3.1,0.2-4.7,0.4c-0.1,0-0.2,0.1-0.1,0.2c0.3,1.9,0.5,3.7,0.8,5.6c0,0.1,0.1,0.2,0.2,0.2c0.3,0,0.6-0.1,0.9-0.1
		C33.8,39.2,35.1,39,36.2,38.6z M34.2,30.1c0.4-0.2,0.8-0.4,1.2-0.7c1.2-1,1-3-0.4-3.8c-0.6-0.3-1.3-0.4-1.9-0.4
		c-1.2,0-2.3,0.2-3.4,0.3c-0.2,0-0.1,0.2-0.1,0.3c0.2,1.6,0.4,3.2,0.7,4.8c0.1,0.4,0.1,0.4,0.4,0.3C31.8,30.7,33,30.6,34.2,30.1z"/>
</g>
<path class="st1" d="M32,0C14.3,0,0,14.3,0,32s14.3,32,32,32s32-14.3,32-32S49.7,0,32,0z M50,47.9c3.7-4.2,6-9.8,6-15.9
	c0-6.1-2.3-11.7-6-15.9l4.2-4.2C59.1,17.2,62,24.3,62,32c0,7.7-2.9,14.8-7.8,20.1L50,47.9z M52.1,9.8L47.9,14c-4.2-3.7-9.8-6-15.9-6
	c-6.1,0-11.7,2.3-15.9,6l-4.2-4.2C17.2,4.9,24.3,2,32,2C39.7,2,46.8,4.9,52.1,9.8z M9.8,11.9l4.2,4.2c-1.4,1.6-2.6,3.4-3.6,5.3h3.4
	C17.5,15.2,24.3,11,32,11c11.6,0,21,9.4,21,21s-9.4,21-21,21c-7.7,0-14.5-4.2-18.1-10.4h-3.4c0.9,1.9,2.2,3.7,3.6,5.3l-4.2,4.2
	C4.9,46.8,2,39.7,2,32C2,24.3,4.9,17.2,9.8,11.9z M11.9,54.2l4.2-4.2c4.2,3.7,9.8,6,15.9,6c6.1,0,11.7-2.3,15.9-6l4.2,4.2
	C46.8,59.1,39.7,62,32,62C24.3,62,17.2,59.1,11.9,54.2z"/>
</svg>
