<?xml version="1.0" encoding="utf-8"?>
<!-- Generator: Adobe Illustrator 26.3.1, SVG Export Plug-In . SVG Version: 6.00 Build 0)  -->
<svg version="1.1" id="Layer_1" xmlns="http://www.w3.org/2000/svg" xmlns:xlink="http://www.w3.org/1999/xlink" x="0px" y="0px"
	 viewBox="0 0 80 80.1" style="enable-background:new 0 0 80 80.1;" xml:space="preserve">
<style type="text/css">
	.st0{fill:#FFFFFF;}
	.st1{fill-rule:evenodd;clip-rule:evenodd;fill:#E84142;}
</style>
<rect x="16.8" y="15.3" class="st0" width="46.4" height="42.2"/>
<path class="st1" d="M77.6,40c0,20.7-16.8,37.5-37.6,37.5C19.3,77.6,2.5,60.8,2.5,40C2.5,19.3,19.3,2.5,40,2.5
	C60.7,2.5,77.6,19.3,77.6,40z M29.4,55h-7.3c-1.5,0-2.3,0-2.7-0.3c-0.5-0.3-0.8-0.9-0.8-1.4c0-0.5,0.4-1.2,1.1-2.5l18-31.7
	c0.8-1.3,1.2-2,1.6-2.3c0.5-0.3,1.2-0.3,1.7,0c0.5,0.2,0.9,0.9,1.6,2.3l3.7,6.5l0,0c0.8,1.4,1.2,2.2,1.4,2.9c0.2,0.8,0.2,1.7,0,2.6
	c-0.2,0.8-0.6,1.5-1.4,3l-9.5,16.7l0,0c-0.8,1.5-1.3,2.2-1.8,2.8c-0.6,0.6-1.4,1.1-2.2,1.3C31.9,55,31.1,55,29.4,55z M47.8,55h10.4
	c1.5,0,2.3,0,2.8-0.3c0.5-0.3,0.8-0.9,0.8-1.5c0-0.5-0.3-1.2-1.1-2.4c0,0,0-0.1-0.1-0.1l-5.2-8.9l-0.1-0.1c-0.7-1.2-1.1-1.9-1.6-2.1
	c-0.5-0.3-1.1-0.3-1.7,0c-0.5,0.2-0.9,0.9-1.6,2.2l-5.2,8.9l0,0c-0.8,1.3-1.1,2-1.1,2.5c0,0.6,0.3,1.1,0.8,1.5
	C45.4,55,46.2,55,47.8,55z"/>
</svg>
