<?xml version="1.0" encoding="utf-8"?>
<!-- Generator: Adobe Illustrator 26.3.1, SVG Export Plug-In . SVG Version: 6.00 Build 0)  -->
<svg version="1.1" id="Layer_1" xmlns="http://www.w3.org/2000/svg" xmlns:xlink="http://www.w3.org/1999/xlink" x="0px" y="0px"
	 viewBox="0 0 226.8 226.8" style="enable-background:new 0 0 226.8 226.8;" xml:space="preserve">
<style type="text/css">
	.st0{fill:#00193C;}
</style>
<path class="st0" d="M70.2,127.9c6,0,11.9-2,16.7-5.7L48.6,84c-9.2,11.9-7,29.1,4.9,38.3C58.3,125.9,64.1,127.9,70.2,127.9
	L70.2,127.9z"/>
<path class="st0" d="M183.8,100.6c0-6-2-11.9-5.7-16.7l-38.2,38.2c11.9,9.2,29,7,38.2-4.9C181.8,112.6,183.8,106.7,183.8,100.6z"/>
<path class="st0" d="M203.1,59L186.2,76c13.6,16.3,11.5,40.6-4.9,54.2c-14.3,12-35.1,12-49.4,0l-18.6,18.6l-18.5-18.5
	c-16.3,13.6-40.6,11.5-54.2-4.9c-12-14.3-12-35.1,0-49.4l-8.7-8.7L23.7,59C13.8,75.4,8.5,94.2,8.5,113.4
	c0,57.9,46.9,104.9,104.9,104.9s104.9-46.9,104.9-104.9C218.3,94.2,213,75.4,203.1,59z"/>
<path class="st0" d="M189.2,41C149.3-0.9,83-2.4,41.1,37.5c-1.2,1.2-2.4,2.4-3.5,3.5c-2.6,2.7-5,5.6-7.4,8.6l83.2,83.3l83.2-83.3
	C194.3,46.6,191.8,43.8,189.2,41z M113.4,22.2c24.5,0,47.3,9.5,64.5,26.7l-64.5,64.5L48.9,49C66.1,31.7,88.9,22.2,113.4,22.2z"/>
</svg>
