<svg width="80" height="80" fill="none" xmlns="http://www.w3.org/2000/svg">
  <path d="M39.977 79.953c22.078 0 39.976-17.898 39.976-39.977C79.953 17.899 62.055 0 39.976 0 17.899 0 0 17.898 0 39.977c0 22.078 17.898 39.976 39.977 39.976Z" fill="#222"/>
  <path d="m28.454 35.226 11.523-11.57 11.57 11.57 6.725-6.726-18.295-18.295L21.68 28.5l6.773 6.726ZM16.924 33.276l-6.718 6.718 6.718 6.718 6.718-6.718-6.718-6.718ZM28.454 44.727l11.523 11.57 11.57-11.57 6.772 6.725h-.047L39.977 69.747 21.68 51.452l6.773-6.725ZM63.012 33.276l-6.718 6.718 6.718 6.718 6.718-6.718-6.718-6.718Z" fill="#F3BA2F"/>
  <path d="m46.843 39.976-6.867-6.82-5.032 5.033-.564.611-1.223 1.176v.047l6.82 6.82 6.866-6.867Z" fill="#F3BA2F"/>
</svg>
