<svg xmlns="http://www.w3.org/2000/svg" width="400" height="200" viewBox="0 0 400 200">
    <g fill="none" stroke="#aaa">
        <rect width="400" height="200" stroke="none" rx="12"/>
        <rect width="399" height="199" x=".5" y=".5" rx="11.5"/>
    </g>
    <g>
        <g>
            <path d="M145.875 411.239h-4.04v-2.661h3.865a11.265 11.265 0 1 0 0-22.53h-3.868v-1.931a1.529 1.529 0 0 0 .737-.731h3.3a13.927 13.927 0 1 1 0 27.853m-8.132-2.661h2.794v2.661h-2.794zm0-2.882a1.525 1.525 0 0 0 .737-.73h2.057v2.326h-2.794zm2.794-14.357v12.341h-2.051a1.527 1.527 0 0 0-.737-.731v-11.61zm1.3 12.341v-12.341h3.571a6.171 6.171 0 1 1 0 12.341zm3.571 1.286a7.456 7.456 0 1 0 0-14.912h-3.571v-2.719h3.869a9.979 9.979 0 1 1 0 19.957h-3.868v-2.326zm-7.663-17.631h2.794v2.719h-2.794zm0-3.217a1.531 1.531 0 0 0 .737-.731h1.32a1.531 1.531 0 0 0 .737.731v1.931h-2.794zm8.132-2.017h-3.3a1.532 1.532 0 0 0-2.772 0h-1.32a1.532 1.532 0 0 0-2.772 0h-3.238a1.521 1.521 0 1 0 0 1.286h3.238a1.529 1.529 0 0 0 .737.731v1.931h-7.034a1.525 1.525 0 1 0-.021 1.286h7.054v2.719H135a1.519 1.519 0 1 0 .122 1.286h1.319v11.61a1.508 1.508 0 0 0 0 2.748v1.6h-1.372a1.521 1.521 0 1 0 0 1.286h1.372v2.661h-11.65a1.524 1.524 0 1 0-.02 1.286h11.675v5.316a1.534 1.534 0 1 0 1.3 0v-5.316h2.794v8.8a1.534 1.534 0 1 0 1.3 0v-8.8h4.04a15.213 15.213 0 1 0 0-30.425" transform="translate(-21.863 -302.223) translate(121.861 381.222) translate(-121.861 -381.222)"/>
        </g>
        <g>
            <path d="M236.614 408.025h4.586a12.516 12.516 0 0 0 2.02-.164 5.443 5.443 0 0 0 1.784-.6 3.284 3.284 0 0 0 1.259-1.261 5.025 5.025 0 0 0 0-4.26 3.287 3.287 0 0 0-1.256-1.256 5.443 5.443 0 0 0-1.784-.6 12.519 12.519 0 0 0-2.02-.164h-4.588zm-3.5-11.36h9.066a10.588 10.588 0 0 1 4.078.674 6.94 6.94 0 0 1 2.53 1.711 5.827 5.827 0 0 1 1.293 2.33 8.724 8.724 0 0 1 0 4.988 5.819 5.819 0 0 1-1.293 2.33 6.934 6.934 0 0 1-2.53 1.712 10.588 10.588 0 0 1-4.078.673h-5.571v11.36h-3.5z" transform="translate(-21.863 -302.223) translate(184.338 389.674) translate(-233.119 -396.665)"/>
        </g>
        <g>
            <path d="M282.787 396.665h3.5v22.5h11.833v3.277h-15.333z" transform="translate(-21.863 -302.223) translate(212.225 389.674) translate(-282.787 -396.665)"/>
        </g>
        <g>
            <path d="M330.286 396.665v15.8a10.133 10.133 0 0 0 .328 2.495 7.214 7.214 0 0 0 1.092 2.385 5.935 5.935 0 0 0 2 1.784 7.112 7.112 0 0 0 6.118 0 5.934 5.934 0 0 0 2-1.784 7.2 7.2 0 0 0 1.092-2.385 10.135 10.135 0 0 0 .328-2.495v-15.8h3.5v16.348a10.572 10.572 0 0 1-.764 4.1 9.735 9.735 0 0 1-2.112 3.187 9.327 9.327 0 0 1-3.168 2.075 10.981 10.981 0 0 1-7.865 0 9.316 9.316 0 0 1-3.168-2.075 9.726 9.726 0 0 1-2.112-3.187 10.562 10.562 0 0 1-.765-4.1v-16.348z" transform="translate(-21.863 -302.223) translate(236.946 389.666) translate(-326.79 -396.665)"/>
        </g>
        <g>
            <path d="M387.626 399.942h-8.3v-3.277h20.1v3.277h-8.3v22.5h-3.494z" transform="translate(-21.863 -302.223) translate(266.449 389.674) translate(-379.325 -396.665)"/>
        </g>
        <g>
            <path d="M443.533 419.306a9.367 9.367 0 0 0 7.064-3.022 9.715 9.715 0 0 0 1.967-3.259 11.833 11.833 0 0 0 0-7.974 9.731 9.731 0 0 0-1.967-3.259 9.655 9.655 0 0 0-14.127 0 9.7 9.7 0 0 0-1.967 3.259 11.833 11.833 0 0 0 0 7.974 9.679 9.679 0 0 0 1.967 3.259 9.367 9.367 0 0 0 7.063 3.022m0 3.277a13.894 13.894 0 0 1-5.425-1.038 12.624 12.624 0 0 1-4.241-2.858 13.187 13.187 0 0 1-2.768-4.3 14.807 14.807 0 0 1 0-10.7 13.2 13.2 0 0 1 2.768-4.3 12.616 12.616 0 0 1 4.241-2.858 14.7 14.7 0 0 1 10.851 0 12.644 12.644 0 0 1 4.241 2.858 13.223 13.223 0 0 1 2.768 4.3 14.815 14.815 0 0 1 0 10.7 13.213 13.213 0 0 1-2.768 4.3 12.653 12.653 0 0 1-4.241 2.858 13.9 13.9 0 0 1-5.426 1.038" transform="translate(-21.863 -302.223) translate(294.99 389.018) translate(-430.098 -395.493)"/>
        </g>
    </g>
</svg>
