<svg id="구성_요소_376_1" data-name="구성 요소 376 – 1" xmlns="http://www.w3.org/2000/svg" width="400" height="200" viewBox="0 0 400 200">
  <defs>
    <style>
      .cls-1, .cls-8 {
        fill: none;
      }

      .cls-1 {
        stroke: #aaa;
      }

      .cls-2 {
        fill: #fdb300;
      }

      .cls-2, .cls-3, .cls-4, .cls-5 {
        fill-rule: evenodd;
      }

      .cls-3 {
        fill: #e97013;
      }

      .cls-4 {
        fill: #d82a1a;
      }

      .cls-5 {
        fill: #951d1c;
      }

      .cls-6 {
        fill: #4a494a;
      }

      .cls-7 {
        stroke: none;
      }
    </style>
  </defs>
  <g id="사각형_2926" data-name="사각형 2926" class="cls-1">
    <rect class="cls-7" width="400" height="200" rx="12"/>
    <rect class="cls-8" x="0.5" y="0.5" width="399" height="199" rx="11.5"/>
  </g>
  <g id="그룹_4795" data-name="그룹 4795" transform="translate(109.131 70.176)">
    <g id="그룹_4793" data-name="그룹 4793" transform="translate(1.868 1.823)">
      <path id="패스_6927" data-name="패스 6927" class="cls-2" d="M74.832,8.916,62.547,1.823V16.009Z" transform="translate(-37.977 -1.823)"/>
      <path id="패스_6928" data-name="패스 6928" class="cls-3" d="M105.17,26.432,92.886,19.339V33.525Z" transform="translate(-56.031 -12.247)"/>
      <path id="패스_6929" data-name="패스 6929" class="cls-2" d="M105.17,51.041V36.856L92.886,43.949Z" transform="translate(-56.031 -22.918)"/>
      <path id="패스_6930" data-name="패스 6930" class="cls-4" d="M32.208,19.339V33.525l12.285-7.093Z" transform="translate(-19.923 -12.247)"/>
      <path id="패스_6931" data-name="패스 6931" class="cls-3" d="M44.493,1.823,32.208,8.916l12.285,7.093Z" transform="translate(-19.923 -1.823)"/>
      <path id="패스_6932" data-name="패스 6932" class="cls-4" d="M1.868,36.856V51.041l12.285-7.093Z" transform="translate(-1.868 -22.918)"/>
      <path id="패스_6933" data-name="패스 6933" class="cls-5" d="M14.154,19.339,1.868,26.432l12.285,7.093Z" transform="translate(-1.868 -12.247)"/>
      <path id="패스_6934" data-name="패스 6934" class="cls-2" d="M44.493,61.465,32.208,54.372V68.557Z" transform="translate(-19.923 -33.464)"/>
      <path id="패스_6935" data-name="패스 6935" class="cls-4" d="M1.868,71.888V86.073l12.285-7.093Z" transform="translate(-1.868 -44.012)"/>
      <path id="패스_6936" data-name="패스 6936" class="cls-3" d="M14.154,54.372,1.868,61.465l12.285,7.093Z" transform="translate(-1.868 -33.464)"/>
      <path id="패스_6937" data-name="패스 6937" class="cls-5" d="M14.154,89.4,1.868,96.5l12.285,7.093Z" transform="translate(-1.868 -54.682)"/>
      <path id="패스_6938" data-name="패스 6938" class="cls-2" d="M62.547,121.105l12.285-7.092L62.547,106.92Z" transform="translate(-37.977 -65.105)"/>
      <path id="패스_6939" data-name="패스 6939" class="cls-3" d="M44.493,106.92l-12.285,7.093,12.285,7.092Z" transform="translate(-19.923 -65.105)"/>
      <path id="패스_6940" data-name="패스 6940" class="cls-3" d="M105.17,61.465,92.886,54.372V68.557Z" transform="translate(-56.031 -33.465)"/>
      <path id="패스_6941" data-name="패스 6941" class="cls-4" d="M105.17,86.073V71.888L92.886,78.981Z" transform="translate(-56.031 -44.012)"/>
      <path id="패스_6942" data-name="패스 6942" class="cls-5" d="M92.886,103.59,105.17,96.5,92.886,89.4Z" transform="translate(-56.031 -54.682)"/>
      <path id="패스_6943" data-name="패스 6943" class="cls-4" d="M74.832,54.372,62.547,61.465l12.285,7.093Z" transform="translate(-37.977 -33.465)"/>
      <path id="패스_6944" data-name="패스 6944" class="cls-4" d="M74.832,89.4,62.547,96.5l12.285,7.093Z" transform="translate(-37.977 -54.682)"/>
    </g>
    <g id="그룹_4794" data-name="그룹 4794" transform="translate(62.394 15.074)">
      <path id="패스_6945" data-name="패스 6945" class="cls-6" d="M168.813,42.1a22.407,22.407,0,0,0-3.788-.9,27.323,27.323,0,0,0-4.2-.328,8.821,8.821,0,0,0-4.443.86,3.172,3.172,0,0,0-1.413,2.948,2.358,2.358,0,0,0,1.167,2.15,11.062,11.062,0,0,0,2.928,1.188q1.761.471,3.788.922a16.371,16.371,0,0,1,3.788,1.331,8.105,8.105,0,0,1,2.928,2.457,6.97,6.97,0,0,1,1.167,4.238q0,4.3-2.7,6.265T159.763,65.2a34.874,34.874,0,0,1-9.746-1.351v-4.3a30.336,30.336,0,0,0,9.337,1.474,8.859,8.859,0,0,0,4.607-.922,3.333,3.333,0,0,0,1.454-3.051,2.579,2.579,0,0,0-1.167-2.293,9.849,9.849,0,0,0-2.928-1.249q-1.761-.471-3.788-.9a16.3,16.3,0,0,1-3.788-1.29,8.164,8.164,0,0,1-2.928-2.375,6.694,6.694,0,0,1-1.167-4.177q0-4.34,2.887-6.2t8.661-1.863a28.21,28.21,0,0,1,4.525.368,22.026,22.026,0,0,1,3.87.942Z" transform="translate(-149.648 -36.236)"/>
      <path id="패스_6946" data-name="패스 6946" class="cls-6" d="M207.936,52.579a2.906,2.906,0,0,0-.062-.778q-.061-.164-.471-.246l-2.539-.7.492-3.03h2.58V42.055h5.2v5.774h6.306V51.8h-6.306v9.09a3.624,3.624,0,0,0,.778,2.621,3.557,3.557,0,0,0,2.58.778,11.788,11.788,0,0,0,2.948-.368v4.095a18.757,18.757,0,0,1-3.767.368q-4.136,0-5.938-1.7t-1.8-5.59Z" transform="translate(-182.506 -39.426)"/>
      <path id="패스_6947" data-name="패스 6947" class="cls-6" d="M257.742,55.1a16.757,16.757,0,0,1,4.75.594,7.73,7.73,0,0,1,3.276,1.863,7.461,7.461,0,0,1,1.884,3.276,17,17,0,0,1,.594,4.791q0,5.569-2.478,8.047t-8.026,2.477V72.054a4.834,4.834,0,0,0,3.972-1.495q1.207-1.495,1.208-4.934t-1.208-4.934a4.834,4.834,0,0,0-3.972-1.495Zm-10.5,10.524a17,17,0,0,1,.594-4.791,7.126,7.126,0,0,1,5.119-5.139,16.788,16.788,0,0,1,4.771-.594h.02V59.2h-.02a4.793,4.793,0,0,0-3.952,1.495q-1.207,1.495-1.208,4.934t1.208,4.934a4.793,4.793,0,0,0,3.952,1.495h.02v4.095h-.02a16.8,16.8,0,0,1-4.771-.594,7.468,7.468,0,0,1-3.256-1.884,7.73,7.73,0,0,1-1.863-3.276A16.785,16.785,0,0,1,247.238,65.625Z" transform="translate(-207.722 -47.189)"/>
      <path id="패스_6948" data-name="패스 6948" class="cls-6" d="M306.282,59.482a1.4,1.4,0,0,0-.082-.594,1.034,1.034,0,0,0-.492-.307l-1.433-.573.492-2.416h6.184q.368,0,.368.409v2.211a7.551,7.551,0,0,1,2.5-2.313,7.143,7.143,0,0,1,3.522-.8q.7,0,1.249.041a6.56,6.56,0,0,1,.921.123l-.9,4.218a5.544,5.544,0,0,0-.84-.143,10.2,10.2,0,0,0-1.126-.061,8.1,8.1,0,0,0-2.7.491,6.63,6.63,0,0,0-2.416,1.474V75.658h-5.241Z" transform="translate(-241.663 -47.189)"/>
      <path id="패스_6949" data-name="패스 6949" class="cls-4" d="M385.142,35.562l-18.82,18.809,13.312,13.3h-7.409l-9.608-9.6v-.592l3.112-3.11-3.112-3.11v-.592l15.115-15.106ZM362.617,58.074l-6.471,6.467h-7.37l-.02-.02,10.155-10.15L347.975,43.44h7.41l7.233,7.229v.592l-3.112,3.11,3.112,3.11Z" transform="translate(-267.668 -35.562)"/>
    </g>
  </g>
</svg>
