<svg id="partners_taalswap" xmlns="http://www.w3.org/2000/svg" xmlns:xlink="http://www.w3.org/1999/xlink" width="400" height="200" viewBox="0 0 400 200">
  <defs>
    <linearGradient id="linear-gradient" y1="0.594" x2="1" y2="0.594" gradientUnits="objectBoundingBox">
      <stop offset="0" stop-color="#5be584"/>
      <stop offset="1" stop-color="#00ab55"/>
    </linearGradient>
  </defs>
  <rect id="사각형_2951" data-name="사각형 2951" width="400" height="200" rx="12" fill="#fff"/>
  <g id="logo_single" transform="translate(47.277 -35.975)">
    <g id="그룹_5285" data-name="그룹 5285" transform="translate(35.722 117.975)">
      <path id="패스_6577" data-name="패스 6577" d="M58.444,122.081a7.054,7.054,0,0,0-12.817,0l-9.374,20.463a5.655,5.655,0,0,0,1.982,7.139,4.408,4.408,0,0,0,6.288-2.248l3.506-7.647a4.421,4.421,0,0,1,8.041,0l3.62,7.888a4.421,4.421,0,0,0,8.041,0l3.62-7.888a4.421,4.421,0,0,1,8.041,0l3.506,7.647a4.408,4.408,0,0,0,6.288,2.248,5.665,5.665,0,0,0,1.982-7.139l-9.387-20.463a7.054,7.054,0,0,0-12.817,0l-4.027,8.79a1.342,1.342,0,0,1-2.439,0Z" transform="translate(-35.722 -117.975)" fill="#00ab55"/>
      <g id="그룹_5284" data-name="그룹 5284" transform="translate(4.862 0.016)">
        <path id="패스_6578" data-name="패스 6578" d="M115.181,122.216c0-.013-.013-.013-.013-.025-.064-.127-.114-.241-.178-.368a.319.319,0,0,0-.051-.089c-.064-.114-.127-.229-.2-.343-.013-.025-.038-.051-.051-.076-.064-.1-.14-.216-.2-.3-.013-.013-.013-.025-.025-.038-.076-.114-.165-.216-.241-.318-.025-.025-.038-.051-.064-.076l-.254-.292-.051-.051c-.076-.089-.165-.165-.254-.254l-.038-.038c-.089-.089-.191-.165-.292-.254a.277.277,0,0,1-.064-.051l-.3-.229-.013-.013a.066.066,0,0,0-.051-.025c-.076-.051-.14-.1-.216-.152-.013-.013-.038-.025-.051-.038s-.025-.013-.038-.025c-.089-.051-.178-.114-.279-.165a.012.012,0,0,1-.013-.013.593.593,0,0,0-.127-.064,1.012,1.012,0,0,0-.2-.1,1.236,1.236,0,0,0-.14-.064c-.064-.025-.127-.064-.191-.089s-.1-.038-.152-.064l-.191-.076a.628.628,0,0,0-.165-.051c-.064-.025-.127-.038-.191-.064s-.114-.038-.165-.051-.127-.038-.191-.051l-.165-.038-.191-.038A.744.744,0,0,0,110,118.2a.98.98,0,0,0-.191-.025c-.051-.013-.114-.013-.165-.025s-.127-.013-.191-.025-.114-.013-.165-.013-.127-.013-.191-.013h-.534a1.093,1.093,0,0,0-.2.013.725.725,0,0,0-.165.013,1.112,1.112,0,0,0-.2.025c-.051,0-.1.013-.152.013l-.216.038c-.051.013-.1.013-.14.025-.089.013-.178.038-.254.051-.038.013-.064.013-.1.025-.114.025-.241.064-.356.089l-.114.038-.229.076c-.051.013-.089.038-.14.051s-.14.051-.2.076-.1.038-.152.064a1.283,1.283,0,0,0-.191.089l-.152.076c-.064.025-.127.064-.178.089a.948.948,0,0,0-.152.089c-.064.038-.114.064-.178.1a1.339,1.339,0,0,0-.14.089c-.051.038-.114.076-.165.114s-.089.064-.14.1a1.437,1.437,0,0,0-.165.127c-.051.038-.089.076-.14.114s-.1.089-.152.127a1.144,1.144,0,0,0-.127.114c-.051.051-.1.089-.152.14l-.127.127a1.522,1.522,0,0,0-.14.152c-.038.038-.076.089-.114.127s-.089.114-.14.165-.076.089-.114.14a2.17,2.17,0,0,1-.14.178c-.038.051-.064.089-.1.14a1.779,1.779,0,0,0-.127.2c-.025.051-.064.089-.089.14-.051.076-.089.152-.14.241-.025.038-.051.089-.076.127a3.29,3.29,0,0,0-.178.368.012.012,0,0,1-.013.013l-4.027,8.79h0c-.025.064-.064.114-.089.165,0,.013-.013.013-.013.025a1.329,1.329,0,0,1-.1.14l-.025.025-.114.114c-.013.013-.013.013-.025.013a1.333,1.333,0,0,1-.14.1.012.012,0,0,0-.013.013c-.051.025-.089.051-.14.076a.012.012,0,0,0-.013.013.717.717,0,0,1-.152.051c-.013,0-.013,0-.025.013a.637.637,0,0,1-.152.025h-.025a.619.619,0,0,1-.152.013h-.025a.725.725,0,0,1-.165-.013h-.013c-.051-.013-.1-.013-.152-.025-.025,0-.038-.013-.064-.025s-.064-.025-.1-.038l-.076-.038a.318.318,0,0,1-.089-.051.278.278,0,0,1-.064-.038c-.025-.013-.051-.038-.076-.051a.278.278,0,0,1-.064-.051c-.025-.025-.051-.038-.064-.064l-.064-.064c-.025-.025-.038-.051-.064-.076s-.038-.051-.051-.076a.709.709,0,0,0-.064-.1c-.013-.025-.025-.038-.038-.064l-4.027-8.79c-.051-.127-.114-.241-.178-.368-.013-.013-.013-.025-.025-.038-.051-.1-.114-.2-.165-.3-.013-.025-.038-.051-.051-.076-.051-.076-.1-.165-.152-.241a.538.538,0,0,0-.064-.089c-.051-.076-.1-.14-.152-.216-.025-.038-.051-.064-.076-.1l-.152-.191c-.025-.025-.051-.064-.076-.089a2.269,2.269,0,0,0-.165-.178.587.587,0,0,0-.089-.089l-.178-.178a.552.552,0,0,0-.089-.076,2.208,2.208,0,0,0-.191-.165.337.337,0,0,0-.076-.064l-.216-.178c-.025-.013-.038-.038-.064-.051l-.267-.191a.012.012,0,0,1-.013-.013c-.2-.14-.406-.254-.61-.368-.013-.013-.038-.013-.051-.025a2.369,2.369,0,0,0-.254-.127c-.025-.013-.064-.025-.089-.038-.076-.038-.152-.064-.229-.1-.038-.013-.064-.025-.1-.038a1.1,1.1,0,0,1-.216-.089l-.114-.038a1.39,1.39,0,0,0-.216-.064l-.114-.038c-.076-.025-.14-.038-.216-.064a.371.371,0,0,0-.114-.025c-.076-.013-.152-.038-.229-.051-.038-.013-.076-.013-.114-.025l-.229-.038c-.038,0-.064-.013-.1-.013a1.721,1.721,0,0,0-.254-.025.248.248,0,0,1-.089-.013c-.114-.013-.216-.013-.33-.025h-.381a2.657,2.657,0,0,0-.318.013.216.216,0,0,0-.089.013,1.556,1.556,0,0,0-.241.025c-.038,0-.076.013-.114.013-.076.013-.152.013-.216.025-.038.013-.089.013-.127.025-.076.013-.14.025-.2.038-.038.013-.089.013-.127.025a1.189,1.189,0,0,0-.2.051c-.051.013-.089.025-.14.038a1.808,1.808,0,0,0-.2.064c-.038.013-.089.025-.127.038-.064.025-.127.038-.191.064a.531.531,0,0,0-.127.051.076.076,0,0,1-.051.013c-.076.025-.152.064-.241.1-.013,0-.013,0-.025.013a2.539,2.539,0,0,0-.267.127l-.076.038c-.1.051-.191.1-.279.152a6.99,6.99,0,0,0-2.922,3.2L74,133.216h0a7.055,7.055,0,0,1,12.6.432l2.845,6.186.013.013h0c.013.013.013.038.025.051l3.62,7.888a.012.012,0,0,0,.013.013c.051.1.089.191.14.279.025.038.038.064.064.1.038.064.076.127.114.178l.076.114.114.152c.025.038.064.076.089.114s.076.089.114.14a.766.766,0,0,0,.1.1c.038.038.076.089.114.127l.1.1a1.144,1.144,0,0,0,.127.114c.038.025.076.064.114.089s.089.064.127.1l.114.076c.051.025.089.064.14.089l.114.076c.051.025.089.051.14.076a1.182,1.182,0,0,0,.127.064,1.235,1.235,0,0,0,.14.064c.038.013.089.038.127.051s.1.038.152.064.089.038.127.051.1.038.152.051.089.025.127.038l.165.038a.376.376,0,0,0,.127.025.994.994,0,0,0,.178.025c.038,0,.076.013.114.013a1.908,1.908,0,0,0,.254.025,2.981,2.981,0,0,0,.33.013h.1a1.38,1.38,0,0,0,.229-.013c.038,0,.076-.013.1-.013.064-.013.14-.013.2-.025.038,0,.076-.013.114-.013.064-.013.127-.025.2-.038.038-.013.076-.013.114-.025a1.059,1.059,0,0,0,.191-.051l.114-.038c.064-.025.127-.038.191-.064l.114-.038c.064-.025.127-.051.178-.076a.754.754,0,0,0,.1-.051c.064-.025.114-.064.178-.089a.445.445,0,0,0,.1-.064,1.268,1.268,0,0,1,.178-.1c.038-.025.064-.038.1-.064a1.541,1.541,0,0,0,.178-.127.386.386,0,0,1,.089-.064,1.9,1.9,0,0,0,.165-.14l.076-.076.165-.165a.337.337,0,0,0,.064-.076c.051-.064.114-.127.165-.191.013-.025.038-.038.051-.064a2.573,2.573,0,0,0,.165-.229c.013-.013.025-.025.025-.038a4.335,4.335,0,0,0,.356-.635l3.62-7.888c.013-.013.013-.038.025-.051l.013-.013h0l2.845-6.186a7.051,7.051,0,0,1,12.6-.432h0Z" transform="translate(-74 -118.1)" fill="url(#linear-gradient)"/>
      </g>
    </g>
    <g id="그룹_5286" data-name="그룹 5286" transform="translate(92.981 117.978)">
      <path id="패스_6579" data-name="패스 6579" d="M494.82,158.355V136.011h-5.437a2.873,2.873,0,0,1-1.334-.279,2.572,2.572,0,0,1-.889-.749,2.974,2.974,0,0,1-.5-1.029,4.315,4.315,0,0,1-.165-1.105,3.6,3.6,0,0,1,.165-1.08,2.8,2.8,0,0,1,.5-.991,2.479,2.479,0,0,1,.889-.711,3.046,3.046,0,0,1,1.334-.267h18.279a3.046,3.046,0,0,1,1.334.267,2.48,2.48,0,0,1,.889.711,2.8,2.8,0,0,1,.5.991,4.054,4.054,0,0,1,.165,1.08,3.827,3.827,0,0,1-.165,1.105,2.9,2.9,0,0,1-1.41,1.778,2.784,2.784,0,0,1-1.321.279h-5.437v22.331H494.82Z" transform="translate(-486.5 -128.301)" fill="#212121"/>
      <path id="패스_6580" data-name="패스 6580" d="M680.957,201.654l-.279-1.5a7.878,7.878,0,0,1-2.413,1.524,7.76,7.76,0,0,1-2.985.572h-.787a9.332,9.332,0,0,1-2.388-.343,6.825,6.825,0,0,1-2.363-1.156,6.44,6.44,0,0,1-1.816-2.21,7.477,7.477,0,0,1-.724-3.48,7.272,7.272,0,0,1,.711-3.379,5.853,5.853,0,0,1,1.905-2.172,7.762,7.762,0,0,1,2.769-1.169,14.852,14.852,0,0,1,3.328-.356h3.658a3.14,3.14,0,0,0-.3-1.3,2.12,2.12,0,0,0-.711-.813,2.891,2.891,0,0,0-1.029-.432,5.553,5.553,0,0,0-1.232-.127,6.9,6.9,0,0,0-1.169.1c-.381.076-.787.165-1.207.279a7.493,7.493,0,0,0-.8.318c-.254.114-.533.254-.876.394a2.538,2.538,0,0,1-1.054.267,3.456,3.456,0,0,1-1.08-.14,2.7,2.7,0,0,1-.978-.521,2.531,2.531,0,0,1-.7-.889,2.664,2.664,0,0,1-.14-2.083,3.756,3.756,0,0,1,1.283-1.728,6.942,6.942,0,0,1,1.6-.889,12.61,12.61,0,0,1,1.854-.584,16,16,0,0,1,3.849-.445,16.619,16.619,0,0,1,3.684.406,7.771,7.771,0,0,1,3.1,1.461,7.255,7.255,0,0,1,2.134,2.9,11.974,11.974,0,0,1,.8,4.725v12.728h-5.64v.038Zm-1.4-8.434H676.32a2.277,2.277,0,0,0-1.562.483,1.7,1.7,0,0,0-.534,1.334,1.6,1.6,0,0,0,.534,1.321,2.3,2.3,0,0,0,1.461.432h.5a3.807,3.807,0,0,0,.991-.14,2.821,2.821,0,0,0,.9-.432,2.567,2.567,0,0,0,.673-.711,1.837,1.837,0,0,0,.267-.991v-1.3Z" transform="translate(-644.247 -171.601)" fill="#212121"/>
      <path id="패스_6581" data-name="패스 6581" d="M857.557,201.654l-.279-1.5a7.877,7.877,0,0,1-2.413,1.524,7.761,7.761,0,0,1-2.985.572h-.788a9.332,9.332,0,0,1-2.388-.343,6.824,6.824,0,0,1-2.363-1.156,6.44,6.44,0,0,1-1.816-2.21,7.477,7.477,0,0,1-.724-3.48,7.272,7.272,0,0,1,.711-3.379,5.853,5.853,0,0,1,1.905-2.172,7.763,7.763,0,0,1,2.769-1.169,14.852,14.852,0,0,1,3.328-.356h3.658a3.141,3.141,0,0,0-.3-1.3,2.12,2.12,0,0,0-.711-.813,2.892,2.892,0,0,0-1.029-.432,5.553,5.553,0,0,0-1.232-.127,6.9,6.9,0,0,0-1.169.1c-.381.076-.788.165-1.207.279a7.488,7.488,0,0,0-.8.318c-.254.114-.534.254-.876.394a2.539,2.539,0,0,1-1.054.267,3.456,3.456,0,0,1-1.08-.14,2.7,2.7,0,0,1-.978-.521,2.532,2.532,0,0,1-.7-.889,2.664,2.664,0,0,1-.14-2.083,3.755,3.755,0,0,1,1.283-1.728,6.94,6.94,0,0,1,1.6-.889,12.608,12.608,0,0,1,1.855-.584,16,16,0,0,1,3.849-.445,16.619,16.619,0,0,1,3.684.406,7.77,7.77,0,0,1,3.1,1.461,7.254,7.254,0,0,1,2.134,2.9,11.974,11.974,0,0,1,.8,4.725v12.728h-5.64Zm-1.385-8.434h-3.239a2.277,2.277,0,0,0-1.562.483,1.7,1.7,0,0,0-.533,1.334,1.6,1.6,0,0,0,.533,1.321,2.3,2.3,0,0,0,1.461.432h.5a3.807,3.807,0,0,0,.991-.14,2.822,2.822,0,0,0,.9-.432,2.568,2.568,0,0,0,.673-.711,1.836,1.836,0,0,0,.267-.991v-1.3Z" transform="translate(-798.415 -171.601)" fill="#212121"/>
      <path id="패스_6582" data-name="패스 6582" d="M1024.613,121.557a3.234,3.234,0,0,1,1.08-2.706,4.332,4.332,0,0,1,5.157,0,3.234,3.234,0,0,1,1.08,2.706v26.5H1024.6l.013-26.5Z" transform="translate(-956.249 -118)" fill="#212121"/>
      <path id="패스_6583" data-name="패스 6583" d="M1114.73,136.909a1.923,1.923,0,0,0,1.143,1.7,16.946,16.946,0,0,0,3.3,1.423l1.74.61a13.139,13.139,0,0,1,2.833,1.423,9.264,9.264,0,0,1,2.147,2.007,8.067,8.067,0,0,1,1.321,2.591,9.051,9.051,0,0,1,.318,3.15,7.593,7.593,0,0,1-3.074,5.907,12.642,12.642,0,0,1-7.7,2.1,20.139,20.139,0,0,1-4.586-.521,9.17,9.17,0,0,1-3.658-1.651,4.176,4.176,0,0,1-.851-.978,4.1,4.1,0,0,1-.521-1.156,2.989,2.989,0,0,1-.051-1.258,3.342,3.342,0,0,1,.5-1.258,2.488,2.488,0,0,1,1.105-.927,3.91,3.91,0,0,1,1.423-.356,2.779,2.779,0,0,1,1.473.279c.369.216.711.419,1.054.61a5.611,5.611,0,0,0,1.563.661,10.927,10.927,0,0,0,2.769.267,4.236,4.236,0,0,0,2.312-.533,1.965,1.965,0,0,0,.851-1.7,1.481,1.481,0,0,0-.394-.965,3.854,3.854,0,0,0-1.118-.851,13.327,13.327,0,0,0-1.689-.762c-.635-.241-1.334-.5-2.058-.724-.28-.089-.584-.2-.9-.318s-.584-.229-.8-.318a10.015,10.015,0,0,1-3.277-2.121,8.779,8.779,0,0,1-1.867-2.744,7.881,7.881,0,0,1-.635-3.036,8.946,8.946,0,0,1,.445-2.947,7.981,7.981,0,0,1,3.43-4.446,11.484,11.484,0,0,1,6.173-1.562,19.669,19.669,0,0,1,2.439.127,17.977,17.977,0,0,1,1.854.318,7.689,7.689,0,0,1,1.385.457c.394.178.75.356,1.08.521a4.94,4.94,0,0,1,1.943,1.88,3.078,3.078,0,0,1,.3,2.49,2.6,2.6,0,0,1-1.194,1.562,3.835,3.835,0,0,1-1.867.457,3.463,3.463,0,0,1-.889-.14,2.488,2.488,0,0,1-.749-.318,7.068,7.068,0,0,0-1.639-.749,8.563,8.563,0,0,0-2.591-.318,3.424,3.424,0,0,0-2.007.521A1.783,1.783,0,0,0,1114.73,136.909Z" transform="translate(-1028.227 -127.166)" fill="#212121"/>
      <path id="패스_6584" data-name="패스 6584" d="M1300.341,201.7h-6.935l-3.658-11.775-3.836,11.775h-6.935l-5.259-17.529a4.1,4.1,0,0,1-.191-1.55,3.711,3.711,0,0,1,.356-1.385,3.018,3.018,0,0,1,.851-1.067,2.864,2.864,0,0,1,1.257-.584,4.456,4.456,0,0,1,2.807.254,3.1,3.1,0,0,1,1.7,2.236l2.744,11.28,3.3-11.026a3.761,3.761,0,0,1,1.257-2.032,3.217,3.217,0,0,1,1.943-.61,3.707,3.707,0,0,1,1.994.546,3.48,3.48,0,0,1,1.346,2.045l3.3,11.165,2.667-11.419a3,3,0,0,1,1.613-2.223,4.361,4.361,0,0,1,2.756-.229,2.649,2.649,0,0,1,1.232.584,3.03,3.03,0,0,1,.8,1.067,3.748,3.748,0,0,1,.318,1.385,4.69,4.69,0,0,1-.216,1.588Z" transform="translate(-1173.547 -171.651)" fill="#212121"/>
      <path id="패스_6585" data-name="패스 6585" d="M1551.156,201.654l-.279-1.5a7.878,7.878,0,0,1-2.413,1.524,7.76,7.76,0,0,1-2.985.572h-.788a9.332,9.332,0,0,1-2.388-.343,6.825,6.825,0,0,1-2.363-1.156,6.442,6.442,0,0,1-1.817-2.21,7.479,7.479,0,0,1-.724-3.48,7.272,7.272,0,0,1,.711-3.379,5.852,5.852,0,0,1,1.905-2.172,7.761,7.761,0,0,1,2.769-1.169,14.852,14.852,0,0,1,3.328-.356h3.658a3.137,3.137,0,0,0-.3-1.3,2.118,2.118,0,0,0-.711-.813,2.891,2.891,0,0,0-1.029-.432,5.553,5.553,0,0,0-1.232-.127,6.9,6.9,0,0,0-1.169.1c-.381.076-.787.165-1.207.279a7.5,7.5,0,0,0-.8.318c-.254.114-.533.254-.876.394a2.538,2.538,0,0,1-1.054.267,3.457,3.457,0,0,1-1.08-.14,2.7,2.7,0,0,1-.978-.521,2.532,2.532,0,0,1-.7-.889,2.664,2.664,0,0,1-.14-2.083,3.755,3.755,0,0,1,1.283-1.728,6.94,6.94,0,0,1,1.6-.889,12.608,12.608,0,0,1,1.854-.584,16,16,0,0,1,3.849-.445,16.621,16.621,0,0,1,3.684.406,7.77,7.77,0,0,1,3.1,1.461,7.256,7.256,0,0,1,2.134,2.9,11.972,11.972,0,0,1,.8,4.725v12.728h-5.64v.038Zm-1.385-8.434h-3.239a2.277,2.277,0,0,0-1.562.483,1.7,1.7,0,0,0-.534,1.334,1.6,1.6,0,0,0,.534,1.321,2.3,2.3,0,0,0,1.461.432h.5a3.807,3.807,0,0,0,.991-.14,2.821,2.821,0,0,0,.9-.432,2.566,2.566,0,0,0,.673-.711,1.835,1.835,0,0,0,.267-.991l.013-1.3Z" transform="translate(-1403.912 -171.601)" fill="#212121"/>
      <path id="패스_6586" data-name="패스 6586" d="M1717.1,208.091V183.157a3.666,3.666,0,0,1,.3-1.55,3.39,3.39,0,0,1,.8-1.105,3.443,3.443,0,0,1,1.143-.673,4.067,4.067,0,0,1,3.29.267,3.127,3.127,0,0,1,1.372,1.461,7.011,7.011,0,0,1,2.4-1.461,7.945,7.945,0,0,1,2.718-.5,11.523,11.523,0,0,1,3.328.483,6.842,6.842,0,0,1,2.769,1.613,7.728,7.728,0,0,1,1.88,3.023,13.838,13.838,0,0,1,.7,4.7v3.2a13.58,13.58,0,0,1-.7,4.7,7.877,7.877,0,0,1-1.88,3.023,6.783,6.783,0,0,1-2.769,1.613,11.459,11.459,0,0,1-3.328.483,8.95,8.95,0,0,1-2.566-.368,8.461,8.461,0,0,1-2.235-1.08V208.1H1717.1Zm13.375-19.18a3.413,3.413,0,0,0-.3-1.512,3.143,3.143,0,0,0-.762-1.016,2.553,2.553,0,0,0-.991-.546,3.67,3.67,0,0,0-.991-.165,3.448,3.448,0,0,0-1.016.165,2.73,2.73,0,0,0-1.016.546,3.142,3.142,0,0,0-.762,1.016,3.411,3.411,0,0,0-.3,1.512v4.37a3.186,3.186,0,0,0,.356,1.435,3.015,3.015,0,0,0,.762.94,2.909,2.909,0,0,0,.978.521,3.667,3.667,0,0,0,.991.165,3.232,3.232,0,0,0,.991-.165,2.73,2.73,0,0,0,.991-.546,3.323,3.323,0,0,0,.762-.991,3.393,3.393,0,0,0,.3-1.524l.013-4.2Z" transform="translate(-1560.786 -171.775)" fill="#212121"/>
    </g>
  </g>
</svg>
