<svg xmlns="http://www.w3.org/2000/svg" id="구성_요소_359_1" width="400" height="200" viewBox="0 0 400 200">
    <defs>
        <style>
            .cls-2{fill:#001e36}.cls-4{fill:#c57b00}
        </style>
    </defs>
    <g id="사각형_2926" fill="none" stroke="#aaa">
        <rect width="400" height="200" stroke="none" rx="12"/>
        <rect width="399" height="199" x=".5" y=".5" rx="11.5"/>
    </g>
    <g id="그룹_4781" transform="translate(2.521 -107.113)">
        <g id="그룹_4780" transform="translate(153.057 246.843)">
            <path id="패스_6885" d="M407.162 1607.015H404.2l-4.765-7.928a7.1 7.1 0 0 1-.477-1.025h-.058q-.144.332-.491 1.025l-4.91 7.928h-2.975l6.931-10.411-6.383-10.3h2.975l4.231 7.278a14.638 14.638 0 0 1 .736 1.444h.058a15.964 15.964 0 0 1 .809-1.5l4.4-7.22h2.787l-6.513 10.267z" class="cls-2" transform="translate(-390.527 -1585.398)"/>
            <path id="패스_6886" d="M688.377 1576.68a1.5 1.5 0 0 1-1.083-.433 1.461 1.461 0 0 1-.448-1.1 1.517 1.517 0 0 1 1.531-1.545 1.529 1.529 0 0 1 1.1.44 1.543 1.543 0 0 1 0 2.188 1.516 1.516 0 0 1-1.1.45z" class="cls-2" transform="translate(-665.769 -1573.604)"/>
            <path id="사각형_2936" d="M0 0H2.368V14.787H0z" class="cls-2" transform="translate(21.394 6.83)"/>
            <path id="패스_6887" d="M832.493 1679.281h-2.368v-8.433q0-4.707-3.437-4.708a3.728 3.728 0 0 0-2.939 1.336 4.951 4.951 0 0 0-1.162 3.372v8.433h-2.368v-14.787h2.368v2.455h.058a5.337 5.337 0 0 1 4.852-2.8 4.524 4.524 0 0 1 3.711 1.567 6.98 6.98 0 0 1 1.285 4.527z" class="cls-2" transform="translate(-789.68 -1657.664)"/>
            <path id="패스_6888" d="M1097.8 1588.5h-8.087v7.162h7.48v2.181h-7.48v9.169h-2.426v-20.707h10.513z" class="cls-2" transform="translate(-1037.76 -1585.398)"/>
            <path id="패스_6889" d="M1310.508 1576.68a1.5 1.5 0 0 1-1.083-.433 1.462 1.462 0 0 1-.448-1.1 1.517 1.517 0 0 1 1.531-1.545 1.529 1.529 0 0 1 1.1.44 1.542 1.542 0 0 1 0 2.188 1.516 1.516 0 0 1-1.1.45z" class="cls-2" transform="translate(-1243.647 -1573.604)"/>
            <path id="사각형_2937" d="M0 0H2.368V14.787H0z" class="cls-2" transform="translate(65.649 6.83)"/>
            <path id="패스_6890" d="M1454.624 1679.281h-2.368v-8.433q0-4.707-3.437-4.708a3.728 3.728 0 0 0-2.939 1.336 4.951 4.951 0 0 0-1.162 3.372v8.433h-2.368v-14.787h2.368v2.455h.058a5.336 5.336 0 0 1 4.852-2.8 4.524 4.524 0 0 1 3.711 1.567 6.98 6.98 0 0 1 1.285 4.527z" class="cls-2" transform="translate(-1367.595 -1657.664)"/>
        </g>
        <path id="패스_6891" fill="#c57b00" fill-rule="evenodd" d="M535.979 213.53s-2.462 2.586-1.744 5.792c0 0 1.231 2.586 1.744 4.137l.205 1.034 2.052.1 1.436.1.615.724.41.621.41 1.345.205.724 1.026 1.034.513.931.513.724 1.026 1.448.718 1.034.615 1.241.718.827.616.828.41.931-.308 1.344-.513.931.411.931 4.206.517-.308-1.448-1.128-1.241-1.231-.724-.1-.828v-.931l.308-1.345.616-1.448.41-.621.718-.414.513-1.034-.205-.621s-.205-.931.513-1.241a3.645 3.645 0 0 0 .821-.414l.615-.31 1.026-.621.1-1.344-.1-.931-.205-1.138v-.827l1.436-.828 1.026-1.138.1-.517-.41-1.344-1.744-.31h-1.026c-.615 0-1.846-.1-1.846-.1l-1.334-.724-.923-.517-.513-.724-.205-.517-.308-.414-.718-.724-.513-.621-.615.1-1.334-.207-1.539-.207-.718-1.448-.616-.828-1.744-.1-1.026.207-1.334-.724-.821-1.448-1.231-.517-1.436-1.448-1.234-1.131-.718-1.138-.615-1.345-.718-.931-.41-.621-.513-1.138-.205-1.034v-.621a5.76 5.76 0 0 1 .1-.931 3.913 3.913 0 0 1 1.128-.517c.513-.1.205-.1.821-.207a3.136 3.136 0 0 1 .923-.1 4.2 4.2 0 0 1 .923.1 9.726 9.726 0 0 1 .1 2.586 21.681 21.681 0 0 0-.513 2.482v1.241l1.128 1.138.615-2.793-.1-.621-.1-1.034s-.1-.828-.1-1.241v-1.033l1.026-1.655a2.379 2.379 0 0 1 .718-.621 1.711 1.711 0 0 0 .615-.517l.718-.414a2.866 2.866 0 0 0 1.026-.828l.616-1.241.718-.724.615-.414 1.436-1.034 1.334-1.241.615-.414.616.31s.1-.1.513.31.205 1.655 1.026.517a4.94 4.94 0 0 0 .923-2.172l-.923-.1-.513-.207-.616-.31-.308-.621.615-.827.513-.31h.821l.615.207h.718a4.387 4.387 0 0 0 1.846-.517l.205-.724.615-1.655-.308-.931-.923-.517h-.918l-.718-.1-.718-.517.513-1.345a4.641 4.641 0 0 1 .821-.621c.513-.31 1.334-.931 1.334-.931l1.128-.724 1.334.1.821.621s.308-.1.718.31a18.085 18.085 0 0 0 1.846 1.345 9.808 9.808 0 0 1 2.565-.828l.821-.517.615-.724.616-1.138 1.128.724.923-.311 1.334-.621s.1-.1.615-.1h.923a5.964 5.964 0 0 1 1.026.1h1.539l1.026.724a.578.578 0 0 1 .205.621c-.1.414-.308.1-.308.724s1.128 1.138 1.128 1.138l.821-.517.1-.517 1.436.1 1.231.931.513.414.1.724-1.641.517-1.744.1-1.129-.724-1.231.621-1.128.517.615 1.241 1.026-.207c.513 0 1.333.724 1.333.724l-1.333.931-1.026.1-.821.724s-.1 0 .718.31 1.026.414 1.026.414l.615.621v1.034l-.308.414-.308.931h1.846l1.026-.517.41-.414.615-1.241s-.718-.207.308-.414 1.128-.207 1.128-.207h1.026l.821.621 1.129.207.718-.1.1-.724 1.026-.517.513.931.1.724.513.517.41.414.513.414.821.207.1-.724v-1.138l.821-.1.718.621.513.207a.728.728 0 0 1 .615.414 12.3 12.3 0 0 0 .821 1.241l.308.517-.1.621c-.41.1-1.128.207-1.128.207a4.64 4.64 0 0 1-.923-.517l-.41-.31-.923.931s.41-.1-.205.517l-.616.621-.615-.1-.821-1.034-.821-.31-.718-.207-.308-.621-1.744-1.241h-.615l-.718.827h-.718l-.41-.621-.718.517-1.539.724-.513.1-2.257.414-1.129.517-.513 1.138s.308.207-.1.621a13.172 13.172 0 0 0-1.128 1.551l-.718 1.138v.931l.205.517.205.621v.828l-.513 2.069-.205.517-.2 1.241 1.333.724a5.085 5.085 0 0 0 1.231 1.344l.923 1.138 1.026.621c.513.31.41.31.923.31s1.641-.1 1.641-.1h.821l2.052.1h1.539l1.436.1h1.231l1.539.31.1.724.1 1.034v.724l.308.517.1.517.41.724.41.517.615 1.034a1.536 1.536 0 0 1 .513.724c.1.414.41.828-.205 1.241s-1.026 2.172-1.026 2.172l.1 1.138v.827l.205.828v2.068a4.3 4.3 0 0 0 .1.931l.1.931.308 1.138a10.368 10.368 0 0 1 .41 1.138 2.588 2.588 0 0 0 .308.724l.308.517.513.517.513.1.821-1.241 1.231-1.551.718-1.138.513-.931s.205-.621.41-1.138a2.694 2.694 0 0 1 .718-.931l.923-1.241.923-.827a1.657 1.657 0 0 0 .513-.621 14.645 14.645 0 0 0 .718-1.552 9.838 9.838 0 0 0 .1-1.448v-2.069a3.011 3.011 0 0 1 0-1.034 3.043 3.043 0 0 1 .205-.931c.205-.517.718-1.448.718-1.448l.616-1.138a4.064 4.064 0 0 0 .41-1.034c.205-.724.308-.931.41-1.345a2.239 2.239 0 0 0 .205-1.034c0-.724.1-1.448.1-1.862a1.8 1.8 0 0 0-.1-1.034c-.205-.414 0-.414-.513-.931s-.718-.621-1.128-1.034-.821-.621-1.231-1.034a11.254 11.254 0 0 1-1.129-1.034 6.912 6.912 0 0 1-.615-1.138s-.41-.207.205-.517.82-.517 1.231-.414a2.724 2.724 0 0 1 .821.414l.513.517 1.026.207 1.334-1.241.205-1.345-.718-.621-.41.621-.1.931-1.333-.517-.308-.724.308-1.034.821-.414.1-1.034s-.718-.931-1.128-1.448-1.641-2.275-1.641-2.275a2.847 2.847 0 0 0-.615-.621 7.6 7.6 0 0 1-1.026-1.138l-1.847-1.448-1.539-1.241-1.744-1.241s-1.231-.931-1.744-1.241-1.949-1.345-1.949-1.345l-2.052-1.241a7.8 7.8 0 0 0-1.282-.569l-2.077-.931-4.385-1.4-5.386-.931h-4.616l-3.539.233-3.539.388-3.693 1.164-2.385.776-4.847 2.327-2.308 1.629-1.77 1.4-7.771 8.533-1.077 1.474-2.154 4.112.308 1.009.692-.776.308.776-.462 1.474-.154 3.18.615 1.552.769 1.319.846 1.086 1.077.931.769.853.462.621.462.621.462.31-.231 1.319.154 2.56-.077 1.629.808-1.943.192-.462-.154-.7-.231-.931-.154-.776.693-.155.615.155.385.543.077.7-.462.543-.231.388z" transform="translate(-364.936 -28.277)"/>
        <path id="패스_6892" d="M540.217 209.422a35.212 35.212 0 0 1-2.8 2.312h-2.429c.242-.275.482-.553.716-.839a35.35 35.35 0 0 0 5.318-8.911h5.273a33.01 33.01 0 0 1-6.078 7.438zm-7.416 4.561h1.192q-1.458.842-2.994 1.547.922-.73 1.801-1.546zm-36.427 0h1.192q.879.818 1.8 1.547-1.533-.703-2.993-1.546zm-12.3-12h5.273a35.348 35.348 0 0 0 5.318 8.911c.235.286.475.564.716.839h-2.431a35.221 35.221 0 0 1-2.8-2.312 33 33 0 0 1-6.079-7.437zm6.078-38.487a35.107 35.107 0 0 1 2.8-2.312h2.429c-.242.274-.481.553-.716.839a35.353 35.353 0 0 0-5.318 8.911h-5.273a33 33 0 0 1 6.075-7.434zm7.416-4.562h-1.192q1.458-.842 2.994-1.546-.925.73-1.805 1.548zm36.427 0H532.8q-.879-.817-1.8-1.546 1.533.705 2.992 1.548zm12.3 12h-5.273a35.352 35.352 0 0 0-5.318-8.911c-.235-.286-.475-.564-.716-.839h2.429a35.14 35.14 0 0 1 2.8 2.312 33 33 0 0 1 6.077 7.439zm-2.266 14.4a40.759 40.759 0 0 0-2.156-12.15h5.64a30.12 30.12 0 0 1 3.05 12.15zm-14.225 14.4a73.512 73.512 0 0 0 1.151-12.149h10.62a38.52 38.52 0 0 1-2.292 12.149zm-3.69 12c.17-.358.337-.724.5-1.1a48.113 48.113 0 0 0 2.734-8.649h9.025a32.066 32.066 0 0 1-6.629 9.75zm-1.183 2.25h4.252a24.11 24.11 0 0 1-7.053 3.808 20.464 20.464 0 0 0 2.8-3.808zm-19.494 0a20.459 20.459 0 0 0 2.8 3.808 24.11 24.11 0 0 1-7.053-3.808zm-4.418-12a48.093 48.093 0 0 0 2.734 8.649c.163.377.33.743.5 1.1h-5.632a32.07 32.07 0 0 1-6.629-9.75zm-12.227-14.4h10.62a73.538 73.538 0 0 0 1.151 12.149h-9.48a38.519 38.519 0 0 1-2.292-12.148zm11.772-14.4a73.533 73.533 0 0 0-1.151 12.15h-10.62a38.519 38.519 0 0 1 2.292-12.15zm3.69-12c-.17.358-.337.724-.5 1.1a48.1 48.1 0 0 0-2.734 8.649h-9.026a32.063 32.063 0 0 1 6.629-9.75zm1.184-2.25h-4.252a24.112 24.112 0 0 1 7.053-3.808 20.456 20.456 0 0 0-2.803 3.81zm19.494 0a20.48 20.48 0 0 0-2.8-3.808 24.11 24.11 0 0 1 7.053 3.808zm4.418 12a48.087 48.087 0 0 0-2.734-8.649c-.163-.377-.33-.743-.5-1.1h5.632a32.065 32.065 0 0 1 6.629 9.75zm-12.939 14.4v-12.15h10.908a71.136 71.136 0 0 1 1.184 12.15zm0 14.4v-12.149H528.5a71.127 71.127 0 0 1-1.184 12.149zm-2.453-12.149v12.149h-10.909a71.154 71.154 0 0 1-1.184-12.149zm0-14.4v12.15h-12.093a71.133 71.133 0 0 1 1.184-12.15zm10.378-10.068a45.487 45.487 0 0 1 2.511 7.818h-10.438v-9.75h7.01q.473.915.915 1.932zm-2.226-4.181h-5.7v-4.8c1.99.491 3.95 2.153 5.698 4.8zm-8.152-4.8v4.8h-5.7c1.748-2.647 3.71-4.309 5.699-4.798zm-7.01 7.048h7.01v9.75H503.52a45.482 45.482 0 0 1 2.511-7.818q.442-1.016.915-1.93zm-.915 48.617a45.477 45.477 0 0 1-2.511-7.818h10.436v9.75h-7.01q-.474-.914-.917-1.933zm2.226 4.181h5.7v4.8c-1.991-.489-3.953-2.152-5.701-4.798zm8.152 4.8v-4.8h5.7c-1.751 2.648-3.711 4.311-5.702 4.8zm7.01-7.048h-7.01v-9.75h10.436a45.488 45.488 0 0 1-2.511 7.818q-.443 1.019-.916 1.932zm7.535-26.4a73.507 73.507 0 0 0-1.151-12.15h9.48a38.52 38.52 0 0 1 2.292 12.15zm-48.1-12.15h5.64a40.775 40.775 0 0 0-2.156 12.15h-6.54a30.122 30.122 0 0 1 3.053-12.149zm-3.05 14.4h6.534a40.762 40.762 0 0 0 2.156 12.149h-5.64a30.123 30.123 0 0 1-3.056-12.148zm67.709 12.149h-5.64a40.772 40.772 0 0 0 2.156-12.149h6.534a30.123 30.123 0 0 1-3.053 12.15zm-5.561-37.828a40.311 40.311 0 0 0-53.536 0 32.73 32.73 0 0 0 0 49.107 40.311 40.311 0 0 0 53.536 0 32.73 32.73 0 0 0 0-49.107z" class="cls-4" transform="translate(-318.055 -6.149)"/>
        <path id="패스_6893" d="M915.525 1273.08l4.541 3.311-1.718-5.4 4.541-3.188h-5.523l-1.841-5.519-1.841 5.519h-5.523L912.7 1271l-1.718 5.4z" class="cls-4" transform="translate(-718.321 -1037.586)"/>
        <path id="패스_6894" d="M1200.715 145.121c8.688-.31 10.55 7.913 10.55 7.913a17.031 17.031 0 0 1-10.55-7.913zm3.258 11.481c7.292-2.637 12.412 3.879 12.412 3.879a15.776 15.776 0 0 1-12.412-3.881zm13.964 1.4c-5.43-4.189-4.654-11.326-4.654-11.326 5.429 2.634 4.654 11.324 4.654 11.324zm-9.619 4.965a13.2 13.2 0 0 1 12.567 4.965c-9.465-.159-12.568-4.969-12.568-4.969zm14.584 3.724c-4.655-6.982-2.017-11.481-2.017-11.481 5.275 3.099 2.015 11.477 2.015 11.477zm-8.688 2.948c7.447-.155 9.619 7.447 9.619 7.447a11.23 11.23 0 0 1-9.62-7.451zm12.412 6.517c-3.413-6.827 1.707-12.412 1.707-12.412 2.947 5.736-1.708 12.407-1.708 12.407zm-10.4.931c7.137 1.862 7.758 9 7.758 9a9.71 9.71 0 0 1-7.754-9.005zm10.861 8.844c.155-7.913 5.585-10.705 5.585-10.705 1.556 6.821-5.582 10.7-5.582 10.7zm-4.965 11.947c-7.292-4.034-6.516-12.567-6.516-12.567 7.451 3.718 6.52 12.562 6.52 12.562zm3.1-.31c-.465-7.913 7.137-12.257 7.137-12.257.007 8.062-7.13 12.251-7.13 12.251zm-4.654 10.55c4.189-8.844 12.257-9.154 12.257-9.154-1.856 7.136-12.251 9.149-12.251 9.149zm-2.328-.465a15.436 15.436 0 0 1-4.344-14.119c6.368 4.028 4.351 14.113 4.351 14.113zm-6.982 9a11.876 11.876 0 0 1-1.4-13.343c5.751 5.113 1.407 13.336 1.407 13.336zm2.483 1.086c4.034-8.068 13.343-7.6 13.343-7.6-2.941 7.593-13.336 7.593-13.336 7.593zm-10.551 8.533c6.361-7.913 16.912-4.189 16.912-4.189-4.182 6.354-16.902 4.182-16.902 4.182zm-1.552-3.258a12.529 12.529 0 0 1 2.793-13.964c3.421 9.768-2.785 13.957-2.785 13.957zm-8.533 5.275c-3.568-9.93 4.5-15.671 4.5-15.671 1.403 10.699-4.493 15.664-4.493 15.664zm2.017 3.1s5.12-4.81 16.446-.155c.007-.004-9.457 4.806-16.439.151zm-9 3.413s8.378-3.879 16.912 4.81c.008-.004-14.576 1.858-16.904-4.812zm-1.707-2.948c-3.724-11.326 4.189-15.67 4.189-15.67 2.181 8.84-4.18 15.667-4.18 15.667z" class="cls-4" transform="translate(-974.156)"/>
        <path id="패스_6895" d="M156.372 153.034s1.862-8.223 10.55-7.913a17.031 17.031 0 0 1-10.55 7.913zm-5.12 7.447s5.12-6.516 12.412-3.879a15.777 15.777 0 0 1-12.412 3.879zm3.1-13.808s.776 7.137-4.654 11.326c.002.001-.773-8.689 4.657-11.327zm-7.6 21.256a13.2 13.2 0 0 1 12.567-4.965s-3.102 4.809-12.566 4.964zm0-12.722s2.638 4.5-2.017 11.481c.001-.001-3.257-8.379 2.018-11.482zm-2.952 21.875s2.172-7.6 9.619-7.447a11.231 11.231 0 0 1-9.619 7.447zm-4.5-13.343s5.12 5.585 1.707 12.412c.005 0-4.649-6.671-1.701-12.412zm4.344 22.342s.621-7.137 7.758-9a9.71 9.71 0 0 1-7.752 9zm-8.689-10.861s5.43 2.793 5.586 10.705c.006.001-7.131-3.878-5.58-10.705zm17.067 10.085s.776 8.533-6.516 12.567c.006.001-.925-8.843 6.522-12.567zm-16.756 0s7.6 4.344 7.137 12.257c.006 0-7.131-4.189-7.131-12.257zm-.465 13.653s8.068.31 12.257 9.154c.005.001-10.39-2.012-12.252-9.153zm18.929-5.43a15.435 15.435 0 0 1-4.344 14.119s-2.013-10.085 4.349-14.119zm4.034 9.774a11.875 11.875 0 0 1-1.4 13.343s-4.336-8.222 1.405-13.345zm-17.222 6.827s9.309-.465 13.343 7.6c.005.003-10.39.003-13.338-7.599zm6.982 11.947s10.55-3.724 16.912 4.189c.004 0-12.718 2.172-16.907-4.189zm15.67-13.033a12.529 12.529 0 0 1 2.793 13.964s-6.201-4.189-2.787-13.964zm6.827 3.568s8.068 5.741 4.5 15.671c.004 0-5.892-4.965-4.495-15.67zm-13.959 18.619c11.326-4.654 16.446.155 16.446.155-6.982 4.655-16.446-.155-16.446-.155zm8.533 8.378c8.533-8.689 16.912-4.81 16.912-4.81-2.327 6.672-16.907 4.81-16.907 4.81zm14.429-23.428s7.913 4.344 4.189 15.67c.001.001-6.361-6.826-4.189-15.67z" class="cls-4"/>
    </g>
</svg>
