<svg width="270" height="352" viewBox="0 0 270 352" fill="none" xmlns="http://www.w3.org/2000/svg">
<rect width="270" height="352" fill="#EEEEEE"/>
<rect opacity="0.5" x="53" y="324" width="164" height="4" fill="#27C4B8"/>
<path d="M60.4541 324.927V326H55.4775V324.927H60.4541ZM55.7373 316.047V326H54.418V316.047H55.7373ZM63.1475 318.604V326H61.876V318.604H63.1475ZM61.7803 316.642C61.7803 316.437 61.8418 316.263 61.9648 316.122C62.0924 315.981 62.2793 315.91 62.5254 315.91C62.7669 315.91 62.9515 315.981 63.0791 316.122C63.2113 316.263 63.2773 316.437 63.2773 316.642C63.2773 316.838 63.2113 317.006 63.0791 317.147C62.9515 317.284 62.7669 317.353 62.5254 317.353C62.2793 317.353 62.0924 317.284 61.9648 317.147C61.8418 317.006 61.7803 316.838 61.7803 316.642ZM66.4355 320.073V326H65.1641V318.604H66.3672L66.4355 320.073ZM66.1758 322.021L65.5879 322.001C65.5924 321.495 65.6585 321.028 65.7861 320.6C65.9137 320.167 66.1029 319.791 66.3535 319.472C66.6042 319.153 66.9163 318.907 67.29 318.733C67.6637 318.556 68.0967 318.467 68.5889 318.467C68.9352 318.467 69.2542 318.517 69.5459 318.617C69.8376 318.713 70.0905 318.866 70.3047 319.075C70.5189 319.285 70.6852 319.554 70.8037 319.882C70.9222 320.21 70.9814 320.606 70.9814 321.071V326H69.7168V321.133C69.7168 320.745 69.6507 320.436 69.5186 320.203C69.391 319.971 69.2087 319.802 68.9717 319.697C68.7347 319.588 68.4567 319.533 68.1377 319.533C67.764 319.533 67.4518 319.599 67.2012 319.731C66.9505 319.864 66.75 320.046 66.5996 320.278C66.4492 320.511 66.3398 320.777 66.2715 321.078C66.2077 321.374 66.1758 321.689 66.1758 322.021ZM70.9678 321.324L70.1201 321.584C70.1247 321.178 70.1908 320.789 70.3184 320.415C70.4505 320.041 70.6396 319.709 70.8857 319.417C71.1364 319.125 71.444 318.895 71.8086 318.727C72.1732 318.553 72.5902 318.467 73.0596 318.467C73.4561 318.467 73.807 318.519 74.1123 318.624C74.4222 318.729 74.682 318.891 74.8916 319.109C75.1058 319.324 75.2676 319.599 75.377 319.937C75.4863 320.274 75.541 320.675 75.541 321.14V326H74.2695V321.126C74.2695 320.711 74.2035 320.39 74.0713 320.162C73.9437 319.93 73.7614 319.768 73.5244 319.677C73.292 319.581 73.014 319.533 72.6904 319.533C72.4124 319.533 72.1663 319.581 71.9521 319.677C71.738 319.772 71.5579 319.905 71.4121 320.073C71.2663 320.237 71.1546 320.426 71.0771 320.641C71.0042 320.855 70.9678 321.083 70.9678 321.324ZM78.8291 318.604V326H77.5576V318.604H78.8291ZM77.4619 316.642C77.4619 316.437 77.5234 316.263 77.6465 316.122C77.7741 315.981 77.9609 315.91 78.207 315.91C78.4486 315.91 78.6331 315.981 78.7607 316.122C78.8929 316.263 78.959 316.437 78.959 316.642C78.959 316.838 78.8929 317.006 78.7607 317.147C78.6331 317.284 78.4486 317.353 78.207 317.353C77.9609 317.353 77.7741 317.284 77.6465 317.147C77.5234 317.006 77.4619 316.838 77.4619 316.642ZM83.9561 318.604V319.574H79.957V318.604H83.9561ZM81.3105 316.806H82.5752V324.168C82.5752 324.419 82.6139 324.608 82.6914 324.735C82.7689 324.863 82.8691 324.947 82.9922 324.988C83.1152 325.029 83.2474 325.05 83.3887 325.05C83.4935 325.05 83.6029 325.041 83.7168 325.022C83.8353 325 83.9242 324.981 83.9834 324.968L83.9902 326C83.89 326.032 83.7578 326.062 83.5938 326.089C83.4342 326.121 83.2406 326.137 83.0127 326.137C82.7028 326.137 82.418 326.075 82.1582 325.952C81.8984 325.829 81.6911 325.624 81.5361 325.337C81.3857 325.045 81.3105 324.653 81.3105 324.161V316.806ZM88.5088 326.137C87.9938 326.137 87.5267 326.05 87.1074 325.877C86.6927 325.699 86.335 325.451 86.0342 325.132C85.738 324.813 85.5101 324.435 85.3506 323.997C85.1911 323.56 85.1113 323.081 85.1113 322.562V322.274C85.1113 321.673 85.2002 321.137 85.3779 320.668C85.5557 320.194 85.7972 319.793 86.1025 319.465C86.4079 319.137 86.7542 318.888 87.1416 318.72C87.529 318.551 87.93 318.467 88.3447 318.467C88.8734 318.467 89.3291 318.558 89.7119 318.74C90.0993 318.923 90.416 319.178 90.6621 319.506C90.9082 319.829 91.0905 320.212 91.209 320.654C91.3275 321.092 91.3867 321.57 91.3867 322.09V322.657H85.8633V321.625H90.1221V321.529C90.1038 321.201 90.0355 320.882 89.917 320.572C89.8031 320.262 89.6208 320.007 89.3701 319.807C89.1195 319.606 88.7777 319.506 88.3447 319.506C88.0576 319.506 87.7933 319.567 87.5518 319.69C87.3102 319.809 87.1029 319.987 86.9297 320.224C86.7565 320.461 86.6221 320.75 86.5264 321.092C86.4307 321.434 86.3828 321.828 86.3828 322.274V322.562C86.3828 322.912 86.4307 323.243 86.5264 323.553C86.6266 323.858 86.7702 324.127 86.957 324.359C87.1484 324.592 87.3786 324.774 87.6475 324.906C87.9209 325.038 88.2308 325.104 88.5771 325.104C89.0238 325.104 89.402 325.013 89.7119 324.831C90.0218 324.649 90.293 324.405 90.5254 324.1L91.291 324.708C91.1315 324.95 90.9287 325.18 90.6826 325.398C90.4365 325.617 90.1335 325.795 89.7734 325.932C89.418 326.068 88.9964 326.137 88.5088 326.137ZM97.5254 324.564V315.5H98.7969V326H97.6348L97.5254 324.564ZM92.5488 322.384V322.24C92.5488 321.675 92.6172 321.162 92.7539 320.702C92.8952 320.237 93.0934 319.839 93.3486 319.506C93.6084 319.173 93.916 318.918 94.2715 318.74C94.6315 318.558 95.0326 318.467 95.4746 318.467C95.9395 318.467 96.3451 318.549 96.6914 318.713C97.0423 318.872 97.3385 319.107 97.5801 319.417C97.8262 319.722 98.0199 320.091 98.1611 320.524C98.3024 320.957 98.4004 321.447 98.4551 321.994V322.623C98.4049 323.165 98.307 323.653 98.1611 324.086C98.0199 324.519 97.8262 324.888 97.5801 325.193C97.3385 325.499 97.0423 325.733 96.6914 325.897C96.3405 326.057 95.9303 326.137 95.4609 326.137C95.028 326.137 94.6315 326.043 94.2715 325.856C93.916 325.67 93.6084 325.408 93.3486 325.07C93.0934 324.733 92.8952 324.337 92.7539 323.881C92.6172 323.421 92.5488 322.922 92.5488 322.384ZM93.8203 322.24V322.384C93.8203 322.753 93.8568 323.099 93.9297 323.423C94.0072 323.746 94.1257 324.031 94.2852 324.277C94.4447 324.523 94.6475 324.717 94.8936 324.858C95.1396 324.995 95.4336 325.063 95.7754 325.063C96.1947 325.063 96.5387 324.975 96.8076 324.797C97.0811 324.619 97.2998 324.384 97.4639 324.093C97.6279 323.801 97.7555 323.484 97.8467 323.143V321.495C97.792 321.244 97.7122 321.003 97.6074 320.771C97.5072 320.534 97.375 320.324 97.2109 320.142C97.0514 319.955 96.8532 319.807 96.6162 319.697C96.3838 319.588 96.1081 319.533 95.7891 319.533C95.4427 319.533 95.1442 319.606 94.8936 319.752C94.6475 319.893 94.4447 320.089 94.2852 320.34C94.1257 320.586 94.0072 320.873 93.9297 321.201C93.8568 321.525 93.8203 321.871 93.8203 322.24ZM112.093 320.709V321.338C112.093 322.085 111.999 322.755 111.812 323.348C111.626 323.94 111.357 324.444 111.006 324.858C110.655 325.273 110.233 325.59 109.741 325.809C109.254 326.027 108.707 326.137 108.101 326.137C107.513 326.137 106.973 326.027 106.48 325.809C105.993 325.59 105.569 325.273 105.209 324.858C104.854 324.444 104.578 323.94 104.382 323.348C104.186 322.755 104.088 322.085 104.088 321.338V320.709C104.088 319.962 104.184 319.294 104.375 318.706C104.571 318.114 104.847 317.61 105.202 317.195C105.558 316.776 105.979 316.457 106.467 316.238C106.959 316.02 107.499 315.91 108.087 315.91C108.693 315.91 109.24 316.02 109.728 316.238C110.22 316.457 110.641 316.776 110.992 317.195C111.348 317.61 111.619 318.114 111.806 318.706C111.997 319.294 112.093 319.962 112.093 320.709ZM110.787 321.338V320.695C110.787 320.103 110.726 319.579 110.603 319.123C110.484 318.667 110.309 318.285 110.076 317.975C109.844 317.665 109.559 317.43 109.222 317.271C108.889 317.111 108.511 317.031 108.087 317.031C107.677 317.031 107.305 317.111 106.973 317.271C106.645 317.43 106.362 317.665 106.125 317.975C105.893 318.285 105.713 318.667 105.585 319.123C105.457 319.579 105.394 320.103 105.394 320.695V321.338C105.394 321.935 105.457 322.464 105.585 322.924C105.713 323.38 105.895 323.765 106.132 324.079C106.373 324.389 106.658 324.624 106.986 324.783C107.319 324.943 107.69 325.022 108.101 325.022C108.529 325.022 108.91 324.943 109.242 324.783C109.575 324.624 109.855 324.389 110.083 324.079C110.315 323.765 110.491 323.38 110.609 322.924C110.728 322.464 110.787 321.935 110.787 321.338ZM115.764 326H114.499V317.824C114.499 317.291 114.595 316.842 114.786 316.478C114.982 316.108 115.262 315.83 115.627 315.644C115.992 315.452 116.424 315.356 116.926 315.356C117.072 315.356 117.217 315.366 117.363 315.384C117.514 315.402 117.66 315.429 117.801 315.466L117.732 316.498C117.637 316.475 117.527 316.459 117.404 316.45C117.286 316.441 117.167 316.437 117.049 316.437C116.78 316.437 116.548 316.491 116.352 316.601C116.16 316.705 116.014 316.86 115.914 317.065C115.814 317.271 115.764 317.523 115.764 317.824V326ZM117.336 318.604V319.574H113.33V318.604H117.336ZM120.631 326H119.366V317.824C119.366 317.291 119.462 316.842 119.653 316.478C119.849 316.108 120.13 315.83 120.494 315.644C120.859 315.452 121.292 315.356 121.793 315.356C121.939 315.356 122.085 315.366 122.23 315.384C122.381 315.402 122.527 315.429 122.668 315.466L122.6 316.498C122.504 316.475 122.395 316.459 122.271 316.45C122.153 316.441 122.035 316.437 121.916 316.437C121.647 316.437 121.415 316.491 121.219 316.601C121.027 316.705 120.882 316.86 120.781 317.065C120.681 317.271 120.631 317.523 120.631 317.824V326ZM122.203 318.604V319.574H118.197V318.604H122.203ZM126.517 326.137C126.002 326.137 125.535 326.05 125.115 325.877C124.701 325.699 124.343 325.451 124.042 325.132C123.746 324.813 123.518 324.435 123.358 323.997C123.199 323.56 123.119 323.081 123.119 322.562V322.274C123.119 321.673 123.208 321.137 123.386 320.668C123.563 320.194 123.805 319.793 124.11 319.465C124.416 319.137 124.762 318.888 125.149 318.72C125.537 318.551 125.938 318.467 126.353 318.467C126.881 318.467 127.337 318.558 127.72 318.74C128.107 318.923 128.424 319.178 128.67 319.506C128.916 319.829 129.098 320.212 129.217 320.654C129.335 321.092 129.395 321.57 129.395 322.09V322.657H123.871V321.625H128.13V321.529C128.112 321.201 128.043 320.882 127.925 320.572C127.811 320.262 127.629 320.007 127.378 319.807C127.127 319.606 126.785 319.506 126.353 319.506C126.065 319.506 125.801 319.567 125.56 319.69C125.318 319.809 125.111 319.987 124.938 320.224C124.764 320.461 124.63 320.75 124.534 321.092C124.438 321.434 124.391 321.828 124.391 322.274V322.562C124.391 322.912 124.438 323.243 124.534 323.553C124.634 323.858 124.778 324.127 124.965 324.359C125.156 324.592 125.386 324.774 125.655 324.906C125.929 325.038 126.239 325.104 126.585 325.104C127.032 325.104 127.41 325.013 127.72 324.831C128.03 324.649 128.301 324.405 128.533 324.1L129.299 324.708C129.139 324.95 128.937 325.18 128.69 325.398C128.444 325.617 128.141 325.795 127.781 325.932C127.426 326.068 127.004 326.137 126.517 326.137ZM132.136 319.766V326H130.871V318.604H132.102L132.136 319.766ZM134.446 318.562L134.439 319.738C134.335 319.715 134.234 319.702 134.139 319.697C134.048 319.688 133.943 319.684 133.824 319.684C133.533 319.684 133.275 319.729 133.052 319.82C132.828 319.911 132.639 320.039 132.484 320.203C132.329 320.367 132.206 320.563 132.115 320.791C132.029 321.014 131.972 321.26 131.944 321.529L131.589 321.734C131.589 321.288 131.632 320.868 131.719 320.477C131.81 320.085 131.949 319.738 132.136 319.438C132.323 319.132 132.56 318.895 132.847 318.727C133.138 318.553 133.485 318.467 133.886 318.467C133.977 318.467 134.082 318.478 134.2 318.501C134.319 318.519 134.401 318.54 134.446 318.562ZM143.613 324.291V318.604H144.885V326H143.675L143.613 324.291ZM143.853 322.732L144.379 322.719C144.379 323.211 144.326 323.667 144.222 324.086C144.121 324.501 143.957 324.861 143.729 325.166C143.502 325.471 143.203 325.711 142.834 325.884C142.465 326.052 142.016 326.137 141.487 326.137C141.127 326.137 140.797 326.084 140.496 325.979C140.2 325.875 139.945 325.713 139.73 325.494C139.516 325.275 139.35 324.991 139.231 324.64C139.118 324.289 139.061 323.867 139.061 323.375V318.604H140.325V323.389C140.325 323.721 140.362 323.997 140.435 324.216C140.512 324.43 140.615 324.601 140.742 324.729C140.874 324.852 141.02 324.938 141.18 324.988C141.344 325.038 141.512 325.063 141.686 325.063C142.223 325.063 142.649 324.961 142.964 324.756C143.278 324.546 143.504 324.266 143.641 323.915C143.782 323.56 143.853 323.165 143.853 322.732ZM148.077 320.183V326H146.812V318.604H148.009L148.077 320.183ZM147.776 322.021L147.25 322.001C147.255 321.495 147.33 321.028 147.476 320.6C147.621 320.167 147.826 319.791 148.091 319.472C148.355 319.153 148.67 318.907 149.034 318.733C149.403 318.556 149.811 318.467 150.258 318.467C150.622 318.467 150.951 318.517 151.242 318.617C151.534 318.713 151.782 318.868 151.987 319.082C152.197 319.296 152.356 319.574 152.466 319.916C152.575 320.253 152.63 320.666 152.63 321.153V326H151.358V321.14C151.358 320.752 151.301 320.442 151.188 320.21C151.074 319.973 150.907 319.802 150.688 319.697C150.47 319.588 150.201 319.533 149.882 319.533C149.567 319.533 149.28 319.599 149.021 319.731C148.765 319.864 148.544 320.046 148.357 320.278C148.175 320.511 148.032 320.777 147.927 321.078C147.826 321.374 147.776 321.689 147.776 322.021ZM157.647 318.604V319.574H153.648V318.604H157.647ZM155.002 316.806H156.267V324.168C156.267 324.419 156.305 324.608 156.383 324.735C156.46 324.863 156.561 324.947 156.684 324.988C156.807 325.029 156.939 325.05 157.08 325.05C157.185 325.05 157.294 325.041 157.408 325.022C157.527 325 157.616 324.981 157.675 324.968L157.682 326C157.581 326.032 157.449 326.062 157.285 326.089C157.126 326.121 156.932 326.137 156.704 326.137C156.394 326.137 156.109 326.075 155.85 325.952C155.59 325.829 155.382 325.624 155.228 325.337C155.077 325.045 155.002 324.653 155.002 324.161V316.806ZM160.505 318.604V326H159.233V318.604H160.505ZM159.138 316.642C159.138 316.437 159.199 316.263 159.322 316.122C159.45 315.981 159.637 315.91 159.883 315.91C160.124 315.91 160.309 315.981 160.437 316.122C160.569 316.263 160.635 316.437 160.635 316.642C160.635 316.838 160.569 317.006 160.437 317.147C160.309 317.284 160.124 317.353 159.883 317.353C159.637 317.353 159.45 317.284 159.322 317.147C159.199 317.006 159.138 316.838 159.138 316.642ZM163.909 315.5V326H162.638V315.5H163.909ZM177.26 316.047V326H175.934L170.923 318.323V326H169.604V316.047H170.923L175.954 323.744V316.047H177.26ZM179.071 322.384V322.227C179.071 321.693 179.149 321.199 179.304 320.743C179.459 320.283 179.682 319.884 179.974 319.547C180.265 319.205 180.618 318.941 181.033 318.754C181.448 318.562 181.913 318.467 182.428 318.467C182.947 318.467 183.414 318.562 183.829 318.754C184.248 318.941 184.604 319.205 184.896 319.547C185.192 319.884 185.417 320.283 185.572 320.743C185.727 321.199 185.805 321.693 185.805 322.227V322.384C185.805 322.917 185.727 323.411 185.572 323.867C185.417 324.323 185.192 324.722 184.896 325.063C184.604 325.401 184.251 325.665 183.836 325.856C183.426 326.043 182.961 326.137 182.441 326.137C181.922 326.137 181.455 326.043 181.04 325.856C180.625 325.665 180.27 325.401 179.974 325.063C179.682 324.722 179.459 324.323 179.304 323.867C179.149 323.411 179.071 322.917 179.071 322.384ZM180.336 322.227V322.384C180.336 322.753 180.379 323.102 180.466 323.43C180.552 323.753 180.682 324.04 180.855 324.291C181.033 324.542 181.254 324.74 181.519 324.886C181.783 325.027 182.09 325.098 182.441 325.098C182.788 325.098 183.091 325.027 183.351 324.886C183.615 324.74 183.834 324.542 184.007 324.291C184.18 324.04 184.31 323.753 184.396 323.43C184.488 323.102 184.533 322.753 184.533 322.384V322.227C184.533 321.862 184.488 321.518 184.396 321.194C184.31 320.866 184.178 320.577 184 320.326C183.827 320.071 183.608 319.87 183.344 319.725C183.084 319.579 182.779 319.506 182.428 319.506C182.081 319.506 181.776 319.579 181.512 319.725C181.252 319.87 181.033 320.071 180.855 320.326C180.682 320.577 180.552 320.866 180.466 321.194C180.379 321.518 180.336 321.862 180.336 322.227ZM189.53 324.858L191.554 318.604H192.846L190.187 326H189.339L189.53 324.858ZM187.842 318.604L189.927 324.893L190.07 326H189.223L186.543 318.604H187.842ZM202.252 316.033H202.361V317.106H202.252C201.582 317.106 201.021 317.216 200.57 317.435C200.119 317.649 199.761 317.938 199.497 318.303C199.233 318.663 199.041 319.068 198.923 319.52C198.809 319.971 198.752 320.429 198.752 320.894V322.356C198.752 322.799 198.804 323.19 198.909 323.532C199.014 323.869 199.158 324.154 199.34 324.387C199.522 324.619 199.727 324.795 199.955 324.913C200.188 325.032 200.429 325.091 200.68 325.091C200.971 325.091 201.231 325.036 201.459 324.927C201.687 324.813 201.878 324.656 202.033 324.455C202.193 324.25 202.313 324.008 202.396 323.73C202.478 323.452 202.519 323.147 202.519 322.814C202.519 322.518 202.482 322.233 202.409 321.96C202.336 321.682 202.225 321.436 202.074 321.222C201.924 321.003 201.735 320.832 201.507 320.709C201.284 320.581 201.017 320.518 200.707 320.518C200.356 320.518 200.028 320.604 199.723 320.777C199.422 320.946 199.174 321.169 198.978 321.447C198.786 321.721 198.677 322.019 198.649 322.343L197.979 322.336C198.043 321.826 198.162 321.39 198.335 321.03C198.513 320.666 198.731 320.369 198.991 320.142C199.256 319.909 199.549 319.741 199.873 319.636C200.201 319.526 200.548 319.472 200.912 319.472C201.409 319.472 201.837 319.565 202.197 319.752C202.557 319.939 202.854 320.189 203.086 320.504C203.318 320.814 203.489 321.165 203.599 321.557C203.713 321.944 203.77 322.343 203.77 322.753C203.77 323.222 203.703 323.662 203.571 324.072C203.439 324.482 203.241 324.842 202.977 325.152C202.717 325.462 202.396 325.704 202.013 325.877C201.63 326.05 201.186 326.137 200.68 326.137C200.142 326.137 199.673 326.027 199.271 325.809C198.87 325.585 198.538 325.289 198.273 324.92C198.009 324.551 197.811 324.141 197.679 323.689C197.547 323.238 197.48 322.78 197.48 322.315V321.721C197.48 321.019 197.551 320.331 197.692 319.656C197.834 318.982 198.077 318.371 198.424 317.824C198.775 317.277 199.26 316.842 199.88 316.519C200.5 316.195 201.29 316.033 202.252 316.033ZM208.507 318.604V319.574H204.508V318.604H208.507ZM205.861 316.806H207.126V324.168C207.126 324.419 207.165 324.608 207.242 324.735C207.32 324.863 207.42 324.947 207.543 324.988C207.666 325.029 207.798 325.05 207.939 325.05C208.044 325.05 208.154 325.041 208.268 325.022C208.386 325 208.475 324.981 208.534 324.968L208.541 326C208.441 326.032 208.309 326.062 208.145 326.089C207.985 326.121 207.791 326.137 207.563 326.137C207.254 326.137 206.969 326.075 206.709 325.952C206.449 325.829 206.242 325.624 206.087 325.337C205.937 325.045 205.861 324.653 205.861 324.161V316.806ZM211.255 315.5V326H209.99V315.5H211.255ZM210.954 322.021L210.428 322.001C210.432 321.495 210.507 321.028 210.653 320.6C210.799 320.167 211.004 319.791 211.269 319.472C211.533 319.153 211.847 318.907 212.212 318.733C212.581 318.556 212.989 318.467 213.436 318.467C213.8 318.467 214.128 318.517 214.42 318.617C214.712 318.713 214.96 318.868 215.165 319.082C215.375 319.296 215.534 319.574 215.644 319.916C215.753 320.253 215.808 320.666 215.808 321.153V326H214.536V321.14C214.536 320.752 214.479 320.442 214.365 320.21C214.251 319.973 214.085 319.802 213.866 319.697C213.647 319.588 213.379 319.533 213.06 319.533C212.745 319.533 212.458 319.599 212.198 319.731C211.943 319.864 211.722 320.046 211.535 320.278C211.353 320.511 211.209 320.777 211.104 321.078C211.004 321.374 210.954 321.689 210.954 322.021Z" fill="#111111"/>
<rect x="16" y="157" width="238" height="132" rx="4" fill="#777777"/>
<path d="M82.9889 201.16C82.2102 201.16 81.4955 201.021 80.8449 200.744C80.1942 200.467 79.6289 200.072 79.1489 199.56C78.6689 199.037 78.2955 198.424 78.0289 197.72C77.7729 197.016 77.6449 196.243 77.6449 195.4C77.6449 194.6 77.7835 193.859 78.0609 193.176C78.3489 192.483 78.7435 191.875 79.2449 191.352C79.7462 190.829 80.3275 190.424 80.9889 190.136C81.6502 189.848 82.3649 189.704 83.1329 189.704C83.6769 189.704 84.2049 189.789 84.7169 189.96C85.2395 190.12 85.7089 190.349 86.1249 190.648C86.5515 190.936 86.8982 191.267 87.1649 191.64L86.0129 192.84C85.5542 192.371 85.0849 192.019 84.6049 191.784C84.1249 191.549 83.6342 191.432 83.1329 191.432C82.6102 191.432 82.1195 191.533 81.6609 191.736C81.2129 191.928 80.8182 192.2 80.4769 192.552C80.1462 192.904 79.8849 193.325 79.6929 193.816C79.5009 194.296 79.4049 194.824 79.4049 195.4C79.4049 196.008 79.4955 196.563 79.6769 197.064C79.8689 197.555 80.1355 197.976 80.4769 198.328C80.8182 198.68 81.2235 198.952 81.6929 199.144C82.1729 199.325 82.7009 199.416 83.2769 199.416C83.6289 199.416 83.9755 199.368 84.3169 199.272C84.6582 199.176 84.9782 199.037 85.2769 198.856C85.5755 198.675 85.8475 198.461 86.0929 198.216L86.9569 199.624C86.7115 199.912 86.3755 200.173 85.9489 200.408C85.5329 200.643 85.0635 200.829 84.5409 200.968C84.0289 201.096 83.5115 201.16 82.9889 201.16ZM88.6003 201V189.16H90.2483V201H88.6003ZM92.5359 201V192.6H94.1839V201H92.5359ZM93.3359 190.744C92.9839 190.744 92.7119 190.653 92.5199 190.472C92.3279 190.291 92.2319 190.035 92.2319 189.704C92.2319 189.395 92.3279 189.144 92.5199 188.952C92.7225 188.76 92.9945 188.664 93.3359 188.664C93.6879 188.664 93.9599 188.755 94.1519 188.936C94.3439 189.117 94.4399 189.373 94.4399 189.704C94.4399 190.013 94.3385 190.264 94.1359 190.456C93.9439 190.648 93.6772 190.744 93.3359 190.744ZM99.965 201.16C99.1863 201.16 98.4877 200.968 97.869 200.584C97.261 200.2 96.7757 199.677 96.413 199.016C96.061 198.355 95.885 197.613 95.885 196.792C95.885 195.971 96.061 195.229 96.413 194.568C96.7757 193.907 97.261 193.384 97.869 193C98.4877 192.616 99.1863 192.424 99.965 192.424C100.712 192.424 101.389 192.579 101.997 192.888C102.616 193.187 103.085 193.597 103.405 194.12L102.493 195.24C102.322 194.995 102.104 194.771 101.837 194.568C101.57 194.365 101.288 194.205 100.989 194.088C100.69 193.971 100.402 193.912 100.125 193.912C99.613 193.912 99.1543 194.04 98.749 194.296C98.3543 194.541 98.0397 194.883 97.805 195.32C97.5703 195.757 97.453 196.248 97.453 196.792C97.453 197.336 97.5757 197.827 97.821 198.264C98.0663 198.691 98.3917 199.032 98.797 199.288C99.2023 199.544 99.6503 199.672 100.141 199.672C100.429 199.672 100.706 199.624 100.973 199.528C101.25 199.432 101.517 199.288 101.773 199.096C102.029 198.904 102.269 198.669 102.493 198.392L103.405 199.512C103.064 199.992 102.573 200.387 101.933 200.696C101.304 201.005 100.648 201.16 99.965 201.16ZM106.144 198.376L106.064 196.584L110.08 192.6H112.304L106.144 198.376ZM104.64 201V189.16H106.288V201H104.64ZM110.304 201L107.136 197.304L108.304 196.232L112.416 201H110.304ZM121.45 201.16C120.532 201.16 119.722 200.979 119.018 200.616C118.324 200.253 117.727 199.709 117.226 198.984L118.41 197.624C118.932 198.371 119.434 198.888 119.914 199.176C120.394 199.464 120.964 199.608 121.626 199.608C122.031 199.608 122.399 199.544 122.73 199.416C123.06 199.288 123.322 199.112 123.514 198.888C123.706 198.664 123.802 198.408 123.802 198.12C123.802 197.928 123.77 197.747 123.706 197.576C123.642 197.405 123.54 197.251 123.402 197.112C123.274 196.973 123.103 196.845 122.89 196.728C122.687 196.611 122.447 196.509 122.17 196.424C121.892 196.328 121.572 196.248 121.21 196.184C120.634 196.067 120.132 195.912 119.706 195.72C119.279 195.528 118.922 195.288 118.634 195C118.346 194.712 118.132 194.387 117.994 194.024C117.855 193.651 117.786 193.235 117.786 192.776C117.786 192.168 117.956 191.629 118.298 191.16C118.639 190.691 119.098 190.323 119.674 190.056C120.26 189.779 120.916 189.64 121.642 189.64C122.506 189.64 123.258 189.811 123.898 190.152C124.548 190.483 125.06 190.968 125.434 191.608L124.218 192.808C123.898 192.285 123.514 191.885 123.066 191.608C122.628 191.331 122.138 191.192 121.594 191.192C121.178 191.192 120.815 191.256 120.506 191.384C120.196 191.512 119.951 191.693 119.77 191.928C119.599 192.152 119.514 192.419 119.514 192.728C119.514 192.952 119.556 193.16 119.642 193.352C119.727 193.533 119.855 193.699 120.026 193.848C120.207 193.987 120.447 194.115 120.746 194.232C121.044 194.339 121.402 194.435 121.818 194.52C122.404 194.648 122.927 194.813 123.386 195.016C123.844 195.208 124.234 195.437 124.554 195.704C124.874 195.971 125.114 196.269 125.274 196.6C125.444 196.931 125.53 197.288 125.53 197.672C125.53 198.387 125.364 199.005 125.034 199.528C124.703 200.051 124.234 200.456 123.626 200.744C123.018 201.021 122.292 201.16 121.45 201.16ZM127.242 201V189.16H128.89V194.328L128.602 194.52C128.709 194.147 128.917 193.805 129.226 193.496C129.535 193.176 129.903 192.92 130.33 192.728C130.757 192.525 131.194 192.424 131.642 192.424C132.282 192.424 132.815 192.552 133.242 192.808C133.669 193.053 133.989 193.432 134.202 193.944C134.415 194.456 134.522 195.101 134.522 195.88V201H132.874V195.992C132.874 195.512 132.81 195.117 132.682 194.808C132.554 194.488 132.357 194.259 132.09 194.12C131.823 193.971 131.493 193.907 131.098 193.928C130.778 193.928 130.485 193.981 130.218 194.088C129.951 194.184 129.717 194.323 129.514 194.504C129.322 194.685 129.167 194.899 129.05 195.144C128.943 195.379 128.89 195.635 128.89 195.912V201H128.074C127.935 201 127.797 201 127.658 201C127.519 201 127.381 201 127.242 201ZM140.214 201.16C139.392 201.16 138.656 200.973 138.006 200.6C137.366 200.216 136.859 199.699 136.486 199.048C136.112 198.387 135.926 197.635 135.926 196.792C135.926 195.949 136.112 195.203 136.486 194.552C136.859 193.891 137.366 193.373 138.006 193C138.656 192.616 139.392 192.424 140.214 192.424C141.024 192.424 141.75 192.616 142.39 193C143.04 193.373 143.552 193.891 143.926 194.552C144.299 195.203 144.486 195.949 144.486 196.792C144.486 197.635 144.299 198.387 143.926 199.048C143.552 199.699 143.04 200.216 142.39 200.6C141.75 200.973 141.024 201.16 140.214 201.16ZM140.214 199.656C140.715 199.656 141.163 199.533 141.558 199.288C141.952 199.032 142.262 198.691 142.486 198.264C142.71 197.827 142.816 197.336 142.806 196.792C142.816 196.237 142.71 195.747 142.486 195.32C142.262 194.883 141.952 194.541 141.558 194.296C141.163 194.051 140.715 193.928 140.214 193.928C139.712 193.928 139.259 194.056 138.854 194.312C138.459 194.557 138.15 194.899 137.926 195.336C137.702 195.763 137.595 196.248 137.606 196.792C137.595 197.336 137.702 197.827 137.926 198.264C138.15 198.691 138.459 199.032 138.854 199.288C139.259 199.533 139.712 199.656 140.214 199.656ZM145.961 204.52V192.6H147.625V194.52L147.369 194.376C147.433 194.056 147.615 193.752 147.913 193.464C148.212 193.165 148.575 192.925 149.001 192.744C149.439 192.552 149.887 192.456 150.345 192.456C151.103 192.456 151.775 192.643 152.361 193.016C152.948 193.389 153.412 193.901 153.753 194.552C154.095 195.203 154.265 195.949 154.265 196.792C154.265 197.624 154.095 198.371 153.753 199.032C153.423 199.683 152.964 200.2 152.377 200.584C151.791 200.957 151.129 201.144 150.393 201.144C149.903 201.144 149.428 201.048 148.969 200.856C148.511 200.653 148.121 200.397 147.801 200.088C147.481 199.779 147.284 199.459 147.209 199.128L147.625 198.904V204.52H145.961ZM150.121 199.624C150.612 199.624 151.049 199.501 151.433 199.256C151.817 199.011 152.121 198.675 152.345 198.248C152.569 197.821 152.681 197.336 152.681 196.792C152.681 196.248 152.569 195.768 152.345 195.352C152.132 194.925 151.833 194.589 151.449 194.344C151.065 194.099 150.623 193.976 150.121 193.976C149.62 193.976 149.177 194.099 148.793 194.344C148.409 194.579 148.105 194.909 147.881 195.336C147.657 195.763 147.545 196.248 147.545 196.792C147.545 197.336 147.657 197.821 147.881 198.248C148.105 198.675 148.409 199.011 148.793 199.256C149.177 199.501 149.62 199.624 150.121 199.624ZM160.315 201V189.8H161.867L168.715 198.968L168.459 199.112C168.385 198.675 168.321 198.168 168.267 197.592C168.225 197.016 168.193 196.381 168.171 195.688C168.15 194.995 168.139 194.259 168.139 193.48V189.8H169.867V201H168.283L161.547 192.168L161.723 191.944C161.798 192.755 161.857 193.421 161.899 193.944C161.942 194.456 161.974 194.867 161.995 195.176C162.017 195.485 162.027 195.731 162.027 195.912C162.038 196.083 162.043 196.227 162.043 196.344V201H160.315ZM176.043 201.16C175.222 201.16 174.486 200.973 173.835 200.6C173.195 200.216 172.688 199.699 172.315 199.048C171.942 198.387 171.755 197.635 171.755 196.792C171.755 195.949 171.942 195.203 172.315 194.552C172.688 193.891 173.195 193.373 173.835 193C174.486 192.616 175.222 192.424 176.043 192.424C176.854 192.424 177.579 192.616 178.219 193C178.87 193.373 179.382 193.891 179.755 194.552C180.128 195.203 180.315 195.949 180.315 196.792C180.315 197.635 180.128 198.387 179.755 199.048C179.382 199.699 178.87 200.216 178.219 200.6C177.579 200.973 176.854 201.16 176.043 201.16ZM176.043 199.656C176.544 199.656 176.992 199.533 177.387 199.288C177.782 199.032 178.091 198.691 178.315 198.264C178.539 197.827 178.646 197.336 178.635 196.792C178.646 196.237 178.539 195.747 178.315 195.32C178.091 194.883 177.782 194.541 177.387 194.296C176.992 194.051 176.544 193.928 176.043 193.928C175.542 193.928 175.088 194.056 174.683 194.312C174.288 194.557 173.979 194.899 173.755 195.336C173.531 195.763 173.424 196.248 173.435 196.792C173.424 197.336 173.531 197.827 173.755 198.264C173.979 198.691 174.288 199.032 174.683 199.288C175.088 199.533 175.542 199.656 176.043 199.656ZM183.542 201L180.678 192.6L182.342 192.584L184.39 198.872L184.022 198.84L186.246 193.928H187.238L189.478 198.856L189.046 198.888L191.11 192.6H192.774L189.942 201H188.806L186.47 195.656L186.838 195.704L184.662 201H183.542ZM67.6164 257.16C66.7951 257.16 66.0591 256.973 65.4084 256.6C64.7684 256.216 64.2618 255.699 63.8884 255.048C63.5151 254.387 63.3284 253.635 63.3284 252.792C63.3284 251.949 63.5151 251.203 63.8884 250.552C64.2618 249.891 64.7684 249.373 65.4084 249C66.0591 248.616 66.7951 248.424 67.6164 248.424C68.4271 248.424 69.1524 248.616 69.7924 249C70.4431 249.373 70.9551 249.891 71.3284 250.552C71.7018 251.203 71.8884 251.949 71.8884 252.792C71.8884 253.635 71.7018 254.387 71.3284 255.048C70.9551 255.699 70.4431 256.216 69.7924 256.6C69.1524 256.973 68.4271 257.16 67.6164 257.16ZM67.6164 255.656C68.1178 255.656 68.5658 255.533 68.9604 255.288C69.3551 255.032 69.6644 254.691 69.8884 254.264C70.1124 253.827 70.2191 253.336 70.2084 252.792C70.2191 252.237 70.1124 251.747 69.8884 251.32C69.6644 250.883 69.3551 250.541 68.9604 250.296C68.5658 250.051 68.1178 249.928 67.6164 249.928C67.1151 249.928 66.6618 250.056 66.2564 250.312C65.8618 250.557 65.5524 250.899 65.3284 251.336C65.1044 251.763 64.9978 252.248 65.0084 252.792C64.9978 253.336 65.1044 253.827 65.3284 254.264C65.5524 254.691 65.8618 255.032 66.2564 255.288C66.6618 255.533 67.1151 255.656 67.6164 255.656ZM73.3642 257V248.6H75.0122V250.328L74.7242 250.52C74.8309 250.147 75.0389 249.805 75.3482 249.496C75.6575 249.176 76.0255 248.92 76.4522 248.728C76.8789 248.525 77.3162 248.424 77.7642 248.424C78.4042 248.424 78.9375 248.552 79.3642 248.808C79.7909 249.053 80.1109 249.432 80.3242 249.944C80.5375 250.456 80.6442 251.101 80.6442 251.88V257H78.9962V251.992C78.9962 251.512 78.9322 251.117 78.8042 250.808C78.6762 250.488 78.4789 250.259 78.2122 250.12C77.9455 249.971 77.6149 249.907 77.2202 249.928C76.9002 249.928 76.6069 249.981 76.3402 250.088C76.0735 250.184 75.8389 250.323 75.6362 250.504C75.4442 250.685 75.2895 250.899 75.1722 251.144C75.0655 251.379 75.0122 251.635 75.0122 251.912V257H74.1962C74.0575 257 73.9189 257 73.7802 257C73.6415 257 73.5029 257 73.3642 257ZM91.1402 257.16C90.7775 257.16 90.4149 257.101 90.0522 256.984C89.7002 256.867 89.3749 256.712 89.0762 256.52C88.7882 256.317 88.5429 256.099 88.3402 255.864C88.1482 255.619 88.0202 255.373 87.9562 255.128L88.3722 254.904V256.952H86.7242V245.16H88.3722V250.52L88.1162 250.376C88.1695 250.131 88.2869 249.896 88.4682 249.672C88.6495 249.437 88.8789 249.229 89.1562 249.048C89.4442 248.856 89.7535 248.707 90.0842 248.6C90.4149 248.483 90.7509 248.424 91.0922 248.424C91.8495 248.424 92.5215 248.611 93.1082 248.984C93.6949 249.357 94.1589 249.875 94.5002 250.536C94.8415 251.187 95.0122 251.933 95.0122 252.776C95.0122 253.619 94.8415 254.371 94.5002 255.032C94.1695 255.693 93.7109 256.216 93.1242 256.6C92.5375 256.973 91.8762 257.16 91.1402 257.16ZM90.8682 255.656C91.3589 255.656 91.7962 255.533 92.1802 255.288C92.5642 255.032 92.8682 254.691 93.0922 254.264C93.3162 253.827 93.4282 253.331 93.4282 252.776C93.4282 252.232 93.3162 251.747 93.0922 251.32C92.8789 250.883 92.5802 250.541 92.1962 250.296C91.8122 250.051 91.3695 249.928 90.8682 249.928C90.3669 249.928 89.9242 250.051 89.5402 250.296C89.1562 250.541 88.8522 250.883 88.6282 251.32C88.4042 251.747 88.2922 252.232 88.2922 252.776C88.2922 253.331 88.4042 253.827 88.6282 254.264C88.8522 254.691 89.1562 255.032 89.5402 255.288C89.9242 255.533 90.3669 255.656 90.8682 255.656ZM96.7543 257V248.6H98.4023V257H96.7543ZM97.5543 246.744C97.2023 246.744 96.9303 246.653 96.7383 246.472C96.5463 246.291 96.4503 246.035 96.4503 245.704C96.4503 245.395 96.5463 245.144 96.7383 244.952C96.941 244.76 97.213 244.664 97.5543 244.664C97.9063 244.664 98.1783 244.755 98.3703 244.936C98.5623 245.117 98.6583 245.373 98.6583 245.704C98.6583 246.013 98.557 246.264 98.3543 246.456C98.1623 246.648 97.8956 246.744 97.5543 246.744ZM104.391 257.16C103.57 257.16 102.834 256.973 102.183 256.6C101.543 256.216 101.037 255.699 100.663 255.048C100.29 254.387 100.103 253.635 100.103 252.792C100.103 251.949 100.29 251.203 100.663 250.552C101.037 249.891 101.543 249.373 102.183 249C102.834 248.616 103.57 248.424 104.391 248.424C105.202 248.424 105.927 248.616 106.567 249C107.218 249.373 107.73 249.891 108.103 250.552C108.477 251.203 108.663 251.949 108.663 252.792C108.663 253.635 108.477 254.387 108.103 255.048C107.73 255.699 107.218 256.216 106.567 256.6C105.927 256.973 105.202 257.16 104.391 257.16ZM104.391 255.656C104.893 255.656 105.341 255.533 105.735 255.288C106.13 255.032 106.439 254.691 106.663 254.264C106.887 253.827 106.994 253.336 106.983 252.792C106.994 252.237 106.887 251.747 106.663 251.32C106.439 250.883 106.13 250.541 105.735 250.296C105.341 250.051 104.893 249.928 104.391 249.928C103.89 249.928 103.437 250.056 103.031 250.312C102.637 250.557 102.327 250.899 102.103 251.336C101.879 251.763 101.773 252.248 101.783 252.792C101.773 253.336 101.879 253.827 102.103 254.264C102.327 254.691 102.637 255.032 103.031 255.288C103.437 255.533 103.89 255.656 104.391 255.656ZM110.107 257V248.6H111.771V250.392L111.467 250.584C111.553 250.307 111.686 250.04 111.867 249.784C112.059 249.528 112.289 249.304 112.555 249.112C112.833 248.909 113.126 248.749 113.435 248.632C113.755 248.515 114.081 248.456 114.411 248.456C114.891 248.456 115.313 248.536 115.675 248.696C116.038 248.856 116.337 249.096 116.571 249.416C116.806 249.736 116.977 250.136 117.083 250.616L116.827 250.552L116.939 250.28C117.057 250.035 117.217 249.805 117.419 249.592C117.633 249.368 117.873 249.171 118.139 249C118.406 248.829 118.689 248.696 118.987 248.6C119.286 248.504 119.579 248.456 119.867 248.456C120.497 248.456 121.014 248.584 121.419 248.84C121.835 249.096 122.145 249.485 122.347 250.008C122.561 250.531 122.667 251.181 122.667 251.96V257H121.003V252.056C121.003 251.341 120.865 250.819 120.587 250.488C120.321 250.147 119.899 249.976 119.323 249.976C119.025 249.976 118.742 250.029 118.475 250.136C118.219 250.232 117.995 250.371 117.803 250.552C117.611 250.733 117.462 250.947 117.355 251.192C117.249 251.427 117.195 251.688 117.195 251.976V257H115.531V252.024C115.531 251.363 115.387 250.856 115.099 250.504C114.822 250.152 114.417 249.976 113.883 249.976C113.585 249.976 113.307 250.029 113.051 250.136C112.795 250.232 112.571 250.371 112.379 250.552C112.187 250.723 112.038 250.931 111.931 251.176C111.825 251.411 111.771 251.667 111.771 251.944V257H110.107ZM128.474 257.16C127.61 257.16 126.842 256.979 126.17 256.616C125.508 256.243 124.986 255.736 124.602 255.096C124.228 254.456 124.042 253.72 124.042 252.888C124.042 252.227 124.148 251.624 124.362 251.08C124.575 250.536 124.868 250.067 125.242 249.672C125.626 249.267 126.079 248.957 126.602 248.744C127.135 248.52 127.711 248.408 128.33 248.408C128.874 248.408 129.38 248.515 129.85 248.728C130.319 248.931 130.724 249.213 131.066 249.576C131.418 249.939 131.684 250.371 131.866 250.872C132.058 251.363 132.148 251.901 132.138 252.488L132.122 253.192H125.258L124.89 251.88H130.698L130.458 252.152V251.768C130.426 251.416 130.308 251.101 130.106 250.824C129.903 250.547 129.647 250.328 129.338 250.168C129.028 250.008 128.692 249.928 128.33 249.928C127.754 249.928 127.268 250.04 126.874 250.264C126.479 250.477 126.18 250.797 125.978 251.224C125.775 251.64 125.674 252.157 125.674 252.776C125.674 253.363 125.796 253.875 126.042 254.312C126.287 254.739 126.634 255.069 127.082 255.304C127.53 255.539 128.047 255.656 128.634 255.656C129.05 255.656 129.434 255.587 129.786 255.448C130.148 255.309 130.538 255.059 130.954 254.696L131.786 255.864C131.53 256.12 131.215 256.344 130.842 256.536C130.479 256.728 130.09 256.883 129.674 257C129.268 257.107 128.868 257.16 128.474 257.16ZM134.649 257V246.456H136.297V257H134.649ZM132.905 250.2V248.6H138.249V250.2H132.905ZM139.429 257V248.6H141.093V251.24L140.933 250.6C141.051 250.195 141.248 249.827 141.525 249.496C141.813 249.165 142.139 248.904 142.501 248.712C142.875 248.52 143.259 248.424 143.653 248.424C143.835 248.424 144.005 248.44 144.165 248.472C144.336 248.504 144.469 248.541 144.565 248.584L144.133 250.376C144.005 250.323 143.861 250.28 143.701 250.248C143.552 250.205 143.403 250.184 143.253 250.184C142.965 250.184 142.688 250.243 142.421 250.36C142.165 250.467 141.936 250.621 141.733 250.824C141.541 251.016 141.387 251.245 141.269 251.512C141.152 251.768 141.093 252.051 141.093 252.36V257H139.429ZM145.834 257V248.6H147.482V257H145.834ZM146.634 246.744C146.282 246.744 146.01 246.653 145.818 246.472C145.626 246.291 145.53 246.035 145.53 245.704C145.53 245.395 145.626 245.144 145.818 244.952C146.021 244.76 146.293 244.664 146.634 244.664C146.986 244.664 147.258 244.755 147.45 244.936C147.642 245.117 147.738 245.373 147.738 245.704C147.738 246.013 147.637 246.264 147.434 246.456C147.242 246.648 146.976 246.744 146.634 246.744ZM153.263 257.16C152.485 257.16 151.786 256.968 151.167 256.584C150.559 256.2 150.074 255.677 149.711 255.016C149.359 254.355 149.183 253.613 149.183 252.792C149.183 251.971 149.359 251.229 149.711 250.568C150.074 249.907 150.559 249.384 151.167 249C151.786 248.616 152.485 248.424 153.263 248.424C154.01 248.424 154.687 248.579 155.295 248.888C155.914 249.187 156.383 249.597 156.703 250.12L155.791 251.24C155.621 250.995 155.402 250.771 155.135 250.568C154.869 250.365 154.586 250.205 154.287 250.088C153.989 249.971 153.701 249.912 153.423 249.912C152.911 249.912 152.453 250.04 152.047 250.296C151.653 250.541 151.338 250.883 151.103 251.32C150.869 251.757 150.751 252.248 150.751 252.792C150.751 253.336 150.874 253.827 151.119 254.264C151.365 254.691 151.69 255.032 152.095 255.288C152.501 255.544 152.949 255.672 153.439 255.672C153.727 255.672 154.005 255.624 154.271 255.528C154.549 255.432 154.815 255.288 155.071 255.096C155.327 254.904 155.567 254.669 155.791 254.392L156.703 255.512C156.362 255.992 155.871 256.387 155.231 256.696C154.602 257.005 153.946 257.16 153.263 257.16ZM164.166 257L161.302 248.6L162.966 248.584L165.014 254.872L164.646 254.84L166.87 249.928H167.862L170.102 254.856L169.67 254.888L171.734 248.6H173.398L170.566 257H169.43L167.094 251.656L167.462 251.704L165.286 257H164.166ZM179.321 257V251.528C179.321 251.059 179.15 250.68 178.809 250.392C178.478 250.093 178.057 249.944 177.545 249.944C177.075 249.944 176.649 250.04 176.265 250.232C175.891 250.424 175.55 250.717 175.241 251.112L174.169 250.04C174.67 249.496 175.209 249.091 175.785 248.824C176.371 248.557 177.001 248.424 177.673 248.424C178.313 248.424 178.867 248.531 179.337 248.744C179.806 248.957 180.169 249.272 180.425 249.688C180.681 250.093 180.809 250.589 180.809 251.176V257H179.321ZM176.809 257.16C176.265 257.16 175.779 257.053 175.353 256.84C174.926 256.627 174.585 256.333 174.329 255.96C174.083 255.576 173.961 255.128 173.961 254.616C173.961 254.168 174.041 253.773 174.201 253.432C174.361 253.091 174.595 252.808 174.905 252.584C175.225 252.36 175.619 252.189 176.089 252.072C176.569 251.955 177.118 251.896 177.737 251.896H180.073L179.929 253.208H177.529C177.209 253.208 176.921 253.24 176.665 253.304C176.419 253.357 176.206 253.448 176.025 253.576C175.854 253.693 175.726 253.837 175.641 254.008C175.555 254.168 175.513 254.36 175.513 254.584C175.513 254.819 175.571 255.027 175.689 255.208C175.806 255.379 175.966 255.512 176.169 255.608C176.371 255.704 176.606 255.752 176.873 255.752C177.257 255.752 177.619 255.688 177.961 255.56C178.313 255.421 178.622 255.235 178.889 255C179.166 254.765 179.379 254.504 179.529 254.216L179.913 255.288C179.689 255.661 179.411 255.987 179.081 256.264C178.75 256.541 178.393 256.76 178.009 256.92C177.625 257.08 177.225 257.16 176.809 257.16ZM182.604 257V245.16H184.252V257H182.604ZM186.299 257V245.16H187.947V257H186.299ZM193.727 257.16C192.863 257.16 192.095 256.979 191.423 256.616C190.761 256.243 190.239 255.736 189.855 255.096C189.481 254.456 189.295 253.72 189.295 252.888C189.295 252.227 189.401 251.624 189.615 251.08C189.828 250.536 190.121 250.067 190.495 249.672C190.879 249.267 191.332 248.957 191.855 248.744C192.388 248.52 192.964 248.408 193.583 248.408C194.127 248.408 194.633 248.515 195.103 248.728C195.572 248.931 195.977 249.213 196.319 249.576C196.671 249.939 196.937 250.371 197.119 250.872C197.311 251.363 197.401 251.901 197.391 252.488L197.375 253.192H190.511L190.143 251.88H195.951L195.711 252.152V251.768C195.679 251.416 195.561 251.101 195.359 250.824C195.156 250.547 194.9 250.328 194.591 250.168C194.281 250.008 193.945 249.928 193.583 249.928C193.007 249.928 192.521 250.04 192.127 250.264C191.732 250.477 191.433 250.797 191.231 251.224C191.028 251.64 190.927 252.157 190.927 252.776C190.927 253.363 191.049 253.875 191.295 254.312C191.54 254.739 191.887 255.069 192.335 255.304C192.783 255.539 193.3 255.656 193.887 255.656C194.303 255.656 194.687 255.587 195.039 255.448C195.401 255.309 195.791 255.059 196.207 254.696L197.039 255.864C196.783 256.12 196.468 256.344 196.095 256.536C195.732 256.728 195.343 256.883 194.927 257C194.521 257.107 194.121 257.16 193.727 257.16ZM199.902 257V246.456H201.55V257H199.902ZM198.158 250.2V248.6H203.502V250.2H198.158ZM204.922 253.144C204.848 252.472 204.778 251.779 204.714 251.064C204.661 250.339 204.618 249.624 204.586 248.92C204.554 248.216 204.538 247.549 204.538 246.92V245.8H206.266V246.92C206.266 247.581 206.25 248.275 206.218 249C206.186 249.725 206.138 250.445 206.074 251.16C206.021 251.864 205.957 252.525 205.882 253.144H204.922ZM205.354 257.176C205.002 257.176 204.73 257.075 204.538 256.872C204.346 256.659 204.25 256.36 204.25 255.976C204.25 255.624 204.352 255.336 204.554 255.112C204.757 254.888 205.024 254.776 205.354 254.776C205.706 254.776 205.978 254.883 206.17 255.096C206.362 255.299 206.458 255.592 206.458 255.976C206.458 256.328 206.357 256.616 206.154 256.84C205.952 257.064 205.685 257.176 205.354 257.176Z" fill="white"/>
<path d="M46.4465 236.32C44.6545 236.32 43.0332 236.032 41.5825 235.456C40.1532 234.88 38.9158 234.069 37.8705 233.024C36.8252 231.979 36.0252 230.752 35.4705 229.344C34.9158 227.936 34.6385 226.4 34.6385 224.736C34.6385 223.072 34.9372 221.536 35.5345 220.128C36.1318 218.72 36.9638 217.493 38.0305 216.448C39.1185 215.403 40.3985 214.592 41.8705 214.016C43.3638 213.44 44.9958 213.152 46.7665 213.152C47.9825 213.152 49.1345 213.312 50.2225 213.632C51.3318 213.952 52.3345 214.389 53.2305 214.944C54.1478 215.499 54.9052 216.128 55.5025 216.832L52.1425 220.352C51.3745 219.627 50.5425 219.061 49.6465 218.656C48.7718 218.229 47.7798 218.016 46.6705 218.016C45.7532 218.016 44.8998 218.187 44.1105 218.528C43.3425 218.848 42.6598 219.317 42.0625 219.936C41.4865 220.533 41.0385 221.248 40.7185 222.08C40.3985 222.891 40.2385 223.776 40.2385 224.736C40.2385 225.696 40.4092 226.581 40.7505 227.392C41.0918 228.203 41.5612 228.917 42.1585 229.536C42.7772 230.133 43.4918 230.603 44.3025 230.944C45.1132 231.285 45.9878 231.456 46.9265 231.456C47.5878 231.456 48.1958 231.36 48.7505 231.168C49.3265 230.955 49.8278 230.677 50.2545 230.336C50.7025 229.973 51.0438 229.557 51.2785 229.088C51.5345 228.597 51.6625 228.075 51.6625 227.52V226.688L52.3665 227.776H46.2545V223.456H56.7825C56.8252 223.691 56.8572 224.011 56.8785 224.416C56.8998 224.821 56.9105 225.216 56.9105 225.6C56.9318 225.963 56.9425 226.251 56.9425 226.464C56.9425 227.915 56.6758 229.248 56.1425 230.464C55.6305 231.659 54.8945 232.693 53.9345 233.568C52.9958 234.443 51.8865 235.125 50.6065 235.616C49.3265 236.085 47.9398 236.32 46.4465 236.32ZM67.9905 236.32C66.1132 236.32 64.4705 235.947 63.0625 235.2C61.6758 234.453 60.5985 233.429 59.8305 232.128C59.0838 230.805 58.7105 229.301 58.7105 227.616C58.7105 226.293 58.9238 225.088 59.3505 224C59.7772 222.891 60.3745 221.941 61.1425 221.152C61.9318 220.363 62.8492 219.755 63.8945 219.328C64.9612 218.88 66.1238 218.656 67.3825 218.656C68.5772 218.656 69.6652 218.869 70.6465 219.296C71.6278 219.723 72.4812 220.32 73.2065 221.088C73.9318 221.856 74.4865 222.763 74.8705 223.808C75.2545 224.853 75.4358 225.995 75.4145 227.232L75.3825 228.64H61.8785L61.1105 225.728H71.1905L70.6465 226.304V225.664C70.6038 225.131 70.4332 224.672 70.1345 224.288C69.8572 223.883 69.4838 223.563 69.0145 223.328C68.5665 223.093 68.0545 222.976 67.4785 222.976C66.6252 222.976 65.8998 223.147 65.3025 223.488C64.7265 223.808 64.2892 224.277 63.9905 224.896C63.6918 225.515 63.5425 226.283 63.5425 227.2C63.5425 228.117 63.7345 228.928 64.1185 229.632C64.5238 230.336 65.0998 230.88 65.8465 231.264C66.6145 231.648 67.5212 231.84 68.5665 231.84C69.2705 231.84 69.9105 231.733 70.4865 231.52C71.0625 231.307 71.6812 230.944 72.3425 230.432L74.7425 233.824C74.0812 234.379 73.3772 234.848 72.6305 235.232C71.8838 235.595 71.1158 235.861 70.3265 236.032C69.5585 236.224 68.7798 236.32 67.9905 236.32ZM79.4437 236V214.72H84.5957V236H79.4437ZM76.4357 223.52V219.008H87.8597V223.52H76.4357ZM99.4357 236L98.3477 233.312L104.78 226.208C105.164 225.803 105.569 225.344 105.996 224.832C106.422 224.32 106.828 223.797 107.212 223.264C107.617 222.709 107.937 222.176 108.172 221.664C108.428 221.152 108.556 220.693 108.556 220.288C108.556 219.861 108.46 219.488 108.268 219.168C108.097 218.848 107.83 218.603 107.468 218.432C107.126 218.24 106.678 218.144 106.124 218.144C105.654 218.144 105.196 218.272 104.748 218.528C104.3 218.784 103.873 219.168 103.468 219.68C103.084 220.171 102.721 220.8 102.38 221.568L98.3477 219.328C98.7957 218.091 99.4251 217.003 100.236 216.064C101.068 215.125 102.038 214.389 103.148 213.856C104.257 213.323 105.441 213.067 106.7 213.088C108.022 213.088 109.206 213.365 110.252 213.92C111.318 214.475 112.161 215.243 112.78 216.224C113.42 217.184 113.74 218.315 113.74 219.616C113.74 220.192 113.654 220.789 113.484 221.408C113.334 222.027 113.078 222.688 112.716 223.392C112.374 224.075 111.916 224.811 111.34 225.6C110.764 226.389 110.06 227.243 109.228 228.16L104.268 233.568L103.596 231.168H114.732V236H99.4357ZM123.399 236.224C121.714 236.224 120.178 235.893 118.791 235.232C117.426 234.549 116.295 233.568 115.399 232.288L118.343 229.024C119.218 230.005 120.018 230.667 120.743 231.008C121.49 231.349 122.311 231.52 123.207 231.52C123.89 231.52 124.498 231.381 125.031 231.104C125.564 230.827 125.98 230.443 126.279 229.952C126.578 229.461 126.727 228.917 126.727 228.32C126.727 227.68 126.567 227.115 126.247 226.624C125.948 226.112 125.532 225.717 124.999 225.44C124.487 225.141 123.9 224.992 123.239 224.992C122.77 224.992 122.322 225.035 121.895 225.12C121.49 225.184 121.052 225.323 120.583 225.536C120.114 225.728 119.538 226.016 118.855 226.4L116.519 223.264L117.895 213.408H130.759V218.048H120.519L121.895 216.256L120.871 223.264L118.983 222.592C119.367 222.251 119.847 221.952 120.423 221.696C121.02 221.419 121.65 221.195 122.311 221.024C122.994 220.853 123.666 220.768 124.327 220.768C125.756 220.768 127.026 221.099 128.135 221.76C129.244 222.4 130.119 223.296 130.759 224.448C131.42 225.579 131.751 226.891 131.751 228.384C131.751 229.856 131.378 231.189 130.631 232.384C129.906 233.557 128.914 234.496 127.655 235.2C126.396 235.883 124.978 236.224 123.399 236.224ZM138.142 236L152.958 213.6H157.758L142.782 236H138.142ZM139.678 225.472C138.59 225.472 137.62 225.205 136.766 224.672C135.913 224.117 135.241 223.371 134.75 222.432C134.281 221.493 134.046 220.416 134.046 219.2C134.046 218.005 134.281 216.939 134.75 216C135.241 215.061 135.902 214.325 136.734 213.792C137.588 213.259 138.569 212.992 139.678 212.992C140.788 212.992 141.758 213.259 142.59 213.792C143.422 214.325 144.073 215.061 144.542 216C145.012 216.939 145.246 218.016 145.246 219.232C145.246 220.405 145.001 221.472 144.51 222.432C144.02 223.371 143.358 224.117 142.526 224.672C141.694 225.205 140.745 225.472 139.678 225.472ZM139.678 222.144C140.02 222.144 140.308 222.027 140.542 221.792C140.777 221.557 140.958 221.227 141.086 220.8C141.214 220.352 141.278 219.829 141.278 219.232C141.278 218.635 141.214 218.123 141.086 217.696C140.958 217.248 140.777 216.907 140.542 216.672C140.308 216.437 140.02 216.32 139.678 216.32C139.337 216.32 139.038 216.448 138.782 216.704C138.526 216.939 138.324 217.269 138.174 217.696C138.046 218.123 137.982 218.635 137.982 219.232C137.982 220.128 138.132 220.843 138.43 221.376C138.75 221.888 139.166 222.144 139.678 222.144ZM156.638 236.288C155.572 236.288 154.601 236.021 153.726 235.488C152.873 234.933 152.201 234.187 151.71 233.248C151.22 232.309 150.974 231.253 150.974 230.08C150.974 228.864 151.209 227.787 151.678 226.848C152.169 225.909 152.841 225.173 153.694 224.64C154.548 224.085 155.529 223.808 156.638 223.808C157.726 223.808 158.686 224.085 159.518 224.64C160.35 225.173 161.001 225.909 161.47 226.848C161.94 227.787 162.174 228.864 162.174 230.08C162.174 231.253 161.929 232.309 161.438 233.248C160.969 234.187 160.318 234.933 159.486 235.488C158.654 236.021 157.705 236.288 156.638 236.288ZM156.638 232.992C156.98 232.992 157.268 232.875 157.502 232.64C157.737 232.384 157.918 232.043 158.046 231.616C158.174 231.168 158.238 230.656 158.238 230.08C158.238 229.184 158.1 228.469 157.822 227.936C157.545 227.403 157.15 227.136 156.638 227.136C156.297 227.136 155.998 227.264 155.742 227.52C155.486 227.755 155.284 228.096 155.134 228.544C155.006 228.971 154.942 229.483 154.942 230.08C154.942 230.955 155.092 231.659 155.39 232.192C155.71 232.725 156.126 232.992 156.638 232.992ZM185.541 236.32C183.855 236.32 182.298 236.032 180.869 235.456C179.461 234.88 178.234 234.08 177.189 233.056C176.165 232.011 175.365 230.784 174.789 229.376C174.213 227.947 173.925 226.389 173.925 224.704C173.925 223.04 174.213 221.504 174.789 220.096C175.365 218.667 176.165 217.429 177.189 216.384C178.234 215.339 179.461 214.528 180.869 213.952C182.298 213.376 183.855 213.088 185.541 213.088C187.205 213.088 188.741 213.376 190.149 213.952C191.557 214.528 192.773 215.339 193.797 216.384C194.842 217.429 195.653 218.667 196.229 220.096C196.805 221.504 197.093 223.051 197.093 224.736C197.093 226.4 196.805 227.936 196.229 229.344C195.653 230.752 194.842 231.979 193.797 233.024C192.773 234.069 191.557 234.88 190.149 235.456C188.741 236.032 187.205 236.32 185.541 236.32ZM185.541 231.168C186.415 231.168 187.215 231.008 187.941 230.688C188.666 230.368 189.295 229.92 189.829 229.344C190.383 228.768 190.81 228.085 191.109 227.296C191.407 226.507 191.557 225.653 191.557 224.736C191.557 223.797 191.407 222.933 191.109 222.144C190.81 221.355 190.383 220.672 189.829 220.096C189.295 219.499 188.666 219.04 187.941 218.72C187.215 218.4 186.415 218.24 185.541 218.24C184.666 218.24 183.855 218.4 183.109 218.72C182.383 219.04 181.743 219.499 181.189 220.096C180.655 220.672 180.239 221.355 179.941 222.144C179.642 222.933 179.493 223.797 179.493 224.736C179.493 225.973 179.749 227.083 180.261 228.064C180.794 229.024 181.509 229.781 182.405 230.336C183.322 230.891 184.367 231.168 185.541 231.168ZM200.599 236V213.6H206.071V236H200.599ZM203.159 227.424V222.848H214.807V227.424H203.159ZM203.159 218.432V213.6H216.087V218.432H203.159ZM219.74 236V213.6H225.212V236H219.74ZM222.3 227.424V222.848H233.948V227.424H222.3ZM222.3 218.432V213.6H235.228V218.432H222.3Z" fill="#27C4B8"/>
<path d="M148.369 42.6364L155.702 55.0298H155.987L163.355 42.6364H172.038L160.94 60.8182L172.286 79H163.444L155.987 66.5888H155.702L148.245 79H139.438L150.82 60.8182L139.651 42.6364H148.369ZM176.903 79V42.6364H191.249C193.996 42.6364 196.339 43.1276 198.281 44.1101C200.234 45.0807 201.719 46.4598 202.737 48.2472C203.767 50.0227 204.282 52.112 204.282 54.5149C204.282 56.9297 203.761 59.0071 202.719 60.7472C201.678 62.4754 200.169 63.8011 198.192 64.7244C196.227 65.6477 193.848 66.1094 191.054 66.1094H181.448V59.9304H189.811C191.279 59.9304 192.498 59.7292 193.469 59.3267C194.439 58.9242 195.161 58.3205 195.635 57.5156C196.12 56.7107 196.363 55.7105 196.363 54.5149C196.363 53.3075 196.12 52.2895 195.635 51.4609C195.161 50.6323 194.433 50.005 193.451 49.5788C192.48 49.1409 191.255 48.9219 189.776 48.9219H184.591V79H176.903ZM196.54 62.4517L205.578 79H197.091L188.249 62.4517H196.54ZM209.715 79V42.6364H224.062C226.82 42.6364 229.17 43.1631 231.111 44.2166C233.052 45.2583 234.532 46.7083 235.55 48.5668C236.58 50.4134 237.094 52.544 237.094 54.9588C237.094 57.3736 236.574 59.5043 235.532 61.3509C234.49 63.1974 232.981 64.6357 231.004 65.6655C229.039 66.6953 226.66 67.2102 223.866 67.2102H214.722V61.049H222.624C224.103 61.049 225.322 60.7945 226.281 60.2855C227.252 59.7647 227.974 59.0485 228.447 58.1371C228.933 57.2138 229.175 56.1544 229.175 54.9588C229.175 53.7514 228.933 52.6979 228.447 51.7983C227.974 50.8868 227.252 50.1825 226.281 49.6854C225.311 49.1764 224.08 48.9219 222.588 48.9219H217.403V79H209.715Z" fill="#111111"/>
<path d="M139.938 103V87H141.875V94.125H150.406V87H152.344V103H150.406V95.8437H141.875V103H139.938ZM169.723 95C169.723 96.6875 169.418 98.1458 168.809 99.375C168.199 100.604 167.363 101.552 166.301 102.219C165.238 102.885 164.025 103.219 162.66 103.219C161.296 103.219 160.082 102.885 159.02 102.219C157.957 101.552 157.121 100.604 156.512 99.375C155.902 98.1458 155.598 96.6875 155.598 95C155.598 93.3125 155.902 91.8542 156.512 90.625C157.121 89.3958 157.957 88.4479 159.02 87.7812C160.082 87.1146 161.296 86.7812 162.66 86.7812C164.025 86.7812 165.238 87.1146 166.301 87.7812C167.363 88.4479 168.199 89.3958 168.809 90.625C169.418 91.8542 169.723 93.3125 169.723 95ZM167.848 95C167.848 93.6146 167.616 92.4453 167.152 91.4922C166.694 90.5391 166.072 89.8177 165.285 89.3281C164.504 88.8385 163.629 88.5937 162.66 88.5937C161.691 88.5937 160.814 88.8385 160.027 89.3281C159.246 89.8177 158.624 90.5391 158.16 91.4922C157.702 92.4453 157.473 93.6146 157.473 95C157.473 96.3854 157.702 97.5547 158.16 98.5078C158.624 99.4609 159.246 100.182 160.027 100.672C160.814 101.161 161.691 101.406 162.66 101.406C163.629 101.406 164.504 101.161 165.285 100.672C166.072 100.182 166.694 99.4609 167.152 98.5078C167.616 97.5547 167.848 96.3854 167.848 95ZM172.98 103V87H174.918V101.281H182.355V103H172.98ZM190.293 103H185.355V87H190.512C192.064 87 193.392 87.3203 194.496 87.9609C195.6 88.5964 196.447 89.5104 197.035 90.7031C197.624 91.8906 197.918 93.3125 197.918 94.9687C197.918 96.6354 197.621 98.0703 197.027 99.2734C196.434 100.471 195.569 101.393 194.434 102.039C193.298 102.68 191.918 103 190.293 103ZM187.293 101.281H190.168C191.491 101.281 192.587 101.026 193.457 100.516C194.327 100.005 194.975 99.2786 195.402 98.3359C195.829 97.3932 196.043 96.2708 196.043 94.9687C196.043 93.6771 195.832 92.5651 195.41 91.6328C194.988 90.6953 194.358 89.9766 193.52 89.4766C192.681 88.9714 191.637 88.7187 190.387 88.7187H187.293V101.281ZM201.168 103V87H210.824V88.7187H203.105V94.125H210.324V95.8437H203.105V101.281H210.949V103H201.168ZM214.316 103V87H219.723C220.973 87 221.999 87.2135 222.801 87.6406C223.603 88.0625 224.197 88.6432 224.582 89.3828C224.967 90.1224 225.16 90.9635 225.16 91.9062C225.16 92.849 224.967 93.6849 224.582 94.4141C224.197 95.1432 223.605 95.7161 222.809 96.1328C222.012 96.5443 220.993 96.75 219.754 96.75H215.379V95H219.691C220.546 95 221.233 94.875 221.754 94.625C222.28 94.375 222.66 94.0208 222.895 93.5625C223.134 93.099 223.254 92.5469 223.254 91.9062C223.254 91.2656 223.134 90.7057 222.895 90.2266C222.655 89.7474 222.272 89.3776 221.746 89.1172C221.22 88.8516 220.525 88.7187 219.66 88.7187H216.254V103H214.316ZM221.848 95.8125L225.785 103H223.535L219.66 95.8125H221.848ZM237.139 91C237.045 90.2083 236.665 89.5938 235.998 89.1562C235.331 88.7187 234.514 88.5 233.545 88.5C232.837 88.5 232.217 88.6146 231.686 88.8437C231.16 89.0729 230.748 89.388 230.451 89.7891C230.16 90.1901 230.014 90.6458 230.014 91.1562C230.014 91.5833 230.115 91.9505 230.318 92.2578C230.527 92.5599 230.792 92.8125 231.115 93.0156C231.438 93.2135 231.777 93.3776 232.131 93.5078C232.485 93.6328 232.811 93.7344 233.107 93.8125L234.732 94.25C235.149 94.3594 235.613 94.5104 236.123 94.7031C236.639 94.8958 237.131 95.1589 237.6 95.4922C238.074 95.8203 238.464 96.2422 238.771 96.7578C239.079 97.2734 239.232 97.9062 239.232 98.6562C239.232 99.5208 239.006 100.302 238.553 101C238.105 101.698 237.449 102.253 236.584 102.664C235.725 103.076 234.68 103.281 233.451 103.281C232.305 103.281 231.313 103.096 230.475 102.727C229.641 102.357 228.985 101.841 228.506 101.18C228.032 100.518 227.764 99.75 227.701 98.875H229.701C229.753 99.4792 229.956 99.9792 230.311 100.375C230.67 100.766 231.123 101.057 231.67 101.25C232.222 101.437 232.816 101.531 233.451 101.531C234.191 101.531 234.855 101.411 235.443 101.172C236.032 100.927 236.498 100.589 236.842 100.156C237.186 99.7187 237.357 99.2083 237.357 98.625C237.357 98.0937 237.209 97.6615 236.912 97.3281C236.615 96.9948 236.225 96.724 235.74 96.5156C235.256 96.3073 234.732 96.125 234.17 95.9687L232.201 95.4062C230.951 95.0469 229.962 94.5339 229.232 93.8672C228.503 93.2005 228.139 92.3281 228.139 91.25C228.139 90.3542 228.381 89.5729 228.865 88.9062C229.355 88.2344 230.011 87.7135 230.834 87.3437C231.662 86.9687 232.587 86.7812 233.607 86.7812C234.639 86.7812 235.555 86.9661 236.357 87.3359C237.16 87.7005 237.795 88.2005 238.264 88.8359C238.738 89.4714 238.988 90.1927 239.014 91H237.139ZM140.29 110.091H143.023L149.449 125.787H149.67L156.097 110.091H158.83V129H156.688V114.634H156.503L150.594 129H148.526L142.616 114.634H142.432V129H140.29V110.091ZM164.196 129H161.796L168.739 110.091H171.102L178.046 129H175.645L169.994 113.082H169.847L164.196 129ZM165.083 121.614H174.759V123.645H165.083V121.614ZM177.748 112.122V110.091H191.93V112.122H185.984V129H183.694V112.122H177.748ZM194.43 112.122V110.091H208.611V112.122H202.665V129H200.376V112.122H194.43ZM212.145 129V110.091H223.557V112.122H214.435V118.511H222.966V120.543H214.435V126.969H223.705V129H212.145ZM227.684 129V110.091H234.074C235.551 110.091 236.763 110.343 237.711 110.848C238.659 111.347 239.361 112.033 239.816 112.907C240.272 113.781 240.5 114.775 240.5 115.889C240.5 117.003 240.272 117.991 239.816 118.853C239.361 119.715 238.662 120.392 237.721 120.884C236.779 121.371 235.575 121.614 234.11 121.614H228.94V119.545H234.037C235.046 119.545 235.859 119.398 236.474 119.102C237.096 118.807 237.545 118.388 237.822 117.847C238.105 117.299 238.247 116.646 238.247 115.889C238.247 115.132 238.105 114.47 237.822 113.904C237.539 113.338 237.087 112.901 236.465 112.593C235.843 112.279 235.021 112.122 234 112.122H229.974V129H227.684ZM236.585 120.506L241.238 129H238.579L234 120.506H236.585Z" fill="#111111"/>
<path d="M60.7751 56.7946C63.7724 52.7961 66.2191 49.4742 69.1551 45.5371L80.1042 49.5972C80.1042 49.5972 73.498 57.9634 71.4183 61.4084C67.8706 59.8704 64.384 58.3325 60.7751 56.7331V56.7946Z" fill="black"/>
<path d="M69.1551 45.5379L80.1041 49.598C80.1041 49.598 73.498 57.9642 71.4183 61.4092C67.8706 59.8712 64.384 58.3333 60.7751 56.7339C63.7723 52.7353 66.219 49.4134 69.1551 45.4764M68.7269 44L68.1764 44.7382L66.5249 46.9528L59.7964 55.9957L58.8789 57.226L60.2858 57.8412L62.7325 58.887L70.8678 62.7625L71.9076 62.8856L72.4581 61.9628C74.4767 58.5794 81.0216 50.3362 81.0828 50.2747L82.1227 48.9213L80.5323 48.3062L69.5833 44.3691L68.7269 44.0615V44Z" fill="#EEEEEE"/>
<path d="M72.7029 62.2076C75.0884 58.7011 80.5324 53.4107 82.9179 49.9043L93.1329 53.4723C89.891 57.4093 81.8169 68.0516 78.575 71.9272H78.4526C78.6362 70.6353 78.8808 69.405 79.0643 68.1132C79.4925 65.8986 79.4925 65.8986 77.5351 64.8528C75.9448 63.9916 74.4156 63.1918 72.7641 62.2691L72.7029 62.2076Z" fill="black"/>
<path d="M82.9179 49.9051L93.133 53.4731C89.8911 57.4101 81.8169 68.0525 78.575 71.928H78.4527C78.6362 70.6361 78.8809 69.4058 79.0644 68.114C79.4926 65.8994 79.4926 65.8994 77.5352 64.8536C75.9448 63.9924 74.4156 63.1927 72.7641 62.2699C75.1496 58.7635 80.5936 53.4731 82.9791 49.9666M82.4898 48.4902L81.8169 49.1054C80.6547 50.8278 78.8197 53.1655 76.9235 55.257C74.9661 57.4716 72.9476 59.7477 71.7242 61.5317L70.9902 62.639L72.2136 63.2542L73.4369 63.9308L76.9847 65.8379C77.474 66.0839 77.3517 66.6376 77.5352 66.7606C77.5352 67.0067 78.0245 67.2527 77.9022 67.7449C77.7187 68.6676 77.5964 69.5904 77.474 70.4516C77.4128 70.8207 77.3517 71.2513 77.2905 71.6204L77.107 72.6047L78.0245 72.9738H78.1469L78.942 73.3429L79.4926 72.6662C81.1441 70.6977 84.019 67.0067 86.7715 63.4387C89.5852 59.8708 95.8243 53.0424 95.8243 53.0424L93.5 52.2427L83.285 48.6748L82.4286 48.3672L82.4898 48.4902Z" fill="#EEEEEE"/>
<path d="M77.2295 128.831C77.2295 128.831 66.831 130.061 59.919 126.124C59.7355 126.001 59.4908 125.693 59.552 125.447C60.4695 119.111 61.3259 112.836 62.3045 106.5C62.4269 105.701 62.3045 105.024 61.8152 104.286C56.1266 95.6118 50.438 86.938 44.7494 78.2642C44.4436 77.7721 44.4436 77.4645 44.7494 76.9724C48.9088 71.0668 53.007 65.1612 57.1053 59.1941C57.5946 58.5174 58.084 57.8407 58.5121 57.1641C58.6345 57.1641 58.7568 57.1641 58.818 57.2256C64.8124 60.1784 70.8069 63.1312 76.7401 66.0839C76.9848 66.207 77.1683 66.5761 77.1683 66.8221C77.1683 68.4831 77.1683 70.0825 77.1683 71.7435C77.1683 71.9895 77.1683 72.2356 77.046 72.4201C75.8226 74.6963 74.6604 77.0339 73.4371 79.3715C70.2563 77.9566 67.3203 76.6033 64.3842 75.2499C64.3842 75.1884 64.3842 75.1269 64.3842 75.0654C67.5038 75.4345 70.5622 75.0653 73.6206 74.2656C72.1525 74.1426 70.6845 73.9581 69.2777 74.0196C67.3815 74.1426 65.8523 73.589 64.6289 72.051C63.8337 71.0668 62.7939 70.2671 61.6929 69.2213C62.121 71.1283 62.4269 72.8508 62.7939 74.5732C61.5705 75.0038 60.3472 75.4344 59.0015 75.8651C61.4482 76.9724 63.7114 77.8951 65.9746 78.9409C66.3416 79.1254 66.7698 79.433 66.9533 79.8021C70.868 86.0768 74.7216 92.3515 78.6363 98.5646C79.1868 99.4874 79.5538 100.41 79.3703 101.456C79.3703 101.763 79.1868 102.071 78.9422 102.256C78.0858 102.871 77.2295 103.363 76.312 103.917C76.312 103.917 76.312 104.04 76.312 104.101H79.3092C78.6363 112.406 77.9023 120.588 77.2295 128.769" fill="black"/>
<path d="M73.3758 129.692C69.6446 129.692 64.0171 129.2 59.6742 126.739C59.3072 126.493 58.8791 125.939 59.0014 125.447C59.9801 118.496 60.8976 112.344 61.7539 106.5C61.8763 105.762 61.7539 105.27 61.3869 104.716C58.2062 99.8564 55.0255 95.0581 51.8448 90.1983C49.3369 86.3843 46.829 82.5088 44.3211 78.6948C43.893 78.0181 43.893 77.4029 44.3211 76.7262C47.5019 72.1125 50.7437 67.5603 53.9245 62.9465L58.3285 56.5488L58.8179 56.6719C58.8791 56.6719 59.0014 56.6719 59.1237 56.7334L60.8364 57.5946C66.2192 60.2398 71.6631 62.9465 77.0459 65.5917C77.5352 65.8378 77.7799 66.453 77.8411 66.8836C77.8411 68.36 77.8411 69.8979 77.8411 71.3128V71.8049C77.8411 72.1125 77.8411 72.4816 77.6576 72.7277C77.4741 73.0968 77.2294 73.5274 77.0459 73.8965H77.1682H77.0459C76.3119 75.3113 75.5778 76.7262 74.8438 78.1411L73.804 80.1096L63.8336 75.5574V74.2656L64.5065 74.3271C65.6687 74.4501 66.7697 74.5116 67.9319 74.4501C66.4027 74.2656 65.1182 73.5889 64.1395 72.297C63.7113 71.8049 63.222 71.3128 62.6715 70.8206L63.5278 74.8807L60.7141 75.865L61.0811 76.0495C62.855 76.8493 64.5065 77.5875 66.2192 78.3257C66.7085 78.5717 67.1979 78.9408 67.5037 79.4329C69.0941 82.0166 70.7456 84.6003 72.336 87.2455C74.5992 90.9365 76.8624 94.566 79.1867 98.1955C79.6149 98.9337 80.2266 100.041 79.9819 101.517C79.9819 101.886 79.6761 102.44 79.3091 102.686C78.9421 102.932 78.5751 103.178 78.2692 103.363H80.1043L77.9022 129.2H77.4129C77.2294 129.261 75.7002 129.446 73.437 129.446L73.3758 129.692ZM60.2247 125.509C60.2247 125.509 60.2859 125.632 60.3471 125.632C66.158 128.954 74.6603 128.462 76.74 128.277L78.7586 104.778H75.9449L75.7002 103.732L76.0672 103.486C76.3119 103.363 76.5565 103.178 76.8012 103.055C77.4129 102.686 78.0857 102.256 78.6974 101.886C78.6974 101.886 78.8809 101.702 78.8809 101.517C79.0032 100.718 78.8197 99.9794 78.2081 99.0567C75.9449 95.4272 73.6205 91.7362 71.3573 88.1068C69.7669 85.5231 68.1154 82.9394 66.525 80.2942C66.3415 80.0481 66.0968 79.802 65.791 79.679C64.1395 78.9408 62.4268 78.2026 60.6529 77.4029L57.3499 75.988L62.1209 74.3271L60.7141 67.5603L62.1209 68.9136C62.488 69.2212 62.7938 69.5288 63.1608 69.8364C63.8948 70.4515 64.5677 71.0667 65.1182 71.8049C66.158 73.0968 67.4425 73.5889 69.2776 73.5274C70.4398 73.5274 71.6019 73.5274 72.7641 73.7119C73.07 73.7119 73.3758 73.7119 73.7428 73.7734L75.7614 73.958C76.0672 73.4043 76.3119 72.8507 76.6177 72.3586C76.6177 72.3586 76.6177 72.174 76.6177 71.9895V71.4973C76.6177 70.0209 76.6177 68.5445 76.6177 67.0681C76.6177 67.0681 76.5565 66.8836 76.4954 66.8221C71.1126 64.1769 65.7298 61.4701 60.2859 58.8249L58.8179 58.0867L54.9032 63.7463C51.7224 68.36 48.5417 72.9737 45.2998 77.5259C45.1163 77.772 45.1163 77.8335 45.2998 78.0796C47.8077 81.8936 50.3156 85.7691 52.8234 89.5832C56.0042 94.443 59.1849 99.2412 62.3656 104.101C62.9161 104.901 63.0996 105.762 62.9161 106.746C62.0598 112.529 61.1423 118.68 60.1636 125.57L60.2247 125.509ZM67.1979 75.9265L73.2535 78.6948L73.7428 77.7105C74.2933 76.6032 74.905 75.5574 75.4555 74.5116L73.8652 74.9422C71.5408 75.5574 69.3387 75.9265 67.1979 75.9265V75.9265Z" fill="#EEEEEE"/>
<path d="M90.6255 126.184C90.6255 125.631 90.6255 125.077 90.6255 124.523C90.5643 119.479 90.5032 114.496 90.442 109.452C90.442 109.021 90.5643 108.529 90.809 108.16C91.543 106.93 92.3382 105.699 93.1334 104.469C93.5004 103.915 94.0509 103.485 94.4179 102.993C95.8248 101.209 96.6811 99.117 97.2928 96.9639C98.5161 92.8423 99.0055 88.6592 99.3113 84.4146C99.3113 84.1685 99.3113 83.984 99.3113 83.6149C98.0268 84.4761 96.8646 85.2758 95.7024 86.0755C93.9285 87.3058 92.0935 88.4747 90.3197 89.6435C90.0138 89.8895 89.708 90.1356 89.341 90.4432C84.264 84.4761 78.0861 80.7851 70.012 80.293C74.783 88.5977 79.4318 96.7179 84.2029 105.023C83.163 104.777 82.2455 104.53 81.1445 104.284C80.5328 112.466 79.9211 120.586 79.3095 128.768C80.4716 128.706 81.695 128.583 82.9184 128.399C84.8757 128.03 87.5059 127.353 90.6867 126.246L90.6255 126.184Z" fill="black"/>
<path d="M69.9507 80.2938C78.0248 80.7859 84.264 84.4769 89.2797 90.444C89.6467 90.1364 89.9526 89.8904 90.2584 89.6443C92.0323 88.4755 93.8673 87.2451 95.6412 86.0763C96.8033 85.2766 97.9655 84.4769 99.2501 83.6157C99.2501 83.9848 99.2501 84.1693 99.2501 84.4154C98.9442 88.66 98.4549 92.9047 97.2315 96.9647C96.6198 99.1178 95.7635 101.209 94.3566 102.993C93.9285 103.485 93.4391 103.916 93.0721 104.47C92.2769 105.7 91.4817 106.93 90.7477 108.161C90.5031 108.53 90.3807 109.022 90.3807 109.453C90.3807 114.497 90.5031 119.48 90.5642 124.524C90.5642 125.078 90.5642 125.631 90.5642 126.185C87.3835 127.354 84.7533 127.969 82.7959 128.338C81.5726 128.523 80.4104 128.646 79.187 128.707C79.7987 120.526 80.4104 112.405 81.0221 104.224C82.1231 104.47 83.0406 104.716 84.0805 104.962C79.3094 96.6572 74.6606 88.537 69.8895 80.2323M67.6875 78.8789L68.8497 80.8474L77.719 96.3496L81.6337 103.116H81.3279C81.3279 103.055 79.921 102.686 79.921 102.686L79.7987 104.101L79.3094 110.314L77.9637 128.523L77.8413 129.938H79.2482C80.4716 129.753 81.6949 129.63 82.9183 129.445C85.4261 128.953 88.1175 128.215 90.8701 127.231L91.6653 126.923V126.062V125.508C91.6653 125.139 91.6653 124.709 91.6653 124.34V120.649C91.5429 116.896 91.4818 113.082 91.4818 109.268C91.4818 109.083 91.5429 108.837 91.6653 108.653C92.3993 107.361 93.1944 106.131 93.9896 105.023C94.1731 104.777 94.3566 104.531 94.6013 104.285C94.7848 104.039 95.0295 103.855 95.213 103.609C96.8645 101.578 97.7209 99.1793 98.3325 97.1493C99.4336 93.5198 100.045 89.5828 100.412 84.3539C100.412 84.1078 100.412 83.9233 100.412 83.7387C100.412 83.6772 100.412 83.5542 100.412 83.4311L100.29 81.278L98.516 82.5084L97.3539 83.3081C96.4975 83.8617 95.7023 84.4154 94.9071 84.969C93.6226 85.8303 92.3993 86.63 91.1147 87.4912L89.5244 88.537L89.8302 88.9676L89.4632 88.5985H89.402C83.9581 82.6314 77.5967 79.4326 70.0119 79.0019L67.7487 78.8789H67.6875Z" fill="#EEEEEE"/>
<path d="M77.7798 95.489C85.3808 95.489 91.5426 89.2921 91.5426 81.6478C91.5426 74.0036 85.3808 67.8066 77.7798 67.8066C70.1789 67.8066 64.0171 74.0036 64.0171 81.6478C64.0171 89.2921 70.1789 95.489 77.7798 95.489Z" fill="black"/>
<path d="M77.7799 96.4732C69.7057 96.4732 63.0996 89.8294 63.0996 81.7093C63.0996 73.5891 69.7057 66.9453 77.7799 66.9453C85.854 66.9453 92.4601 73.5891 92.4601 81.7093C92.4601 89.8294 85.854 96.4732 77.7799 96.4732V96.4732ZM77.7799 68.7293C70.6844 68.7293 64.9346 74.5118 64.9346 81.6477C64.9346 88.7836 70.6844 94.5662 77.7799 94.5662C84.8753 94.5662 90.6251 88.7836 90.6251 81.6477C90.6251 74.5118 84.8753 68.7293 77.7799 68.7293V68.7293Z" fill="#EEEEEE"/>
<path d="M82.9792 75.4961H85.1201L80.6548 79.9253C79.0645 81.5247 76.4343 81.5247 74.8439 79.9253L70.3787 75.4961H72.5195L75.8838 78.8795C76.9236 79.8638 78.5751 79.8638 79.5538 78.8795L82.9181 75.4961H82.9792ZM72.5195 87.7994H70.3787L74.8439 83.3702C76.4343 81.7708 79.0645 81.7708 80.6548 83.3702L85.1201 87.7994H82.9792L79.5538 84.416C78.514 83.4317 76.8624 83.4317 75.8838 84.416L72.5195 87.7994V87.7994Z" fill="#EEEEEE"/>
<path d="M97.2914 52.918C99.7381 55.6247 102.185 58.2084 104.57 60.9151C102.368 63.1297 100.166 65.2828 98.0254 67.4359C95.5175 69.8965 93.0708 72.3572 90.5629 74.8178C90.2571 75.1254 90.0736 75.2484 89.6454 75.0024C87.1375 73.4645 84.5685 71.9881 81.9994 70.5117C81.9994 70.5117 81.9994 70.4502 81.8159 70.3271C86.8928 64.5446 92.0309 58.762 97.2302 52.9795L97.2914 52.918Z" fill="black"/>
<path d="M97.2914 52.9187C99.7381 55.6255 102.185 58.2092 104.57 60.9159C102.368 63.1305 100.166 65.2835 98.0254 67.4366C95.5175 69.8973 93.0708 72.3579 90.5629 74.8186C90.3794 75.0031 90.2571 75.1262 90.0124 75.1262C89.7677 75.1262 89.7677 75.1262 89.6454 75.0031C87.1375 73.4652 81.8159 70.3894 81.8159 70.3894C86.8928 64.6069 92.0921 58.7628 97.2302 52.9803M97.2302 51.1348L96.068 52.0575C96.068 52.0575 80.3479 69.6512 79.9197 70.2664C79.4916 70.8815 79.7974 70.82 79.9197 71.0046C80.1644 71.3737 86.7093 75.3722 88.6667 76.3565C88.9725 76.5411 89.4619 76.6641 89.8289 76.6641C90.5629 76.6641 91.1746 75.9259 91.4193 75.7413C93.0708 74.0804 94.6611 72.481 96.3127 70.8815C97.169 70.0203 98.0254 69.2206 98.8206 68.3594C100.35 66.883 101.818 65.3451 103.347 63.8687L105.366 61.8386L106.222 60.9774L105.427 60.1162L102.368 56.7943L98.1477 52.1805L97.2302 51.1963V51.1348Z" fill="#EEEEEE"/>
<path d="M91.3583 84.2304C90.3185 82.877 89.2786 81.5237 88.1165 80.1088C93.1322 75.6181 98.148 71.1274 103.286 66.5137C104.938 69.4665 106.589 72.4193 108.302 75.4336C106.65 76.5409 105.06 77.6482 103.47 78.7554C100.105 81.0316 96.8023 83.3077 93.438 85.5838C93.2545 85.7068 93.071 85.8914 92.8875 86.0759C92.8875 86.0759 91.8477 84.9071 91.3583 84.2919V84.2304Z" fill="black"/>
<path d="M103.286 66.5144C104.938 69.4672 106.589 72.4199 108.302 75.4342C106.65 76.5415 105.06 77.6488 103.469 78.7561C100.105 81.0322 96.8022 83.3084 93.438 85.5845C93.2545 85.7075 93.071 85.892 92.8875 86.0766C92.8875 86.0766 91.8476 84.9078 91.3583 84.2926C90.3184 82.9393 89.2786 81.5859 88.1164 80.171C93.1321 75.6803 98.1479 71.1896 103.286 66.5759M103.225 64.0537L87.3212 79.2483L86.4648 79.9865L87.1989 80.9092C87.5047 81.3398 87.8717 81.7704 88.1775 82.1395C88.9727 83.1238 89.7067 84.1081 90.4407 85.0308C92.2146 87.3069 90.7466 87.8606 91.2971 87.8606L93.438 87.3069L93.805 86.9993C93.8661 86.9378 93.9273 86.8763 93.9885 86.8148C94.0496 86.7533 94.172 86.6302 94.172 86.6302C96.5575 85.0308 98.8819 83.4314 101.267 81.7704L104.142 79.8019C105.243 79.0637 106.344 78.3255 107.445 77.5258L108.975 76.48L109.892 75.8649L109.342 74.8806L106.161 69.2211L104.326 65.9607L103.592 64.6074L103.164 63.9922L103.225 64.0537Z" fill="#EEEEEE"/>
<circle cx="77" cy="83" r="46" stroke="#111111" stroke-width="8"/>
</svg>
