<svg xmlns="http://www.w3.org/2000/svg" id="prefix__Layer_2" width="32" height="27" data-name="Layer 2" viewBox="0 0 32 27">
    <defs>
        <style>
            .prefix__cls-1{fill:#070304}
        </style>
    </defs>
    <g id="prefix__Layer_1-2" data-name="Layer 1-2" transform="translate(-402.424 -237.341)">
        <path id="prefix__패스_4239" d="M429.907 240.875l-3.853 1.957-18.606 9.451a11.085 11.085 0 0 1 16.394-11.083l2.2-1.12.329-.168a13.534 13.534 0 0 0-21.491 10.928c0 .343.013.686.039 1.027a2.453 2.453 0 0 1-1.337 2.373l-1.163.592v2.758l3.424-1.74 1.108-.565 1.093-.555 19.615-9.966 2.2-1.119 4.556-2.315v-2.757z" class="prefix__cls-1" data-name="패스 4239"/>
        <path id="prefix__패스_4240" d="M434.424 244.093l-25.261 12.826-2.2 1.122-4.535 2.3v2.759l4.5-2.289 3.853-1.957 18.625-9.464a11.209 11.209 0 0 1 .1 1.453A11.09 11.09 0 0 1 413 260.478l-.135.071-2.391 1.215a13.532 13.532 0 0 0 21.492-10.92c0-.347-.013-.694-.039-1.037a2.457 2.457 0 0 1 1.336-2.374l1.165-.591z" class="prefix__cls-1" data-name="패스 4240"/>
    </g>
</svg>
