<svg width="80" height="80" fill="none" xmlns="http://www.w3.org/2000/svg">
  <circle cx="40" cy="40" r="40" fill="#EEE"/>
  <path fill-rule="evenodd" clip-rule="evenodd" d="M54.721 43.8c.313-1.215.479-2.488.479-3.8 0-1.312-.166-2.585-.479-3.8H49.32a39.774 39.774 0 0 1 0 7.6h5.402Zm-1.554 3.8H48.75c-.397 1.92-.948 3.704-1.64 5.263-.115.258-.234.511-.358.758a15.269 15.269 0 0 0 6.413-6.021ZM45.5 43.8c.132-1.238.2-2.514.2-3.8s-.068-2.562-.2-3.8h-11a35.837 35.837 0 0 0-.2 3.8c0 1.286.068 2.562.2 3.8h11Zm-10.36 3.8h9.72c-.33 1.391-.744 2.644-1.222 3.72-.639 1.437-1.346 2.456-2.025 3.088-.667.622-1.213.792-1.613.792-.4 0-.946-.17-1.613-.792-.678-.632-1.386-1.651-2.025-3.088-.478-1.076-.892-2.329-1.221-3.72Zm-4.46-3.8a39.776 39.776 0 0 1 0-7.6H25.28A15.228 15.228 0 0 0 24.8 40c0 1.312.166 2.585.479 3.8h5.402Zm-3.846 3.8h4.415c.397 1.92.948 3.704 1.64 5.263.115.258.234.511.358.758a15.268 15.268 0 0 1-6.413-6.021Zm19.92-21.221a15.268 15.268 0 0 1 6.413 6.021H48.75c-.397-1.92-.948-3.704-1.64-5.263a18.844 18.844 0 0 0-.358-.758Zm-3.116 2.301c.478 1.076.892 2.329 1.221 3.72h-9.718c.33-1.391.743-2.644 1.221-3.72.639-1.437 1.346-2.456 2.025-3.088.667-.622 1.213-.792 1.613-.792h.002c.4 0 .945.171 1.611.792.678.632 1.386 1.651 2.025 3.088ZM32.89 27.137c-.693 1.559-1.244 3.343-1.641 5.263h-4.415a15.269 15.269 0 0 1 6.413-6.021c-.123.247-.242.5-.357.758ZM40 59c10.493 0 19-8.507 19-19s-8.507-19-19-19-19 8.507-19 19 8.507 19 19 19Z" fill="#999"/>
</svg>
